<svg xmlns="http://www.w3.org/2000/svg" width="17.82" height="17.819" viewBox="0 0 17.82 17.819">
  <g id="Gruppe_916" data-name="Gruppe 916" transform="translate(-117.353 -884.315)">
    <path id="Pfad_863" data-name="Pfad 863" d="M118.8,932.073l-1.451,1.81,1.072,1.072,1.63-1.63Z" transform="translate(0 -36.303)" fill="#e3305a"/>
    <path id="Pfad_864" data-name="Pfad 864" d="M124.065,941.163,125.2,942.3l1.81-1.451-1.318-1.318Z" transform="translate(-5.102 -41.974)" fill="#e3305a"/>
    <path id="Pfad_865" data-name="Pfad 865" d="M167.994,885.387l-1.072-1.072-1.81,1.451,1.252,1.252Z" transform="translate(-36.304)" fill="#e3305a"/>
    <path id="Pfad_866" data-name="Pfad 866" d="M157.508,893.667l-1.311-1.311-2.028,1.626,1.512,1.512Z" transform="translate(-27.985 -6.113)" fill="#e3305a"/>
    <path id="Pfad_867" data-name="Pfad 867" d="M128.533,922.641l-1.512-1.512-1.626,2.028,1.311,1.311Z" transform="translate(-6.113 -27.984)" fill="#e3305a"/>
    <path id="Pfad_868" data-name="Pfad 868" d="M133.1,931.5l1.377,1.377,2.029-1.626-1.579-1.579Z" transform="translate(-11.971 -34.48)" fill="#e3305a"/>
    <path id="Pfad_869" data-name="Pfad 869" d="M173.89,893.974l1.45-1.81-1.138-1.138-1.63,1.63Z" transform="translate(-41.974 -5.101)" fill="#e3305a"/>
    <path id="Pfad_870" data-name="Pfad 870" d="M164.541,900.062l-1.827,1.827,1.579,1.579,1.626-2.028Z" transform="translate(-34.481 -11.97)" fill="#e3305a"/>
    <path id="Pfad_871" data-name="Pfad 871" d="M156.509,926.9v.575a4,4,0,0,0,4-4h-.575A3.429,3.429,0,0,1,156.509,926.9Z" transform="translate(-29.764 -29.766)" fill="#e3305a"/>
    <path id="Pfad_872" data-name="Pfad 872" d="M162.734,923.473h-.575a5.659,5.659,0,0,1-5.65,5.65v.574A6.234,6.234,0,0,0,162.734,923.473Z" transform="translate(-29.764 -29.766)" fill="#e3305a"/>
    <path id="Pfad_873" data-name="Pfad 873" d="M164.365,923.473a7.863,7.863,0,0,1-7.853,7.853v.574a8.439,8.439,0,0,0,8.427-8.427Z" transform="translate(-29.766 -29.766)" fill="#e3305a"/>
    <path id="Pfad_874" data-name="Pfad 874" d="M145.914,910.654a2.222,2.222,0,1,0-3.793,1.571h0a2.222,2.222,0,0,0,3.793-1.571Z" transform="translate(-18.332 -18.333)" fill="#e3305a"/>
  </g>
</svg>
