<svg id="Gruppe_161" data-name="Gruppe 161" xmlns="http://www.w3.org/2000/svg" width="38.495" height="38.5" viewBox="0 0 38.495 38.5">
  <path id="Pfad_804" data-name="Pfad 804" d="M2258.286,678.909a19.243,19.243,0,1,1-14.018-23.33A19.245,19.245,0,0,1,2258.286,678.909Z" transform="translate(-2220.367 -655.003)" fill="#f7931a"/>
  <path id="Pfad_805" data-name="Pfad 805" d="M2344.688,740.674c.384-2.561-1.567-3.938-4.234-4.857l.865-3.469-2.112-.526-.842,3.378c-.555-.138-1.125-.269-1.691-.4l.847-3.4-2.11-.526-.865,3.469c-.46-.1-.911-.208-1.349-.317l0-.011-2.913-.727-.562,2.256s1.567.359,1.534.381a1.124,1.124,0,0,1,.985,1.228l-.986,3.953a1.846,1.846,0,0,1,.219.07l-.223-.055-1.381,5.537a.769.769,0,0,1-.968.5c.021.031-1.536-.384-1.536-.384l-1.049,2.419,2.749.686c.511.128,1.012.262,1.506.388l-.874,3.51,2.109.526.865-3.473c.576.157,1.135.3,1.683.438l-.862,3.455,2.112.526.874-3.5c3.6.681,6.31.406,7.449-2.85.919-2.622-.046-4.136-1.94-5.123A3.37,3.37,0,0,0,2344.688,740.674Zm-4.825,6.766c-.653,2.623-5.069,1.206-6.5.85l1.16-4.649C2335.954,744,2340.545,744.706,2339.863,747.44Zm.654-6.8c-.6,2.386-4.272,1.174-5.463.876l1.051-4.217C2337.3,737.593,2341.137,738.147,2340.517,740.636Z" transform="translate(-2316.954 -724.166)" fill="#fff"/>
</svg>
