<svg xmlns="http://www.w3.org/2000/svg" xmlns:xlink="http://www.w3.org/1999/xlink" width="27.048" height="40.894" viewBox="0 0 27.048 40.894">
  <defs>
    <linearGradient id="linear-gradient" y1="0.5" x2="1" y2="0.5" gradientUnits="objectBoundingBox">
      <stop offset="0" stop-color="#8b26f4"/>
      <stop offset="1" stop-color="#C996CC"/>
    </linearGradient>
  </defs>
  <g id="Gruppe_1612" data-name="Gruppe 1612" transform="translate(0 0)">
    <path id="Pfad_832" data-name="Pfad 832" d="M461.465,178.467a1.761,1.761,0,1,0-1.154-.427A1.763,1.763,0,0,0,461.465,178.467Zm0-2.533a.777.777,0,1,1-.516,1.364.774.774,0,0,1-.271-.587A.783.783,0,0,1,461.465,175.934Zm4.947,8.285a4.079,4.079,0,0,0,1.179-1.5s0-.01,0-.015c4.212-.608,7.532-1.878,7.532-3.74,0-2.565-5.919-3.555-8.279-3.848a6.533,6.533,0,0,0-10.49,0c-2.192.27-8.279,1.256-8.279,3.848,0,1.864,3.326,3.134,7.545,3.742a4.1,4.1,0,0,0,1.055,1.392L448.3,208.5a2.029,2.029,0,0,0,.519,2.169c1.781,1.62,6.919,2.707,12.785,2.707s11-1.087,12.782-2.705a2.024,2.024,0,0,0,.515-2.18Zm-4.81-10.757a5.536,5.536,0,0,1,5.552,5.507c-.028.361-1.951,1.209-5.552,1.209s-5.524-.847-5.552-1.209A5.536,5.536,0,0,1,461.6,173.461Zm-12.545,5.507c0-.934,2.281-2.143,6.65-2.774a6.4,6.4,0,0,0-.636,2.774c0,1.5,3.385,2.187,6.531,2.187s6.531-.685,6.531-2.187a6.4,6.4,0,0,0-.635-2.771c4.325.629,6.649,1.856,6.649,2.771,0,1.326-4.772,3.174-12.545,3.174S449.057,180.294,449.057,178.968Zm12.545,4.153a43.849,43.849,0,0,0,4.771-.258c-.911,1.242-2.527,1.512-4.765,1.512s-3.841-.271-4.76-1.51A43.9,43.9,0,0,0,461.6,183.121Zm12.124,26.826c-1.591,1.443-6.576,2.451-12.124,2.451s-10.538-1.009-12.126-2.453a1.066,1.066,0,0,1-.252-1.127l8.3-24.165a9.27,9.27,0,0,0,4.084.7,9.582,9.582,0,0,0,3.948-.617l8.419,24.078A1.063,1.063,0,0,1,473.726,209.947Zm-12.75-19v-3.019a.49.49,0,1,1,.979,0v3.019a.49.49,0,1,1-.979,0Zm.979,9.273v3.107a.49.49,0,1,1-.979,0v-3.107a.49.49,0,1,1,.979,0Zm0-6.13v3.107a.49.49,0,1,1-.979,0v-3.107a.49.49,0,1,1,.979,0Zm0,13.092v1.55a.49.49,0,1,1-.979,0v-1.55a.49.49,0,1,1,.979,0Z" transform="translate(-448.078 -172.482)" fill="url(#linear-gradient)"/>
  </g>
</svg>
