<svg xmlns="http://www.w3.org/2000/svg" xmlns:xlink="http://www.w3.org/1999/xlink" width="144" height="144" viewBox="0 0 144 144">
  <defs>
    <linearGradient id="linear-gradient" y1="0.5" x2="1" y2="0.5" gradientUnits="objectBoundingBox">
      <stop offset="0" stop-color="#2160db"/>
      <stop offset="1" stop-color="#e3305a"/>
    </linearGradient>
  </defs>
  <g id="Gruppe_1635" data-name="Gruppe 1635" transform="translate(-273 -122.28)">
    <circle id="Ellipse_60" data-name="Ellipse 60" cx="72" cy="72" r="72" transform="translate(273 122.28)" fill="#1c1c2d"/>
    <g id="Gruppe_1634" data-name="Gruppe 1634" transform="translate(317.987 152.959)">
      <path id="Pfad_832" data-name="Pfad 832" d="M476.009,184.969a3.675,3.675,0,1,0-2.408-.892A3.678,3.678,0,0,0,476.009,184.969Zm0-5.285a1.621,1.621,0,1,1-1.076,2.846,1.616,1.616,0,0,1-.565-1.224A1.633,1.633,0,0,1,476.009,179.684Zm10.322,17.285a8.51,8.51,0,0,0,2.459-3.12c0-.01,0-.021.008-.031,8.788-1.269,15.715-3.918,15.715-7.8,0-5.353-12.35-7.418-17.273-8.028a13.632,13.632,0,0,0-21.888,0c-4.573.564-17.273,2.62-17.273,8.029,0,3.888,6.94,6.539,15.742,7.807a8.554,8.554,0,0,0,2.2,2.9l-17.483,50.9a4.234,4.234,0,0,0,1.082,4.526c3.716,3.379,14.435,5.649,26.675,5.649s22.947-2.268,26.668-5.644a4.224,4.224,0,0,0,1.075-4.548ZM476.3,174.524a11.55,11.55,0,0,1,11.584,11.49c-.058.754-4.07,2.522-11.584,2.522s-11.526-1.768-11.584-2.522A11.55,11.55,0,0,1,476.3,174.524Zm-26.175,11.49c0-1.949,4.759-4.472,13.876-5.787a13.351,13.351,0,0,0-1.328,5.787c0,3.136,7.063,4.564,13.627,4.564s13.626-1.428,13.626-4.564a13.353,13.353,0,0,0-1.325-5.783c9.024,1.312,13.873,3.872,13.873,5.783,0,2.766-9.958,6.623-26.174,6.623S450.12,188.78,450.12,186.015ZM476.3,194.68a91.487,91.487,0,0,0,9.955-.539c-1.9,2.59-5.271,3.154-9.942,3.154-4.647,0-8.015-.566-9.932-3.15A91.588,91.588,0,0,0,476.3,194.68Zm25.3,55.97c-3.319,3.011-13.721,5.114-25.3,5.114s-21.987-2.1-25.3-5.118a2.223,2.223,0,0,1-.525-2.351l17.317-50.419c2.438,1.216,5.464,1.462,8.521,1.462,2.8,0,5.77-.153,8.237-1.288l17.565,50.238A2.218,2.218,0,0,1,501.591,250.65ZM474.988,211v-6.3a1.021,1.021,0,1,1,2.043,0V211a1.021,1.021,0,1,1-2.043,0Zm2.043,19.348v6.483a1.021,1.021,0,1,1-2.043,0v-6.483a1.021,1.021,0,0,1,2.043,0Zm0-12.79v6.483a1.021,1.021,0,1,1-2.043,0v-6.483a1.021,1.021,0,1,1,2.043,0Zm0,27.316V248.1a1.021,1.021,0,1,1-2.043,0V244.87a1.021,1.021,0,0,1,2.043,0Z" transform="translate(-448.078 -172.482)" fill="url(#linear-gradient)"/>
    </g>
  </g>
</svg>
