<svg xmlns="http://www.w3.org/2000/svg" width="19.057" height="18.125" viewBox="0 0 19.057 18.125">
  <g id="Gruppe_915" data-name="Gruppe 915" transform="translate(-285.943 -1365.721)">
    <g id="Gruppe_1607" data-name="Gruppe 1607" transform="translate(285.943 1365.721)">
      <g id="Gruppe_1606" data-name="Gruppe 1606">
        <path id="Pfad_862" data-name="Pfad 862" d="M295.472,1379.714a.618.618,0,0,1,.365.119l5.524,4.014-2.11-6.495a.619.619,0,0,1,.226-.693l5.524-4.014h-6.828a.621.621,0,0,1-.59-.429l-2.11-6.494-2.11,6.494a.621.621,0,0,1-.59.429h-6.829l5.524,4.014a.619.619,0,0,1,.226.693l-2.11,6.495,5.524-4.014A.618.618,0,0,1,295.472,1379.714Z" transform="translate(-285.943 -1365.721)" fill="#e3305a"/>
      </g>
    </g>
  </g>
</svg>
