<svg xmlns="http://www.w3.org/2000/svg" width="14.512" height="19.23" viewBox="0 0 14.512 19.23">
  <g id="Gruppe_912" data-name="Gruppe 912" transform="translate(-1601.423 -724.324)">
    <path id="Pfad_849" data-name="Pfad 849" d="M1608.679,729.041c-.194,0-.386.01-.576.025V727.4a1.312,1.312,0,0,0,.45.081,2.76,2.76,0,0,0,.956-.229c.481-.18.768-.271,1.062-.051a.376.376,0,0,0,.6-.3v-1.685a.376.376,0,0,0-.151-.3,1.705,1.705,0,0,0-1.775-.051c-.482.18-.768.271-1.062.051a.367.367,0,0,0-.081-.045v-.1h-.021a.255.255,0,0,0,.091-.193.258.258,0,1,0-.516,0,.255.255,0,0,0,.091.193h-.021v.15a.373.373,0,0,0-.144.292V726.9a.374.374,0,0,0,.144.294v1.909a7.243,7.243,0,1,0,.952-.065Zm-3.822,11.01a1.429,1.429,0,1,1,1.429-1.429A1.43,1.43,0,0,1,1604.857,740.052Zm1.147-4.714a1.811,1.811,0,1,1,1.811-1.811A1.813,1.813,0,0,1,1606,735.337Zm4.753,5.787a2.576,2.576,0,1,1,2.575-2.576A2.578,2.578,0,0,1,1610.757,741.124Zm1.744-7.9a.865.865,0,1,1,.865-.865A.866.866,0,0,1,1612.5,733.228Z" transform="translate(0)" fill="#e3305a"/>
  </g>
</svg>
