<svg xmlns="http://www.w3.org/2000/svg" width="18.115" height="18.115" viewBox="0 0 18.115 18.115">
  <path id="Icon_awesome-external-link-square-alt" data-name="Icon awesome-external-link-square-alt" d="M18.115,4.191V18.425a1.941,1.941,0,0,1-1.941,1.941H1.941A1.941,1.941,0,0,1,0,18.425V4.191A1.941,1.941,0,0,1,1.941,2.25H16.175A1.941,1.941,0,0,1,18.115,4.191Zm-3.558.647H10.029a.971.971,0,0,0-.686,1.657l1.293,1.293L2.73,15.694a.485.485,0,0,0,0,.686l1.255,1.255a.485.485,0,0,0,.686,0l7.906-7.906,1.293,1.294a.971.971,0,0,0,1.657-.686V5.808A.97.97,0,0,0,14.557,4.838Z" transform="translate(0 -2.25)" fill="#fff"/>
</svg>
