<svg xmlns="http://www.w3.org/2000/svg" width="17.475" height="17.046" viewBox="0 0 17.475 17.046">
  <g id="Gruppe_914" data-name="Gruppe 914" transform="translate(-614.603 -1048.713)">
    <path id="Pfad_856" data-name="Pfad 856" d="M666.957,1048.713a14.283,14.283,0,0,0-4.344.86l3.485,3.485A14.192,14.192,0,0,0,666.957,1048.713Z" transform="translate(-34.879)" fill="#8b26f4"/>
    <path id="Pfad_857" data-name="Pfad 857" d="M617.688,1097.45a2.615,2.615,0,0,0-1.9.706,5.675,5.675,0,0,0-1.189,2.85,2.722,2.722,0,0,1,1.157-.439,5.421,5.421,0,0,1,1.061.012,1.6,1.6,0,0,0,1.557-.426c.529-.53.382-1.865.228-2.6A4.312,4.312,0,0,0,617.688,1097.45Z" transform="translate(0 -35.407)" fill="#8b26f4"/>
    <path id="Pfad_858" data-name="Pfad 858" d="M620.968,1071.607l-4.8.757,2.776,2.776A18.891,18.891,0,0,1,620.968,1071.607Z" transform="translate(-1.138 -16.632)" fill="#8b26f4"/>
    <path id="Pfad_859" data-name="Pfad 859" d="M645.458,1098.289l.757-4.8a18.888,18.888,0,0,1-3.533,2.023Z" transform="translate(-20.399 -32.53)" fill="#8b26f4"/>
    <path id="Pfad_860" data-name="Pfad 860" d="M636.725,1052.934a11.589,11.589,0,0,0-3.576,2.412,26.272,26.272,0,0,0-2.07,2.338,18.037,18.037,0,0,0-2.884,4.962l-.056.163c-.064.2-.121.394-.164.581l2.207,2.207c.2-.046.409-.108.623-.178l.12-.041a17.029,17.029,0,0,0,4.332-2.405l.007-.006c.2-.15.409-.306.613-.466a26.234,26.234,0,0,0,2.348-2.078,11.6,11.6,0,0,0,2.414-3.574Zm-.146,7.335a2.315,2.315,0,1,1,.679-1.638A2.3,2.3,0,0,1,636.578,1060.269Z" transform="translate(-9.715 -3.066)" fill="#8b26f4"/>
  </g>
</svg>
