<svg xmlns="http://www.w3.org/2000/svg" width="36" height="36" viewBox="0 0 36 36">
  <g id="Gruppe_150" data-name="Gruppe 150" transform="translate(-838 -334)">
    <circle id="Ellipse_42" data-name="Ellipse 42" cx="18" cy="18" r="18" transform="translate(838 334)" fill="#fff"/>
    <g id="Gruppe_136" data-name="Gruppe 136" transform="translate(843.824 341.1)">
      <path id="Pfad_738" data-name="Pfad 738" d="M60.75,169.263l3.143.834v-1.09l.257-.257h1.8v2.181H64.021L61.648,169.9Z" transform="translate(-53.888 -149.574)" fill="#cdbdb2" fill-rule="evenodd"/>
      <path id="Pfad_739" data-name="Pfad 739" d="M110.881,169.263l-3.079.834v-1.09l-.257-.257h-1.8v2.181h1.924l2.373-1.026Z" transform="translate(-93.757 -149.574)" fill="#cdbdb2" fill-rule="evenodd"/>
      <path id="Pfad_740" data-name="Pfad 740" d="M88.57,149.946l-.257,2.116.321-.257h3.335l.385.257-.257-2.116-.513-.321-2.565.064Z" transform="translate(-78.308 -132.629)" fill="#393939" fill-rule="evenodd"/>
      <path id="Pfad_741" data-name="Pfad 741" d="M75.375,27l1.539,3.592.706,10.454h2.5l.77-10.454L82.3,27Z" transform="translate(-66.845 -23.986)" fill="#f89c35" fill-rule="evenodd"/>
      <path id="Pfad_742" data-name="Pfad 742" d="M2.359,81.237l-1.8,5.195,4.489-.257H7.939V83.931L7.81,79.313l-.641.513Z" transform="translate(-0.563 -70.334)" fill="#f89d35" fill-rule="evenodd"/>
      <path id="Pfad_743" data-name="Pfad 743" d="M46.125,101.25l5.259.128-.577,2.694-2.5-.641Z" transform="translate(-40.93 -89.77)" fill="#d87c30" fill-rule="evenodd"/>
      <path id="Pfad_744" data-name="Pfad 744" d="M46.125,101.813l2.181,2.052v2.052Z" transform="translate(-40.93 -90.269)" fill="#ea8d3a" fill-rule="evenodd"/>
      <path id="Pfad_745" data-name="Pfad 745" d="M65.25,120.375l2.565.641.834,2.758-.577.321-2.822-1.668Z" transform="translate(-57.875 -106.714)" fill="#f89d35" fill-rule="evenodd"/>
      <path id="Pfad_746" data-name="Pfad 746" d="M61.263,138.375l-.513,3.976,3.4-2.373Z" transform="translate(-53.888 -122.662)" fill="#eb8f35" fill-rule="evenodd"/>
      <path id="Pfad_747" data-name="Pfad 747" d="M87.266,102.375l.321,5.452-.962-2.79Z" transform="translate(-76.812 -90.767)" fill="#ea8e3a" fill-rule="evenodd"/>
      <path id="Pfad_748" data-name="Pfad 748" d="M39.375,138.439l2.95-.064-.513,3.976Z" transform="translate(-34.95 -122.662)" fill="#d87c30" fill-rule="evenodd"/>
      <path id="Pfad_749" data-name="Pfad 749" d="M1.974,144.582l5.451-1.732-2.437-3.912-4.425.321Z" transform="translate(-0.563 -123.161)" fill="#eb8f35" fill-rule="evenodd"/>
      <path id="Pfad_750" data-name="Pfad 750" d="M51,58.5l-2.758,2.309-2.117,2.565,5.259.192Z" transform="translate(-40.93 -51.894)" fill="#e8821e" fill-rule="evenodd"/>
      <path id="Pfad_751" data-name="Pfad 751" d="M60.75,154.811l3.4-2.373-.257,2.052v1.154l-2.309-.449Z" transform="translate(-53.888 -135.121)" fill="#dfcec3" fill-rule="evenodd"/>
      <path id="Pfad_752" data-name="Pfad 752" d="M124.835,154.811l-3.335-2.373.257,2.052v1.154l2.309-.449Z" transform="translate(-107.711 -135.121)" fill="#dfcec3" fill-rule="evenodd"/>
      <path id="Pfad_753" data-name="Pfad 753" d="M65.921,112.5l.706,1.475-2.5-.641Z" transform="translate(-56.878 -99.737)" fill="#393939" fill-rule="evenodd"/>
      <path id="Pfad_754" data-name="Pfad 754" d="M12.375.563,21.1,7.169,19.622,3.577Z" transform="translate(-11.028 -0.563)" fill="#e88f35" fill-rule="evenodd"/>
      <path id="Pfad_755" data-name="Pfad 755" d="M3.4.563,2.25,4.09l.641,3.848L2.442,8.2l.641.577-.513.449.705.641-.449.385L3.853,11.53l4.81-1.475a42.114,42.114,0,0,0,3.463-2.886Q12.063,7.1,3.4.563Z" transform="translate(-2.058 -0.563)" fill="#8e5a30" fill-rule="evenodd"/>
      <g id="Gruppe_135" data-name="Gruppe 135" transform="translate(13.212 0)">
        <path id="Pfad_756" data-name="Pfad 756" d="M151.83,81.237l1.8,5.195-4.49-.257H146.25V83.931l.128-4.618.641.513Z" transform="translate(-142.851 -70.334)" fill="#f89d35" fill-rule="evenodd"/>
        <path id="Pfad_757" data-name="Pfad 757" d="M124.509,101.25l-5.259.128.577,2.694,2.5-.641Z" transform="translate(-118.929 -89.77)" fill="#d87c30" fill-rule="evenodd"/>
        <path id="Pfad_758" data-name="Pfad 758" d="M148.431,101.813l-2.181,2.052v2.052Z" transform="translate(-142.851 -90.269)" fill="#ea8d3a" fill-rule="evenodd"/>
        <path id="Pfad_759" data-name="Pfad 759" d="M119.836,120.375l-2.565.641-.834,2.758.577.321,2.822-1.668Z" transform="translate(-116.437 -106.714)" fill="#f89d35" fill-rule="evenodd"/>
        <path id="Pfad_760" data-name="Pfad 760" d="M124.322,138.375l.513,3.976-3.335-2.309Z" transform="translate(-120.923 -122.662)" fill="#eb8f35" fill-rule="evenodd"/>
        <path id="Pfad_761" data-name="Pfad 761" d="M116.758,102.375l-.321,5.452.962-2.79Z" transform="translate(-116.437 -90.767)" fill="#ea8e3a" fill-rule="evenodd"/>
        <path id="Pfad_762" data-name="Pfad 762" d="M149.2,138.439l-2.95-.064.513,3.976Z" transform="translate(-142.851 -122.662)" fill="#d87c30" fill-rule="evenodd"/>
        <path id="Pfad_763" data-name="Pfad 763" d="M156.2,144.582l-5.451-1.732,2.437-3.912,4.425.321Z" transform="translate(-146.838 -123.161)" fill="#eb8f35" fill-rule="evenodd"/>
        <path id="Pfad_764" data-name="Pfad 764" d="M119.635,58.5l2.758,2.309,2.117,2.565-5.259.192Z" transform="translate(-118.929 -51.894)" fill="#e8821e" fill-rule="evenodd"/>
        <path id="Pfad_765" data-name="Pfad 765" d="M126.143,112.5l-.706,1.475,2.5-.641Z" transform="translate(-124.411 -99.737)" fill="#393939" fill-rule="evenodd"/>
        <path id="Pfad_766" data-name="Pfad 766" d="M131.347.563l-8.722,6.606L124.1,3.577Z" transform="translate(-121.919 -0.563)" fill="#e88f35" fill-rule="evenodd"/>
        <path id="Pfad_767" data-name="Pfad 767" d="M131.339.563l1.154,3.527-.641,3.848.449.257-.641.577.513.449-.705.641.449.385L130.89,11.53l-4.81-1.475a42.113,42.113,0,0,1-3.463-2.886Q122.68,7.1,131.339.563Z" transform="translate(-121.911 -0.563)" fill="#8e5a30" fill-rule="evenodd"/>
      </g>
    </g>
  </g>
</svg>
