<svg xmlns="http://www.w3.org/2000/svg" xmlns:xlink="http://www.w3.org/1999/xlink" width="49" height="49" viewBox="0 0 49 49">
  <defs>
    <clipPath id="clip-path">
      <circle id="Ellipse_2" data-name="Ellipse 2" cx="24.5" cy="24.5" r="24.5" transform="translate(0 0.216)" fill="none"/>
    </clipPath>
    <linearGradient id="linear-gradient" y1="0.5" x2="1" y2="0.5" gradientUnits="objectBoundingBox">
      <stop offset="0" stop-color="#2160db"/>
      <stop offset="1" stop-color="#e3305a"/>
    </linearGradient>
  </defs>
  <g id="Gruppe_1625" data-name="Gruppe 1625" transform="translate(0 -0.216)">
    <circle id="Ellipse_59" data-name="Ellipse 59" cx="23.5" cy="23.5" r="23.5" transform="translate(1 1.216)" fill="#fff"/>
    <g id="Gruppe_1615" data-name="Gruppe 1615" transform="translate(0 0)">
      <g id="Gruppe_25" data-name="Gruppe 25" transform="translate(0 0)" clip-path="url(#clip-path)">
        <g id="NewGroup29-0" transform="translate(-15.499 -14.796)">
          <path id="Pfad_6" data-name="Pfad 6" d="M189.465,430.307l0,0a2.263,2.263,0,0,1,.28-.165.032.032,0,0,1,.011-.007,2.79,2.79,0,1,1,1.264,5.277q-.116,0-.231-.01a2.79,2.79,0,0,1-1.33-5.093Zm2.924-7.952a2.79,2.79,0,0,1,3.409-2.469.051.051,0,0,1,.011,0l.138.036.02,0a2.791,2.791,0,0,1,1.984,2.839l2.839,2.838.975.975a7.149,7.149,0,0,1,2.61-.809h0a7.289,7.289,0,0,1,1.609,0h0a7.162,7.162,0,0,1,2.632.82l.95-.95h0l2.848-2.848a2.79,2.79,0,0,1,5.56-.458h0a2.79,2.79,0,0,1-3.265,3.012l-3.545,3.545a7.174,7.174,0,0,1,1.093,2.546,7.291,7.291,0,0,1,.161,1.525c0,.229-.01.456-.032.679a7.186,7.186,0,0,1-.823,2.736l.5.5h0l3,3a2.788,2.788,0,0,1,2.306.644h0c.048.041.1.086.142.132a2.788,2.788,0,0,1,.632,2.971,2.788,2.788,0,0,1-2.231,1.767,2.788,2.788,0,0,1-1.946-.461,2.656,2.656,0,0,1-.4-.332,2.788,2.788,0,0,1-.809-2.179l-3.208-3.208-.286-.286a7.233,7.233,0,0,1-8.162.014l-.307.307-3.2,3.2a2.787,2.787,0,0,1-.812,2.148,2.676,2.676,0,0,1-.4.332,2.79,2.79,0,0,1-3.545-4.278c.045-.046.094-.09.142-.132h0a2.784,2.784,0,0,1,2.333-.638l3.011-3.011.479-.479a7.2,7.2,0,0,1-.833-2.757c-.022-.223-.032-.45-.032-.679a7.287,7.287,0,0,1,.161-1.525,7.166,7.166,0,0,1,1.106-2.565l-.757-.757h0l-2.773-2.773a2.785,2.785,0,0,1-2.484-.769,2.869,2.869,0,0,1-.289-.34,2.787,2.787,0,0,1-.517-1.881Zm12.791-6.342a2.79,2.79,0,1,1-2.791,2.791,2.791,2.791,0,0,1,2.791-2.791Zm15.335,14.072a.024.024,0,0,1,.009,0,2.581,2.581,0,0,1,.468.276.007.007,0,0,1,.006,0,2.789,2.789,0,0,1,.651,3.834h0a2.781,2.781,0,0,1-2.084,1.2c-.071.007-.141.009-.213.009a2.79,2.79,0,1,1,1.165-5.325ZM206.4,449.645a2.785,2.785,0,0,1-2.459-.026,2.784,2.784,0,0,1-1.534-2.469v-.02a2.789,2.789,0,0,1,5.579-.045c0,.015,0,.03,0,.045a2.786,2.786,0,0,1-1.586,2.516Zm-25.046-7.281a128.015,128.015,0,0,0-4.286,18.243,128.092,128.092,0,0,0,18.242-4.285,128.084,128.084,0,0,0,9.869,15.929,128.026,128.026,0,0,0,9.869-15.929,128.106,128.106,0,0,0,18.243,4.285,128.021,128.021,0,0,0-4.286-18.243,128.077,128.077,0,0,0,15.93-9.869,128.124,128.124,0,0,0-15.93-9.869,128.008,128.008,0,0,0,4.286-18.242,128.028,128.028,0,0,0-18.243,4.286,128.1,128.1,0,0,0-9.869-15.93,128.16,128.16,0,0,0-9.869,15.93,128.015,128.015,0,0,0-18.242-4.286,128,128,0,0,0,4.286,18.242,128.146,128.146,0,0,0-15.93,9.869,128.1,128.1,0,0,0,15.93,9.869Zm19.978-8.487a3.888,3.888,0,0,0,.519,1.223,3.954,3.954,0,0,0,1.657,1.451,3.974,3.974,0,0,0,3.365-.01,3.968,3.968,0,0,0,1.635-1.441,3.94,3.94,0,0,0,.526-1.249,3.9,3.9,0,0,0,.1-.753c0-.043,0-.087,0-.131a3.956,3.956,0,0,0-2.041-3.462,3.875,3.875,0,0,0-1-.387c-.043-.01-.085-.02-.128-.028a4,4,0,0,0-1.566,0l-.1.022a3.955,3.955,0,0,0-2.172,1.347,3.9,3.9,0,0,0-.734,1.378,3.956,3.956,0,0,0-.163,1.13c0,.044,0,.088,0,.131a3.9,3.9,0,0,0,.1.78Z" transform="translate(-165.424 -392.739)" fill="url(#linear-gradient)"/>
        </g>
      </g>
    </g>
  </g>
</svg>
