<svg xmlns="http://www.w3.org/2000/svg" width="19.962" height="11.539" viewBox="0 0 19.962 11.539">
  <path id="Pfad_896" data-name="Pfad 896" d="M1436.02,1372.4h-.143v.628h.143c4.357,0,7.9,2.134,7.9,4.757,0,2.065-2.807,3.744-6.258,3.744-2.116,0-3.921-.795-4.625-1.906a3.463,3.463,0,0,0,1.53.336c1.458,0,2.6-.787,2.6-1.79a1.326,1.326,0,0,0-.135-.577c-.124-1.893-2.567-3.41-5.559-3.41-3.8,0-6.886,1.961-6.886,4.371,0,2.97,3.826,5.385,8.528,5.385h.143v-.628h-.143c-4.356,0-7.9-2.134-7.9-4.758,0-2.064,2.807-3.744,6.258-3.744,2.116,0,3.92.794,4.624,1.9a3.468,3.468,0,0,0-1.529-.335c-1.458,0-2.6.786-2.6,1.79a1.327,1.327,0,0,0,.135.576c.123,1.893,2.566,3.411,5.559,3.411,3.8,0,6.885-1.961,6.885-4.371C1444.549,1374.814,1440.723,1372.4,1436.02,1372.4Z" transform="translate(-1424.587 -1372.398)" fill="#e3305a"/>
</svg>
