<svg xmlns="http://www.w3.org/2000/svg" xmlns:xlink="http://www.w3.org/1999/xlink" width="144" height="144" viewBox="0 0 144 144">
  <defs>
    <linearGradient id="linear-gradient" y1="0.5" x2="1" y2="0.5" gradientUnits="objectBoundingBox">
      <stop offset="0" stop-color="#8b26f4"/>
      <stop offset="1" stop-color="#C996CC"/>
    </linearGradient>
  </defs>
  <g id="Gruppe_11627" data-name="Gruppe 11627" transform="translate(-278 -156)">
    <g id="Gruppe_1635" data-name="Gruppe 1635" transform="translate(5 33.72)">
      <circle id="Ellipse_60" data-name="Ellipse 60" cx="72" cy="72" r="72" transform="translate(273 122.28)" fill="#1c1c2d"/>
    </g>
    <path id="Pfad_836" data-name="Pfad 836" d="M483.9,546.877c-2.372-5.181-10.05-6.8-21.619-4.562a27.607,27.607,0,0,0-6.9-3.758,27.475,27.475,0,0,0-36.926,23.053.928.928,0,0,0-.009.1c-.024.249-.052.5-.07.749a.916.916,0,0,0-.165.084c-9.271,7.356-12.908,14-10.517,19.227,1.805,3.944,6.384,5.575,12.406,5.575a49.23,49.23,0,0,0,9.242-1,27.491,27.491,0,0,0,43.882-20.119c1.206-.949,2.335-1.9,3.363-2.84C483.436,557.108,485.966,551.4,483.9,546.877Zm-48.715-5.727a25.467,25.467,0,0,1,35.375,17.173c-4.5,3.905-11.533,8.67-21.462,13.216s-18.129,6.754-24.028,7.611c-.149-.209-.3-.416-.446-.63l4.525-2.072a1,1,0,0,0-.835-1.823l-4.737,2.169c-.341-.609-.665-1.227-.956-1.862q-.272-.594-.511-1.2l4.488-2.055a1,1,0,0,0-.834-1.823l-4.317,1.977a25.254,25.254,0,0,1-.859-3.773l5.574-2.552a1,1,0,1,0-.835-1.823l-4.962,2.272a25.412,25.412,0,0,1,.031-3.635l5.535-2.535a1,1,0,1,0-.835-1.823l-4.4,2.017a25.665,25.665,0,0,1,1.375-4.916c.02-.008.04,0,.059-.013l4.088-1.871a1,1,0,1,0-.834-1.823l-2.039.933A25.357,25.357,0,0,1,435.181,541.15ZM472.23,556.8a27.523,27.523,0,0,0-3.471-7.592c5.409-.5,7.779.381,8.026.922C477.164,550.961,475.733,553.463,472.23,556.8Zm-52.308,16.8c0,.009,0,.018.006.027s.006.008.008.013c.257.712.538,1.42.858,2.121a27.736,27.736,0,0,0,2.028,3.659c-4.817.468-7.646-.083-8.026-.911-.241-.526.618-2.9,4.546-6.681C419.512,572.428,419.71,573.018,419.922,573.606ZM456.4,587.5a25.444,25.444,0,0,1-13.043,2.192l.932-.427a1,1,0,1,0-.834-1.822L440.038,589a.929.929,0,0,0-.152.111,25.515,25.515,0,0,1-3.2-.988l1.733-.794a1,1,0,0,0-.835-1.823l-3.228,1.478a.857.857,0,0,0-.084.061,25.482,25.482,0,0,1-2.262-1.284,115.7,115.7,0,0,0,39.011-17.884A25.465,25.465,0,0,1,456.4,587.5Zm18.824-25.59c-5.647,5.17-14.289,10.608-23.709,14.921-17.589,8.054-38.288,12.229-42.007,4.107-1.844-4.028,1.285-9.644,8.8-15.893a27.249,27.249,0,0,0,.5,4.557c-.02.016-.045.021-.064.038-2.165,1.985-7.062,6.9-5.777,9.711.683,1.492,3.111,2.26,6.783,2.26a37.478,37.478,0,0,0,4.853-.362h.005c.029,0,.056-.011.085-.014,6.7-.9,15.624-3.475,25.229-7.873,9.524-4.361,17.26-9.388,22.323-13.842.009-.006.015-.015.023-.021,4.905-4.321,7.293-8.1,6.332-10.2-1.262-2.755-7.85-2.356-11.2-1.963a27.161,27.161,0,0,0-3.11-3.35c9.641-1.611,15.925-.307,17.772,3.727C484.187,552.328,479.516,557.98,475.225,561.907Z" transform="translate(-95.784 -340.317)" fill="url(#linear-gradient)"/>
  </g>
</svg>
