<svg xmlns="http://www.w3.org/2000/svg" width="21.358" height="21.965" viewBox="0 0 21.358 21.965">
  <path id="Pfad_897" data-name="Pfad 897" d="M1287.868,1212.541v-4.972a1.833,1.833,0,1,0-.726,0v3.89a8.992,8.992,0,0,0-4.469-3.2l-.186-.058c-.094-.028-.189-.056-.285-.081s-.211-.052-.318-.076c-.085-.019-.171-.038-.257-.055-.144-.028-.289-.053-.435-.074l-.186-.024q-.193-.023-.388-.039l-.171-.013c-.184-.011-.369-.019-.556-.019s-.372.008-.556.019l-.171.013c-.13.01-.26.024-.389.039-.062.008-.124.015-.185.024q-.222.032-.44.075c-.083.016-.164.035-.246.053-.109.025-.218.05-.325.078s-.187.052-.28.08c-.065.019-.129.04-.193.06a8.993,8.993,0,0,0-4.628,3.432c-.044.063-.087.125-.129.188s-.093.143-.138.216q-.108.175-.209.354c-.015.027-.032.052-.047.079a3.673,3.673,0,0,0-.761,6.814c.009.031.021.06.03.091.055.185.115.369.182.55.029.079.061.155.091.232q.066.163.137.323c.074.165.152.326.235.486.03.058.06.117.091.174a9.018,9.018,0,0,0,2.166,2.622l.039.032q.288.235.594.447c.035.024.069.049.1.072q.153.1.31.2c.094.058.19.113.286.167q.177.1.358.192t.338.162c.068.031.135.063.2.093.174.074.352.142.532.205l.177.06c.193.064.389.123.587.173l.086.02c.192.047.386.087.582.121l.117.021q.317.051.641.08l.133.01c.223.017.448.028.676.028s.453-.011.677-.028l.132-.01c.216-.019.43-.045.642-.08.039-.006.077-.014.116-.021.2-.035.392-.074.584-.122l.083-.019c.2-.051.4-.11.589-.174l.175-.059c.18-.064.359-.131.534-.206.068-.029.134-.061.2-.091.115-.053.23-.107.343-.165s.231-.12.344-.183.2-.114.3-.174.206-.129.307-.2c.038-.025.075-.052.112-.078q.3-.208.585-.44l.044-.036a9.017,9.017,0,0,0,2.167-2.625c.027-.049.052-.1.078-.148.089-.17.173-.342.251-.519q.066-.148.127-.3c.034-.084.068-.167.1-.251.064-.175.122-.352.175-.532.01-.035.024-.068.034-.1a3.672,3.672,0,0,0-.721-6.8Zm-1.154,4.459a10.481,10.481,0,0,1-.366,2.76l-.054.2-.181.1a14.825,14.825,0,0,1-12.442,0l-.181-.1-.054-.2a10.6,10.6,0,0,1,0-5.521l.054-.2.181-.1a14.822,14.822,0,0,1,12.442,0l.181.1.054.2A10.483,10.483,0,0,1,1286.714,1217Zm-.074-11.228a.865.865,0,1,1,.865.865A.866.866,0,0,1,1286.64,1205.772Zm-16.459,10.31a2.7,2.7,0,0,1,1.184-2.226,8.948,8.948,0,0,0-.45,4.07A2.7,2.7,0,0,1,1270.181,1216.082Zm18.688,1.844a8.944,8.944,0,0,0-.45-4.07,2.684,2.684,0,0,1,.45,4.07Z" transform="translate(-1269.213 -1203.938)" fill="#8b26f4"/>
</svg>
