<svg xmlns="http://www.w3.org/2000/svg" xmlns:xlink="http://www.w3.org/1999/xlink" width="30.216" height="40.767" viewBox="0 0 30.216 40.767">
  <defs>
    <linearGradient id="linear-gradient" y1="0.5" x2="1" y2="0.5" gradientUnits="objectBoundingBox">
      <stop offset="0" stop-color="#8b26f4"/>
      <stop offset="1" stop-color="#C996CC"/>
    </linearGradient>
  </defs>
  <path id="Pfad_898" data-name="Pfad 898" d="M690.442,174.336a15.109,15.109,0,0,0-7.141-12.828.461.461,0,0,0-.049-.032,15.007,15.007,0,0,0-7.444-2.236v-3.6a1.745,1.745,0,1,0-.947,0v3.6a15.1,15.1,0,0,0-8.611,27.158l-1.277,1.786a1.233,1.233,0,0,0,.2,1.65c2.433,2.126,5.736,3.16,10.1,3.16h.074c4.4-.012,7.717-1.063,10.152-3.214a1.234,1.234,0,0,0,.193-1.651l-1.259-1.74A15.092,15.092,0,0,0,690.442,174.336Zm-15.908-20.364a.8.8,0,1,1,.8.8A.8.8,0,0,1,674.534,153.972Zm-13.361,20.364a14.152,14.152,0,0,1,20.489-12.663,14.409,14.409,0,0,0-10.4,8.878c-.057,0-.112-.008-.169-.008a5.31,5.31,0,1,0,1.564,10.385A14.928,14.928,0,0,0,681.658,187a14.152,14.152,0,0,1-20.486-12.665Zm9.917,5.881a4.364,4.364,0,1,1,4.364-4.364A4.369,4.369,0,0,1,671.09,180.217Zm13.832,8.466a.29.29,0,0,1-.053.387c-2.255,1.992-5.372,2.966-9.528,2.977h-.072c-4.121,0-7.22-.957-9.472-2.926a.289.289,0,0,1-.055-.386l1.281-1.791a15.064,15.064,0,0,0,16.253.236.453.453,0,0,0,.042-.027q.171-.107.339-.218Zm-1.37-2.826a.432.432,0,0,0-.067.031.44.44,0,0,0-.046.05q-.263.184-.535.357a14.21,14.21,0,0,1-9.359-5.738,5.306,5.306,0,0,0-1.322-9.89c1.538-4.2,5.666-7.413,10.682-8.289a14.142,14.142,0,0,1,.646,23.48Zm3.857-13.193a.474.474,0,0,1-.938.129,11.217,11.217,0,0,0-2.138-5.2.473.473,0,0,1,.757-.568A12.175,12.175,0,0,1,687.409,172.665Zm-3.841-7.316a.473.473,0,0,1-.64.7,11.322,11.322,0,0,0-1.653-1.256.473.473,0,0,1,.5-.8A12.31,12.31,0,0,1,683.568,165.348Zm-12.479,7.177a3.327,3.327,0,1,0,3.327,3.327A3.331,3.331,0,0,0,671.09,172.525Zm0,5.708a2.381,2.381,0,1,1,2.381-2.381A2.383,2.383,0,0,1,671.09,178.233Z" transform="translate(-660.226 -152.227)" fill="url(#linear-gradient)"/>
</svg>
