<svg xmlns="http://www.w3.org/2000/svg" xmlns:xlink="http://www.w3.org/1999/xlink" width="142.907" height="32.801" viewBox="0 0 142.907 32.801">
  <defs>
    <clipPath id="clip-path">
      <circle id="Ellipse_2" data-name="Ellipse 2" cx="13.418" cy="13.418" r="13.418" fill="none"/>
    </clipPath>
    <linearGradient id="linear-gradient" y1="0.5" x2="1" y2="0.5" gradientUnits="objectBoundingBox">
      <stop offset="0" stop-color="#2160db"/>
      <stop offset="1" stop-color="#e3305a"/>
    </linearGradient>
    <linearGradient id="linear-gradient-2" x1="0.494" y1="0.495" x2="0.213" y2="0.209" gradientUnits="objectBoundingBox">
      <stop offset="0" stop-color="#fff"/>
      <stop offset="0.094" stop-color="#f6f8fd"/>
      <stop offset="0.247" stop-color="#dde7f9"/>
      <stop offset="0.441" stop-color="#b5caf3"/>
      <stop offset="0.668" stop-color="#7ea3ea"/>
      <stop offset="0.919" stop-color="#3971de"/>
      <stop offset="1" stop-color="#2160db"/>
    </linearGradient>
    <linearGradient id="linear-gradient-3" x1="-22.75" y1="8.682" x2="-21.894" y2="8.177" gradientUnits="objectBoundingBox">
      <stop offset="0" stop-color="#1e1739"/>
      <stop offset="0.144" stop-color="#1e193d"/>
      <stop offset="0.302" stop-color="#1e1f4a"/>
      <stop offset="0.468" stop-color="#1e2860"/>
      <stop offset="0.639" stop-color="#1f367f"/>
      <stop offset="0.813" stop-color="#2048a7"/>
      <stop offset="0.988" stop-color="#205ed7"/>
      <stop offset="1" stop-color="#2160db"/>
    </linearGradient>
    <linearGradient id="linear-gradient-4" x1="0.541" y1="0.511" x2="1.531" y2="0.763" gradientUnits="objectBoundingBox">
      <stop offset="0" stop-color="#fff"/>
      <stop offset="0.099" stop-color="#fdf6f7"/>
      <stop offset="0.26" stop-color="#fadde4"/>
      <stop offset="0.464" stop-color="#f5b5c4"/>
      <stop offset="0.703" stop-color="#ed7e98"/>
      <stop offset="0.967" stop-color="#e43961"/>
      <stop offset="1" stop-color="#e3305a"/>
    </linearGradient>
    <linearGradient id="linear-gradient-5" x1="2.562" y1="4.339" x2="2.062" y2="4.339" gradientUnits="objectBoundingBox">
      <stop offset="0" stop-color="#1e1739"/>
      <stop offset="0.129" stop-color="#221739"/>
      <stop offset="0.272" stop-color="#2f193b"/>
      <stop offset="0.421" stop-color="#451c3f"/>
      <stop offset="0.575" stop-color="#641f44"/>
      <stop offset="0.732" stop-color="#8c254b"/>
      <stop offset="0.889" stop-color="#bc2b53"/>
      <stop offset="1" stop-color="#e3305a"/>
    </linearGradient>
  </defs>
  <g id="Gruppe_1" data-name="Gruppe 1" transform="translate(-201.403 -417.465)">
    <g id="Gruppe_26" data-name="Gruppe 26" transform="translate(201.403 420.009)">
      <g id="Gruppe_25" data-name="Gruppe 25" transform="translate(0 0)" clip-path="url(#clip-path)">
        <g id="NewGroup29-0" transform="translate(-8.135 -8.135)">
          <path id="Pfad_6" data-name="Pfad 6" d="M178.457,413.106h0a1.245,1.245,0,0,1,.152-.089l.006,0a1.513,1.513,0,1,1,.685,2.861q-.063,0-.125-.006a1.513,1.513,0,0,1-.721-2.761Zm1.585-4.311a1.513,1.513,0,0,1,1.848-1.339l.006,0,.075.02.011,0a1.513,1.513,0,0,1,1.076,1.539l1.539,1.539.529.529a3.877,3.877,0,0,1,1.415-.439h0a3.95,3.95,0,0,1,.873,0h0a3.884,3.884,0,0,1,1.427.445l.515-.515h0l1.544-1.544a1.512,1.512,0,0,1,3.014-.248h0a1.512,1.512,0,0,1-1.77,1.633l-1.922,1.922a3.89,3.89,0,0,1,.593,1.38,3.951,3.951,0,0,1,.087.827c0,.124-.006.247-.017.368a3.9,3.9,0,0,1-.446,1.483l.273.273h0l1.628,1.627a1.512,1.512,0,0,1,1.25.349h0c.026.022.052.047.077.071a1.511,1.511,0,0,1,.343,1.611,1.511,1.511,0,0,1-1.21.958,1.511,1.511,0,0,1-1.055-.25,1.436,1.436,0,0,1-.217-.18,1.511,1.511,0,0,1-.439-1.181l-1.739-1.739-.155-.155a3.921,3.921,0,0,1-4.425.007l-.167.167-1.736,1.736a1.511,1.511,0,0,1-.44,1.164,1.449,1.449,0,0,1-.217.18,1.513,1.513,0,0,1-1.922-2.319c.025-.025.051-.049.077-.071h0a1.51,1.51,0,0,1,1.265-.346l1.632-1.632.26-.26a3.9,3.9,0,0,1-.452-1.495c-.012-.121-.017-.244-.017-.368a3.951,3.951,0,0,1,.087-.827,3.885,3.885,0,0,1,.6-1.391l-.41-.41h0l-1.5-1.5A1.51,1.51,0,0,1,180.48,410a1.554,1.554,0,0,1-.157-.184,1.511,1.511,0,0,1-.28-1.02Zm6.934-3.438a1.513,1.513,0,1,1-1.513,1.513,1.513,1.513,0,0,1,1.513-1.513Zm8.314,7.629,0,0a1.4,1.4,0,0,1,.253.149l0,0a1.512,1.512,0,0,1,.353,2.079h0a1.508,1.508,0,0,1-1.13.65c-.038,0-.076,0-.115,0a1.513,1.513,0,1,1,.632-2.887Zm-7.653,10.6a1.51,1.51,0,0,1-1.333-.014,1.509,1.509,0,0,1-.832-1.339v-.011a1.512,1.512,0,0,1,3.024-.024c0,.008,0,.016,0,.024a1.51,1.51,0,0,1-.86,1.364Zm-13.578-3.947a69.4,69.4,0,0,0-2.323,9.89,69.43,69.43,0,0,0,9.89-2.323,69.439,69.439,0,0,0,5.35,8.636,69.412,69.412,0,0,0,5.35-8.636,69.437,69.437,0,0,0,9.89,2.323,69.407,69.407,0,0,0-2.323-9.89,69.43,69.43,0,0,0,8.636-5.35,69.465,69.465,0,0,0-8.636-5.35,69.4,69.4,0,0,0,2.323-9.89,69.405,69.405,0,0,0-9.89,2.323,69.451,69.451,0,0,0-5.35-8.636,69.478,69.478,0,0,0-5.35,8.636,69.4,69.4,0,0,0-9.89-2.323,69.4,69.4,0,0,0,2.323,9.89,69.476,69.476,0,0,0-8.636,5.35,69.441,69.441,0,0,0,8.636,5.35Zm10.831-4.6a2.108,2.108,0,0,0,.282.663,2.145,2.145,0,0,0,.9.786,2.154,2.154,0,0,0,1.824-.005,2.152,2.152,0,0,0,.886-.781,2.132,2.132,0,0,0,.338-1.086c0-.024,0-.047,0-.071a2.145,2.145,0,0,0-1.107-1.877,2.1,2.1,0,0,0-.543-.21l-.069-.015a2.162,2.162,0,0,0-.849,0l-.055.012a2.144,2.144,0,0,0-1.178.73,2.116,2.116,0,0,0-.4.747,2.146,2.146,0,0,0-.089.613c0,.024,0,.048,0,.071a2.117,2.117,0,0,0,.056.423Z" transform="translate(-165.424 -392.739)" fill="url(#linear-gradient)"/>
        </g>
      </g>
    </g>
    <g id="Gruppe_27" data-name="Gruppe 27" transform="translate(293.654 421.803)">
      <path id="Pfad_7" data-name="Pfad 7" d="M609.4,436.65h7.212c3.954,0,5.789.379,7.5,2.276a5.4,5.4,0,0,1,1.392,3.859,5.286,5.286,0,0,1-2.721,4.713,5.39,5.39,0,0,1,3.859,5.44,6.735,6.735,0,0,1-2.151,5.093c-2.151,1.8-3.7,2.024-7.654,2.024H609.4Zm5.725,8.887h2.119c.823,0,2.53,0,2.53-1.866,0-1.771-1.613-1.771-2.53-1.771h-2.119Zm0,9.267h2.815c.759,0,2.973,0,2.973-2.245,0-2.024-2.025-2.024-2.973-2.024h-2.815Z" transform="translate(-609.401 -436.65)" fill="#fff"/>
    </g>
    <g id="Gruppe_31" data-name="Gruppe 31" transform="translate(266.296 417.465)">
      <path id="Pfad_8" data-name="Pfad 8" d="M504.074,434.691a12.147,12.147,0,1,1-12.335,12.429,13.23,13.23,0,0,1,.916-5A12.164,12.164,0,0,1,504.074,434.691Zm.1,19.039c4.238,0,6.292-3.857,6.292-6.863,0-3.036-2.054-6.927-6.356-6.927-4.143,0-6.39,3.542-6.39,6.831C497.716,450.378,500.151,453.73,504.169,453.73Z" transform="translate(-490.985 -430.796)" fill="url(#linear-gradient-2)"/>
      <g id="Gruppe_30" data-name="Gruppe 30">
        <path id="Pfad_9" data-name="Pfad 9" d="M517.679,423.2a2.116,2.116,0,1,0,2.994,0A2.115,2.115,0,0,0,517.679,423.2Z" transform="translate(-510.582 -421.421)" opacity="0.3" fill="url(#linear-gradient-3)" style="mix-blend-mode: screen;isolation: isolate"/>
        <g id="Gruppe_29" data-name="Gruppe 29">
          <g id="Gruppe_28" data-name="Gruppe 28">
            <path id="Pfad_10" data-name="Pfad 10" d="M490.948,417.465a2.544,2.544,0,1,0,2.546,2.543A2.544,2.544,0,0,0,490.948,417.465Z" transform="translate(-488.405 -417.465)" fill="#2160db"/>
            <path id="Pfad_11" data-name="Pfad 11" d="M501.11,434.636l.82-.9a1.72,1.72,0,0,0,.2,1.567c.25.277.683.833,2.247.012l-1.463,1.381-1.906,1.212a1.772,1.772,0,0,0,.393-2.029,1.89,1.89,0,0,0-1.752-.733Z" transform="translate(-497.109 -430.055)" fill="#2160db"/>
          </g>
          <circle id="Ellipse_3" data-name="Ellipse 3" cx="1.795" cy="1.795" r="1.795" transform="translate(17.778 3.616)" fill="#2160db"/>
          <path id="Pfad_12" data-name="Pfad 12" d="M499.354,444.459a.512.512,0,1,0,.511.512A.512.512,0,0,0,499.354,444.459Z" transform="translate(-496.482 -438.355)" fill="#2160db"/>
        </g>
      </g>
    </g>
    <g id="Gruppe_35" data-name="Gruppe 35" transform="translate(257.959 421.803)">
      <path id="Pfad_13" data-name="Pfad 13" d="M455.369,436.65h5.979v23.4h-5.979Z" transform="translate(-454.501 -436.65)" fill="url(#linear-gradient-4)"/>
      <g id="Gruppe_34" data-name="Gruppe 34" transform="translate(0 17.485)">
        <g id="Gruppe_33" data-name="Gruppe 33">
          <path id="Pfad_14" data-name="Pfad 14" d="M452.151,547.433a2.115,2.115,0,1,1,2.992,0A2.115,2.115,0,0,1,452.151,547.433Z" transform="translate(-451.531 -537.074)" opacity="0.6" fill="url(#linear-gradient-5)" style="mix-blend-mode: screen;isolation: isolate"/>
          <g id="Gruppe_32" data-name="Gruppe 32" transform="translate(4.736 4.003)">
            <path id="Pfad_15" data-name="Pfad 15" d="M485.807,542.622a2.544,2.544,0,1,1-2.235-2.819A2.544,2.544,0,0,1,485.807,542.622Z" transform="translate(-478.868 -537.954)" fill="#e3305a"/>
            <path id="Pfad_16" data-name="Pfad 16" d="M475.035,534.38l1.486-.836a1.677,1.677,0,0,1-1.932-1.86l-1.076,1.063-1.034.854c2.6,0,1.981,1.71,1.981,1.71Z" transform="translate(-472.479 -531.684)" fill="#e3305a"/>
          </g>
          <path id="Pfad_17" data-name="Pfad 17" d="M486.682,513.979a1.16,1.16,0,1,1-1.16,1.16A1.16,1.16,0,0,1,486.682,513.979Z" transform="translate(-477.837 -513.979)" fill="#e3305a"/>
          <path id="Pfad_18" data-name="Pfad 18" d="M472.867,549.653a.348.348,0,1,1-.348.349A.348.348,0,0,1,472.867,549.653Z" transform="translate(-467.774 -541.587)" fill="#e3305a"/>
        </g>
      </g>
    </g>
    <g id="Gruppe_36" data-name="Gruppe 36" transform="translate(235.668 421.803)">
      <path id="Pfad_19" data-name="Pfad 19" d="M352.945,436.65h5.725l8.287,13.258V436.65h5.725v23.4h-5.725L358.67,447.3v12.752h-5.725Z" transform="translate(-352.945 -436.65)" fill="#fff"/>
    </g>
    <path id="Pfad_811" data-name="Pfad 811" d="M1.554-9.424A.455.455,0,0,0,2-9.882a.448.448,0,0,0-.45-.45.441.441,0,0,0-.441.45A.448.448,0,0,0,1.554-9.424Zm3.173-5.763a1,1,0,0,1,.65.217l.2-.441a1.388,1.388,0,0,0-.874-.275,1.206,1.206,0,0,0-1.324,1.3v.541H2.6v.5h.783v3.881h.591v-3.881H5.3v-.5H3.953v-.516C3.953-14.9,4.219-15.187,4.727-15.187Zm2.357.383a.425.425,0,0,0,.433-.433.42.42,0,0,0-.433-.408.427.427,0,0,0-.433.416A.428.428,0,0,0,7.084-14.8Zm-.3,5.338h.591v-4.38H6.784Zm4.489-4.414a1.841,1.841,0,0,0-1.666.841v-.808H9.041v4.38h.591v-2.3a1.436,1.436,0,0,1,1.532-1.582,1.223,1.223,0,0,1,1.316,1.4v2.482h.591v-2.54A1.677,1.677,0,0,0,11.273-13.88Zm4.955,0a2.781,2.781,0,0,0-1.782.591l.266.441a2.231,2.231,0,0,1,1.457-.516c.816,0,1.241.408,1.241,1.158v.266H16.02c-1.258,0-1.691.566-1.691,1.241,0,.758.608,1.274,1.6,1.274a1.645,1.645,0,0,0,1.507-.725v.683H18v-2.715A1.556,1.556,0,0,0,16.228-13.88ZM16.02-9.891c-.7,0-1.108-.316-1.108-.824,0-.45.275-.783,1.124-.783h1.374v.716A1.4,1.4,0,0,1,16.02-9.891Zm5.838-3.989a1.841,1.841,0,0,0-1.666.841v-.808h-.566v4.38h.591v-2.3a1.436,1.436,0,0,1,1.532-1.582,1.223,1.223,0,0,1,1.316,1.4v2.482h.591v-2.54A1.677,1.677,0,0,0,21.858-13.88Zm5.255,4.455a1.931,1.931,0,0,0,1.716-.866l-.441-.3a1.482,1.482,0,0,1-1.274.641,1.6,1.6,0,0,1-1.657-1.707,1.609,1.609,0,0,1,1.657-1.707,1.489,1.489,0,0,1,1.274.65l.441-.3a1.913,1.913,0,0,0-1.716-.866,2.156,2.156,0,0,0-2.257,2.224A2.163,2.163,0,0,0,27.113-9.424Zm6.637-2.232a2.087,2.087,0,0,0-2.124-2.224,2.11,2.11,0,0,0-2.14,2.224,2.169,2.169,0,0,0,2.3,2.232,2.156,2.156,0,0,0,1.691-.716l-.333-.383a1.727,1.727,0,0,1-1.341.575,1.621,1.621,0,0,1-1.724-1.524h3.664C33.742-11.54,33.75-11.606,33.75-11.656Zm-2.124-1.716a1.524,1.524,0,0,1,1.557,1.457H30.077A1.522,1.522,0,0,1,31.626-13.372Z" transform="translate(310.56 454.908)" fill="#fff" opacity="0.743"/>
  </g>
</svg>
