<?xml version="1.0" encoding="UTF-8"?><svg id="Camada_1" xmlns="http://www.w3.org/2000/svg" xmlns:xlink="http://www.w3.org/1999/xlink" viewBox="0 0 2116 682"><defs><style>.cls-1{fill:url(#Gradiente_sem_nome_2);}.cls-2{fill:url(#Gradiente_sem_nome_3);}.cls-3{fill:#fff;}.cls-4{fill:url(#Gradiente_sem_nome_2-4);}.cls-5{fill:url(#Gradiente_sem_nome_2-3);}.cls-6{fill:url(#Gradiente_sem_nome_2-2);}</style><linearGradient id="Gradiente_sem_nome_2" x1="346.13" y1="438.16" x2="608.63" y2="438.16" gradientTransform="matrix(1, 0, 0, 1, 0, 0)" gradientUnits="userSpaceOnUse"><stop offset="0" stop-color="#ef5ca9"/><stop offset=".05" stop-color="#e858ad"/><stop offset=".48" stop-color="#b440d2"/><stop offset=".81" stop-color="#9531e9"/><stop offset=".99" stop-color="#892cf2"/></linearGradient><linearGradient id="Gradiente_sem_nome_2-2" x1="601.06" y1="410.63" x2="692.5" y2="410.63" xlink:href="#Gradiente_sem_nome_2"/><linearGradient id="Gradiente_sem_nome_2-3" x1="684.99" y1="383.62" x2="964.23" y2="383.62" xlink:href="#Gradiente_sem_nome_2"/><linearGradient id="Gradiente_sem_nome_2-4" x1="826.44" y1="347.13" x2="1088.94" y2="347.13" xlink:href="#Gradiente_sem_nome_2"/><linearGradient id="Gradiente_sem_nome_3" x1="49" y1="448.73" x2="409.03" y2="448.73" gradientTransform="matrix(1, 0, 0, 1, 0, 0)" gradientUnits="userSpaceOnUse"><stop offset=".28" stop-color="#ef5ca9"/><stop offset=".32" stop-color="#e858ad"/><stop offset=".63" stop-color="#b440d2"/><stop offset=".86" stop-color="#9531e9"/><stop offset=".99" stop-color="#892cf2"/></linearGradient></defs><g><g><g><path d="M532.69,284.34c6.89-2.08,11.04-1.12,12.47,2.86,1.43,3.99,1.7,9.46,.82,16.39-.88,6.94,.99,13.66,5.61,20.13,1.01,4.45,1.91,9.61,2.71,15.46,.8,5.85,1.34,11.36,1.64,16.53,.29,5.17,.78,10.8,1.45,16.86,.67,6.07,1.49,11.24,2.46,15.5,.97,4.27,2.44,8.45,4.41,12.52,1.98,4.08,4.49,6.7,7.56,7.86,3.06,1.16,6.97,1.78,11.72,1.85,4.74,.07,10.35-1.86,16.81-5.8-5.55,1.83-8.77,3.02-9.7,3.58-.92,.57,.5,.69,4.28,.35,1.09,.18,2.47,.11,4.16-.21l5.92,.62c-1.35,.26-5.5,1.24-12.47,2.95-10.58,1.23-15.75,2.4-15.49,3.52,.08,.37,.92,.99,2.52,1.85,3.61,2.03,2.98,3.89-1.89,5.58-1.6,.69-3.58,1.26-5.92,1.7,17.3-5.6,29.22-7.08,35.77-4.46,1.85,.43,1.34,1.3-1.51,2.61-4.12,1.94-11.93,3.81-23.43,5.6-5.97-.03-10.04,1.71-12.22,5.22-2.18,3.52-2.9,8.49-2.14,14.92,.75,6.45,1.97,12.98,3.66,19.63,1.68,6.65,3.11,13.74,4.29,21.26,1.18,7.53,1.55,13.45,1.14,17.79-1.43,10.72-2.3,24.64-2.64,41.73-.33,17.1-1.25,29.28-2.76,36.53-.17,2.36-.84,.16-2.02-6.58-.76-3.34-1.85-9.71-3.28-19.12l-3.03-15.69c.08,1.92,.63,6.66,1.64,14.21,1.94,13.19,2.18,19.72,.76,19.6-.68,.13-1.51-4.36-2.52-13.46-.34,6.26-.59,12.89-.75,19.89l-.13-.56c-1.01-6-1.98-11.82-2.9-17.45,0,1.55,.21,4.81,.63,9.75,.42,11.15,.32,16.88-.31,17.19-.63,.32-2.04-3.58-4.22-11.68,.25,5.76,.29,9.04,.13,9.85l-3.4-12.71c-2.44-13.86-4.2-20.88-5.3-21.06-.34,.06-.67,.91-1.01,2.51-2.61-8.41-6.66-26.7-12.17-54.89-5.51-28.18-10.28-44.99-14.31-50.42-1.01,.19-2.81,.73-5.42,1.61-12.09,3.84-21.44,7.07-28.03,9.67-6.59,2.61-14.49,6.43-23.68,11.46-9.2,5.04-16.84,11.13-22.92,18.28-6.09,7.16-10.98,15.73-14.67,25.72-3.35,17.68-12.13,26.89-26.32,27.64-10.75,.5-18.52-3.65-23.31-12.42-5.97-10.86-3.07-22.84,8.68-35.91-.17-2.29-2.44-3.02-6.8-2.2-2.1,.02-5.12,.59-9.07,1.72-13.35,2.92-20.66,2.37-21.92-1.65-.25-1.11-.22-2.47,.12-4.09,1.09-9.11,5.09-16.15,12.02-21.15,6.93-4.99,16.78-9.47,29.54-13.44,12.77-3.96,21.16-7.1,25.19-9.42,8.56-10.13,19.6-26.36,33.12-48.67,13.51-22.31,21.83-35.88,24.93-40.73,4.03-5.41,9.65-14.99,16.88-28.75,7.21-13.75,14.25-24.86,21.09-33.32,6.84-8.46,14.67-13.33,23.49-14.62Zm-23.41,103.16c-1.18,2.55-4.29,7.4-9.32,14.54-9.91,15.04-13.18,23.02-9.82,23.93,2.68,1.04,8.27-.6,16.75-4.92,7.06,3.31,10.37-2.16,9.95-16.4-.59-11.88-2.44-18.5-5.55-19.85-.76-.24-1.43,.66-2.01,2.7Z"/><path class="cls-1" d="M532.69,284.34c6.89-2.08,11.04-1.12,12.47,2.86,1.43,3.99,1.7,9.46,.82,16.39-.88,6.94,.99,13.66,5.61,20.13,1.01,4.45,1.91,9.61,2.71,15.46,.8,5.85,1.34,11.36,1.64,16.53,.29,5.17,.78,10.8,1.45,16.86,.67,6.07,1.49,11.24,2.46,15.5,.97,4.27,2.44,8.45,4.41,12.52,1.98,4.08,4.49,6.7,7.56,7.86,3.06,1.16,6.97,1.78,11.72,1.85,4.74,.07,10.35-1.86,16.81-5.8-5.55,1.83-8.77,3.02-9.7,3.58-.92,.57,.5,.69,4.28,.35,1.09,.18,2.47,.11,4.16-.21l5.92,.62c-1.35,.26-5.5,1.24-12.47,2.95-10.58,1.23-15.75,2.4-15.49,3.52,.08,.37,.92,.99,2.52,1.85,3.61,2.03,2.98,3.89-1.89,5.58-1.6,.69-3.58,1.26-5.92,1.7,17.3-5.6,29.22-7.08,35.77-4.46,1.85,.43,1.34,1.3-1.51,2.61-4.12,1.94-11.93,3.81-23.43,5.6-5.97-.03-10.04,1.71-12.22,5.22-2.18,3.52-2.9,8.49-2.14,14.92,.75,6.45,1.97,12.98,3.66,19.63,1.68,6.65,3.11,13.74,4.29,21.26,1.18,7.53,1.55,13.45,1.14,17.79-1.43,10.72-2.3,24.64-2.64,41.73-.33,17.1-1.25,29.28-2.76,36.53-.17,2.36-.84,.16-2.02-6.58-.76-3.34-1.85-9.71-3.28-19.12l-3.03-15.69c.08,1.92,.63,6.66,1.64,14.21,1.94,13.19,2.18,19.72,.76,19.6-.68,.13-1.51-4.36-2.52-13.46-.34,6.26-.59,12.89-.75,19.89l-.13-.56c-1.01-6-1.98-11.82-2.9-17.45,0,1.55,.21,4.81,.63,9.75,.42,11.15,.32,16.88-.31,17.19-.63,.32-2.04-3.58-4.22-11.68,.25,5.76,.29,9.04,.13,9.85l-3.4-12.71c-2.44-13.86-4.2-20.88-5.3-21.06-.34,.06-.67,.91-1.01,2.51-2.61-8.41-6.66-26.7-12.17-54.89-5.51-28.18-10.28-44.99-14.31-50.42-1.01,.19-2.81,.73-5.42,1.61-12.09,3.84-21.44,7.07-28.03,9.67-6.59,2.61-14.49,6.43-23.68,11.46-9.2,5.04-16.84,11.13-22.92,18.28-6.09,7.16-10.98,15.73-14.67,25.72-3.35,17.68-12.13,26.89-26.32,27.64-10.75,.5-18.52-3.65-23.31-12.42-5.97-10.86-3.07-22.84,8.68-35.91-.17-2.29-2.44-3.02-6.8-2.2-2.1,.02-5.12,.59-9.07,1.72-13.35,2.92-20.66,2.37-21.92-1.65-.25-1.11-.22-2.47,.12-4.09,1.09-9.11,5.09-16.15,12.02-21.15,6.93-4.99,16.78-9.47,29.54-13.44,12.77-3.96,21.16-7.1,25.19-9.42,8.56-10.13,19.6-26.36,33.12-48.67,13.51-22.31,21.83-35.88,24.93-40.73,4.03-5.41,9.65-14.99,16.88-28.75,7.21-13.75,14.25-24.86,21.09-33.32,6.84-8.46,14.67-13.33,23.49-14.62Zm-23.41,103.16c-1.18,2.55-4.29,7.4-9.32,14.54-9.91,15.04-13.18,23.02-9.82,23.93,2.68,1.04,8.27-.6,16.75-4.92,7.06,3.31,10.37-2.16,9.95-16.4-.59-11.88-2.44-18.5-5.55-19.85-.76-.24-1.43,.66-2.01,2.7Z"/></g><g><path d="M664.73,262.12c7.85,3.34,14.03,8.42,18.53,15.25,4.49,6.83,7.21,14.94,8.14,24.34,.93,9.41,1.26,18.11,1.02,26.11-.25,8.01-.94,17.35-2.08,28.03-1.15,10.69-1.71,18.6-1.71,23.75-.4,2.51-2.22,12.73-5.45,30.64-3.23,17.92-5.47,29.95-6.72,36.11-1.25,6.16-3.38,15.89-6.38,29.16-3.01,13.29-6.25,24.76-9.71,34.43-3.47,9.67-7.3,19.16-11.48,28.47-.86,6.63-3.27,8.42-7.23,5.37-2.71-1.87-3.74,.05-3.1,5.78,.13,1.15,.4,2.64,.84,4.48-6.03,5.97-13.04,6.71-21.02,2.22-7.99-4.48-12.92-12.74-14.83-24.8-3.58-31.3-3.3-62.8,.84-94.49,4.14-31.69,11.3-67.64,21.48-107.87,1.74-3.74,4.18-11.88,7.33-24.43,3.15-12.53,7.07-22.45,11.76-29.76,4.69-7.3,11.28-11.56,19.76-12.8Z"/><path class="cls-6" d="M664.73,262.12c7.85,3.34,14.03,8.42,18.53,15.25,4.49,6.83,7.21,14.94,8.14,24.34,.93,9.41,1.26,18.11,1.02,26.11-.25,8.01-.94,17.35-2.08,28.03-1.15,10.69-1.71,18.6-1.71,23.75-.4,2.51-2.22,12.73-5.45,30.64-3.23,17.92-5.47,29.95-6.72,36.11-1.25,6.16-3.38,15.89-6.38,29.16-3.01,13.29-6.25,24.76-9.71,34.43-3.47,9.67-7.3,19.16-11.48,28.47-.86,6.63-3.27,8.42-7.23,5.37-2.71-1.87-3.74,.05-3.1,5.78,.13,1.15,.4,2.64,.84,4.48-6.03,5.97-13.04,6.71-21.02,2.22-7.99-4.48-12.92-12.74-14.83-24.8-3.58-31.3-3.3-62.8,.84-94.49,4.14-31.69,11.3-67.64,21.48-107.87,1.74-3.74,4.18-11.88,7.33-24.43,3.15-12.53,7.07-22.45,11.76-29.76,4.69-7.3,11.28-11.56,19.76-12.8Z"/></g><g><path d="M763.08,538c0-3.09-.36-5.06-1.07-5.89-.71-.83-1.74-.73-3.09,.29-1.34,1.03-2.73,1.88-4.16,2.53-1.43,.66-2.75,1.01-3.97,1.04-1.22,.04-2.16-1.42-2.84-4.4-.67-2.97-.85-7.58-.51-13.84,.49-65.9,11.56-136.14,33.21-210.71-2.44,.08-5.69,.41-9.76,.98-4.07,.58-7.87,1.2-11.4,1.87-3.53,.67-7.77,1.28-12.72,1.83-4.96,.56-9.35,.9-13.16,1.04-3.83,.14-8.12,.09-12.91-.17-4.79-.26-8.69-.87-11.72-1.85-3.03-.97-6.39-2.27-10.08-3.9-3.7-1.62-6.3-3.83-7.81-6.65-1.51-2.81-3.05-6.1-4.6-9.87-1.55-3.77-1.91-8.44-1.07-14.02,7.64-6.48,16.67-11.87,27.08-16.17,10.41-4.3,20.72-7.5,30.92-9.64,10.2-2.12,21.03-4.18,32.5-6.16,11.46-1.97,22.02-4.07,31.68-6.29,67.6-7.78,118.16-10.39,151.67-7.84,4.96,3.32,6.19,6.08,3.72,8.3-2.48,2.21-6.53,4.05-12.16,5.5-5.63,1.46-8.17,2.62-7.62,3.48,.54,.87,6.32,1.61,17.32,2.23-7.22,5.24-16.25,7.93-27.08,8.04-1.43-.11-2.02,.38-1.76,1.5,.17,.75,1.68,2.78,4.54,6.11-7.14,2.51-14.83,6.1-23.05,10.76-8.23,4.66-16.2,8.5-23.93,11.5-7.72,3.02-17.09,4.98-28.09,5.91-9.16-.2-14.65,4.14-16.5,13-1.85,8.87-2.1,20.14-.75,33.82,1.34,13.68,1.3,22.79-.12,27.32-.76,2.86-2.18,8.16-4.28,15.91l-22.28,84.94c-.34,6.26-3.23,12.81-8.69,19.65-2.43,3.18-3.78,3.43-4.03,.76-.17-2.29,1.05-7.75,3.65-16.37,.59-6.69,.16-10.09-1.26-10.21-.84-.61-2.73,1.1-5.67,5.14l-2.14,2.15c-.25-1.11,.96-5.79,3.65-14.05-5.8,10.01-14.48,27.34-26.06,51.98-1.85,4.23-3.47,7.54-4.85,9.92-1.39,2.39-2.35,3.93-2.9,4.61-.55,.69-1.16,1.48-1.83,2.38-.67,.91-1.3,2.38-1.89,4.42-.59,2.05-1.3,5.09-2.14,9.12Z"/><path class="cls-5" d="M763.08,538c0-3.09-.36-5.06-1.07-5.89-.71-.83-1.74-.73-3.09,.29-1.34,1.03-2.73,1.88-4.16,2.53-1.43,.66-2.75,1.01-3.97,1.04-1.22,.04-2.16-1.42-2.84-4.4-.67-2.97-.85-7.58-.51-13.84,.49-65.9,11.56-136.14,33.21-210.71-2.44,.08-5.69,.41-9.76,.98-4.07,.58-7.87,1.2-11.4,1.87-3.53,.67-7.77,1.28-12.72,1.83-4.96,.56-9.35,.9-13.16,1.04-3.83,.14-8.12,.09-12.91-.17-4.79-.26-8.69-.87-11.72-1.85-3.03-.97-6.39-2.27-10.08-3.9-3.7-1.62-6.3-3.83-7.81-6.65-1.51-2.81-3.05-6.1-4.6-9.87-1.55-3.77-1.91-8.44-1.07-14.02,7.64-6.48,16.67-11.87,27.08-16.17,10.41-4.3,20.72-7.5,30.92-9.64,10.2-2.12,21.03-4.18,32.5-6.16,11.46-1.97,22.02-4.07,31.68-6.29,67.6-7.78,118.16-10.39,151.67-7.84,4.96,3.32,6.19,6.08,3.72,8.3-2.48,2.21-6.53,4.05-12.16,5.5-5.63,1.46-8.17,2.62-7.62,3.48,.54,.87,6.32,1.61,17.32,2.23-7.22,5.24-16.25,7.93-27.08,8.04-1.43-.11-2.02,.38-1.76,1.5,.17,.75,1.68,2.78,4.54,6.11-7.14,2.51-14.83,6.1-23.05,10.76-8.23,4.66-16.2,8.5-23.93,11.5-7.72,3.02-17.09,4.98-28.09,5.91-9.16-.2-14.65,4.14-16.5,13-1.85,8.87-2.1,20.14-.75,33.82,1.34,13.68,1.3,22.79-.12,27.32-.76,2.86-2.18,8.16-4.28,15.91l-22.28,84.94c-.34,6.26-3.23,12.81-8.69,19.65-2.43,3.18-3.78,3.43-4.03,.76-.17-2.29,1.05-7.75,3.65-16.37,.59-6.69,.16-10.09-1.26-10.21-.84-.61-2.73,1.1-5.67,5.14l-2.14,2.15c-.25-1.11,.96-5.79,3.65-14.05-5.8,10.01-14.48,27.34-26.06,51.98-1.85,4.23-3.47,7.54-4.85,9.92-1.39,2.39-2.35,3.93-2.9,4.61-.55,.69-1.16,1.48-1.83,2.38-.67,.91-1.3,2.38-1.89,4.42-.59,2.05-1.3,5.09-2.14,9.12Z"/></g><g><path d="M1012.99,193.3c6.89-2.08,11.04-1.12,12.47,2.86,1.43,3.99,1.7,9.46,.82,16.39-.88,6.94,.99,13.66,5.61,20.13,1.01,4.45,1.91,9.61,2.71,15.46,.8,5.85,1.34,11.36,1.64,16.53,.29,5.17,.78,10.8,1.45,16.86,.67,6.07,1.49,11.24,2.46,15.5,.97,4.27,2.44,8.45,4.41,12.52,1.98,4.08,4.49,6.7,7.56,7.86,3.06,1.16,6.97,1.78,11.72,1.85,4.74,.07,10.35-1.86,16.81-5.8-5.55,1.83-8.77,3.02-9.7,3.58-.92,.57,.5,.69,4.28,.35,1.09,.18,2.47,.11,4.16-.21l5.92,.62c-1.35,.26-5.5,1.24-12.47,2.95-10.58,1.23-15.75,2.4-15.49,3.52,.08,.37,.92,.99,2.52,1.85,3.61,2.03,2.98,3.89-1.89,5.58-1.6,.69-3.58,1.26-5.92,1.7,17.3-5.6,29.22-7.08,35.77-4.46,1.85,.43,1.34,1.3-1.51,2.61-4.12,1.94-11.93,3.81-23.43,5.6-5.97-.03-10.04,1.71-12.22,5.22-2.18,3.52-2.9,8.49-2.14,14.92,.75,6.45,1.97,12.98,3.66,19.63,1.68,6.65,3.11,13.74,4.29,21.26,1.18,7.53,1.55,13.45,1.14,17.79-1.43,10.72-2.3,24.64-2.64,41.73-.33,17.1-1.25,29.28-2.76,36.53-.17,2.36-.84,.16-2.02-6.58-.76-3.34-1.85-9.71-3.28-19.12l-3.03-15.69c.08,1.92,.63,6.66,1.64,14.21,1.94,13.19,2.18,19.72,.76,19.6-.68,.13-1.51-4.36-2.52-13.46-.34,6.26-.59,12.89-.75,19.89l-.13-.56c-1.01-6-1.98-11.82-2.9-17.45,0,1.55,.21,4.81,.63,9.75,.42,11.15,.32,16.88-.31,17.19-.63,.32-2.04-3.58-4.22-11.68,.25,5.76,.29,9.04,.13,9.85l-3.4-12.71c-2.44-13.86-4.2-20.88-5.3-21.06-.34,.06-.67,.91-1.01,2.51-2.61-8.41-6.66-26.7-12.17-54.89-5.51-28.18-10.28-44.99-14.31-50.42-1.01,.19-2.81,.73-5.42,1.61-12.09,3.84-21.44,7.07-28.03,9.67-6.59,2.61-14.49,6.43-23.68,11.46-9.2,5.04-16.84,11.13-22.92,18.28-6.09,7.16-10.98,15.73-14.67,25.72-3.35,17.68-12.13,26.89-26.32,27.64-10.75,.5-18.52-3.65-23.31-12.42-5.97-10.86-3.07-22.84,8.68-35.91-.17-2.29-2.44-3.02-6.8-2.2-2.1,.02-5.12,.59-9.07,1.72-13.35,2.92-20.66,2.37-21.92-1.65-.25-1.11-.22-2.47,.12-4.09,1.09-9.11,5.09-16.15,12.02-21.15,6.93-4.99,16.78-9.47,29.54-13.44,12.77-3.96,21.16-7.1,25.19-9.42,8.56-10.13,19.6-26.36,33.12-48.67,13.51-22.31,21.83-35.88,24.93-40.73,4.03-5.41,9.65-14.99,16.88-28.75,7.21-13.75,14.25-24.86,21.09-33.32,6.84-8.46,14.67-13.33,23.49-14.62Zm-23.41,103.16c-1.18,2.55-4.29,7.4-9.32,14.54-9.91,15.04-13.18,23.02-9.82,23.93,2.68,1.04,8.27-.6,16.75-4.92,7.06,3.31,10.37-2.16,9.95-16.4-.59-11.88-2.44-18.5-5.55-19.85-.76-.24-1.43,.66-2.01,2.7Z"/><path class="cls-4" d="M1012.99,193.3c6.89-2.08,11.04-1.12,12.47,2.86,1.43,3.99,1.7,9.46,.82,16.39-.88,6.94,.99,13.66,5.61,20.13,1.01,4.45,1.91,9.61,2.71,15.46,.8,5.85,1.34,11.36,1.64,16.53,.29,5.17,.78,10.8,1.45,16.86,.67,6.07,1.49,11.24,2.46,15.5,.97,4.27,2.44,8.45,4.41,12.52,1.98,4.08,4.49,6.7,7.56,7.86,3.06,1.16,6.97,1.78,11.72,1.85,4.74,.07,10.35-1.86,16.81-5.8-5.55,1.83-8.77,3.02-9.7,3.58-.92,.57,.5,.69,4.28,.35,1.09,.18,2.47,.11,4.16-.21l5.92,.62c-1.35,.26-5.5,1.24-12.47,2.95-10.58,1.23-15.75,2.4-15.49,3.52,.08,.37,.92,.99,2.52,1.85,3.61,2.03,2.98,3.89-1.89,5.58-1.6,.69-3.58,1.26-5.92,1.7,17.3-5.6,29.22-7.08,35.77-4.46,1.85,.43,1.34,1.3-1.51,2.61-4.12,1.94-11.93,3.81-23.43,5.6-5.97-.03-10.04,1.71-12.22,5.22-2.18,3.52-2.9,8.49-2.14,14.92,.75,6.45,1.97,12.98,3.66,19.63,1.68,6.65,3.11,13.74,4.29,21.26,1.18,7.53,1.55,13.45,1.14,17.79-1.43,10.72-2.3,24.64-2.64,41.73-.33,17.1-1.25,29.28-2.76,36.53-.17,2.36-.84,.16-2.02-6.58-.76-3.34-1.85-9.71-3.28-19.12l-3.03-15.69c.08,1.92,.63,6.66,1.64,14.21,1.94,13.19,2.18,19.72,.76,19.6-.68,.13-1.51-4.36-2.52-13.46-.34,6.26-.59,12.89-.75,19.89l-.13-.56c-1.01-6-1.98-11.82-2.9-17.45,0,1.55,.21,4.81,.63,9.75,.42,11.15,.32,16.88-.31,17.19-.63,.32-2.04-3.58-4.22-11.68,.25,5.76,.29,9.04,.13,9.85l-3.4-12.71c-2.44-13.86-4.2-20.88-5.3-21.06-.34,.06-.67,.91-1.01,2.51-2.61-8.41-6.66-26.7-12.17-54.89-5.51-28.18-10.28-44.99-14.31-50.42-1.01,.19-2.81,.73-5.42,1.61-12.09,3.84-21.44,7.07-28.03,9.67-6.59,2.61-14.49,6.43-23.68,11.46-9.2,5.04-16.84,11.13-22.92,18.28-6.09,7.16-10.98,15.73-14.67,25.72-3.35,17.68-12.13,26.89-26.32,27.64-10.75,.5-18.52-3.65-23.31-12.42-5.97-10.86-3.07-22.84,8.68-35.91-.17-2.29-2.44-3.02-6.8-2.2-2.1,.02-5.12,.59-9.07,1.72-13.35,2.92-20.66,2.37-21.92-1.65-.25-1.11-.22-2.47,.12-4.09,1.09-9.11,5.09-16.15,12.02-21.15,6.93-4.99,16.78-9.47,29.54-13.44,12.77-3.96,21.16-7.1,25.19-9.42,8.56-10.13,19.6-26.36,33.12-48.67,13.51-22.31,21.83-35.88,24.93-40.73,4.03-5.41,9.65-14.99,16.88-28.75,7.21-13.75,14.25-24.86,21.09-33.32,6.84-8.46,14.67-13.33,23.49-14.62Zm-23.41,103.16c-1.18,2.55-4.29,7.4-9.32,14.54-9.91,15.04-13.18,23.02-9.82,23.93,2.68,1.04,8.27-.6,16.75-4.92,7.06,3.31,10.37-2.16,9.95-16.4-.59-11.88-2.44-18.5-5.55-19.85-.76-.24-1.43,.66-2.01,2.7Z"/></g><g><path d="M406.4,435.12c-3.39-8.48-10.5-16.11-21.35-22.9-12.9-3.12-25.89-5.52-39-7.18-13.11-1.65-27.57-3-43.37-4.07-15.82-1.05-28.45-1.69-37.91-1.89-9.47-.2-24.07-.33-43.8-.39-19.74-.05-32.83-.14-39.28-.26,4.29-8.77,12.5-17.22,24.62-25.33,12.11-8.11,23.61-14.57,34.49-19.39,10.88-4.8,25.46-10.71,43.74-17.71,18.28-6.99,30.65-11.88,37.11-14.66,2.8-1.33,7.04-2.49,12.68-3.48,5.65-.98,10.96-2.04,15.94-3.18,4.98-1.13,10.34-2.56,16.1-4.29,5.75-1.72,10.59-3.81,14.53-6.26,3.93-2.44,7.16-5.29,9.7-8.52,2.53-3.23,3.31-7.43,2.34-12.62-.98-5.18-3.62-10.86-7.95-17.06-64.18-16.65-140.87,1.64-230.03,54.9-14.03,3.78-25.84,11.85-35.39,24.22-9.57,12.37-15.29,25.31-17.18,38.84-1.89,13.54,1.16,26.41,9.16,38.64,7.99,12.23,20.83,20.08,38.49,23.55,21.23,4.45,51.96,5.6,92.17,3.44,40.22-2.15,68.59-2.38,85.14-.7-14.11,9.1-38.93,24.2-74.46,45.29-35.53,21.1-62.46,37.92-80.78,50.47-7.31,5.79-19.36,14.39-36.14,25.76-12.15,8.25-29.33,24.07-34.85,30.21-8.19,9.12-20.74,24.66-21.76,36.99,0,0,26.11,1.09,66.39-22.13,9.12-5.06,14.7-7.97,16.74-8.72,1.26-.17,.84,1.34-1.27,4.51-2.18,2.71-3.23,4.3-3.17,4.76,.28,1.9,5.22,.53,14.84-4.13,20.98-6.13,49.51-19.3,85.6-39.51,36.08-20.2,58.12-32.28,66.13-36.23,7.16-3.84,14.46-8.17,21.9-13.02,7.44-4.84,15.59-10.74,24.44-17.7,8.85-6.96,16.25-14.33,22.19-22.11,5.94-7.78,10.48-15.62,13.62-23.52,3.13-7.89,3.02-16.08-.36-24.58Z"/><path class="cls-2" d="M406.4,435.12c-3.39-8.48-10.5-16.11-21.35-22.9-12.9-3.12-25.89-5.52-39-7.18-13.11-1.65-27.57-3-43.37-4.07-15.82-1.05-28.45-1.69-37.91-1.89-9.47-.2-24.07-.33-43.8-.39-19.74-.05-32.83-.14-39.28-.26,4.29-8.77,12.5-17.22,24.62-25.33,12.11-8.11,23.61-14.57,34.49-19.39,10.88-4.8,25.46-10.71,43.74-17.71,18.28-6.99,30.65-11.88,37.11-14.66,2.8-1.33,7.04-2.49,12.68-3.48,5.65-.98,10.96-2.04,15.94-3.18,4.98-1.13,10.34-2.56,16.1-4.29,5.75-1.72,10.59-3.81,14.53-6.26,3.93-2.44,7.16-5.29,9.7-8.52,2.53-3.23,3.31-7.43,2.34-12.62-.98-5.18-3.62-10.86-7.95-17.06-64.18-16.65-140.87,1.64-230.03,54.9-14.03,3.78-25.84,11.85-35.39,24.22-9.57,12.37-15.29,25.31-17.18,38.84-1.89,13.54,1.16,26.41,9.16,38.64,7.99,12.23,20.83,20.08,38.49,23.55,21.23,4.45,51.96,5.6,92.17,3.44,40.22-2.15,68.59-2.38,85.14-.7-14.11,9.1-38.93,24.2-74.46,45.29-35.53,21.1-62.46,37.92-80.78,50.47-7.31,5.79-19.36,14.39-36.14,25.76-12.15,8.25-29.33,24.07-34.85,30.21-8.19,9.12-20.74,24.66-21.76,36.99,0,0,26.11,1.09,66.39-22.13,9.12-5.06,14.7-7.97,16.74-8.72,1.26-.17,.84,1.34-1.27,4.51-2.18,2.71-3.23,4.3-3.17,4.76,.28,1.9,5.22,.53,14.84-4.13,20.98-6.13,49.51-19.3,85.6-39.51,36.08-20.2,58.12-32.28,66.13-36.23,7.16-3.84,14.46-8.17,21.9-13.02,7.44-4.84,15.59-10.74,24.44-17.7,8.85-6.96,16.25-14.33,22.19-22.11,5.94-7.78,10.48-15.62,13.62-23.52,3.13-7.89,3.02-16.08-.36-24.58Z"/></g></g><g><g><path class="cls-3" d="M532.69,284.34c6.89-2.08,11.04-1.12,12.47,2.86,1.43,3.99,1.7,9.46,.82,16.39-.88,6.94,.99,13.66,5.61,20.13,1.01,4.45,1.91,9.61,2.71,15.46,.8,5.85,1.34,11.36,1.64,16.53,.29,5.17,.78,10.8,1.45,16.86,.67,6.07,1.49,11.24,2.46,15.5,.97,4.27,2.44,8.45,4.41,12.52,1.98,4.08,4.49,6.7,7.56,7.86,3.06,1.16,6.97,1.78,11.72,1.85,4.74,.07,10.35-1.86,16.81-5.8-5.55,1.83-8.77,3.02-9.7,3.58-.92,.57,.5,.69,4.28,.35,1.09,.18,2.47,.11,4.16-.21l5.92,.62c-1.35,.26-5.5,1.24-12.47,2.95-10.58,1.23-15.75,2.4-15.49,3.52,.08,.37,.92,.99,2.52,1.85,3.61,2.03,2.98,3.89-1.89,5.58-1.6,.69-3.58,1.26-5.92,1.7,17.3-5.6,29.22-7.08,35.77-4.46,1.85,.43,1.34,1.3-1.51,2.61-4.12,1.94-11.93,3.81-23.43,5.6-5.97-.03-10.04,1.71-12.22,5.22-2.18,3.52-2.9,8.49-2.14,14.92,.75,6.45,1.97,12.98,3.66,19.63,1.68,6.65,3.11,13.74,4.29,21.26,1.18,7.53,1.55,13.45,1.14,17.79-1.43,10.72-2.3,24.64-2.64,41.73-.33,17.1-1.25,29.28-2.76,36.53-.17,2.36-.84,.16-2.02-6.58-.76-3.34-1.85-9.71-3.28-19.12l-3.03-15.69c.08,1.92,.63,6.66,1.64,14.21,1.94,13.19,2.18,19.72,.76,19.6-.68,.13-1.51-4.36-2.52-13.46-.34,6.26-.59,12.89-.75,19.89l-.13-.56c-1.01-6-1.98-11.82-2.9-17.45,0,1.55,.21,4.81,.63,9.75,.42,11.15,.32,16.88-.31,17.19-.63,.32-2.04-3.58-4.22-11.68,.25,5.76,.29,9.04,.13,9.85l-3.4-12.71c-2.44-13.86-4.2-20.88-5.3-21.06-.34,.06-.67,.91-1.01,2.51-2.61-8.41-6.66-26.7-12.17-54.89-5.51-28.18-10.28-44.99-14.31-50.42-1.01,.19-2.81,.73-5.42,1.61-12.09,3.84-21.44,7.07-28.03,9.67-6.59,2.61-14.49,6.43-23.68,11.46-9.2,5.04-16.84,11.13-22.92,18.28-6.09,7.16-10.98,15.73-14.67,25.72-3.35,17.68-12.13,26.89-26.32,27.64-10.75,.5-18.52-3.65-23.31-12.42-5.97-10.86-3.07-22.84,8.68-35.91-.17-2.29-2.44-3.02-6.8-2.2-2.1,.02-5.12,.59-9.07,1.72-13.35,2.92-20.66,2.37-21.92-1.65-.25-1.11-.22-2.47,.12-4.09,1.09-9.11,5.09-16.15,12.02-21.15,6.93-4.99,16.78-9.47,29.54-13.44,12.77-3.96,21.16-7.1,25.19-9.42,8.56-10.13,19.6-26.36,33.12-48.67,13.51-22.31,21.83-35.88,24.93-40.73,4.03-5.41,9.65-14.99,16.88-28.75,7.21-13.75,14.25-24.86,21.09-33.32,6.84-8.46,14.67-13.33,23.49-14.62Zm-23.41,103.16c-1.18,2.55-4.29,7.4-9.32,14.54-9.91,15.04-13.18,23.02-9.82,23.93,2.68,1.04,8.27-.6,16.75-4.92,7.06,3.31,10.37-2.16,9.95-16.4-.59-11.88-2.44-18.5-5.55-19.85-.76-.24-1.43,.66-2.01,2.7Z"/><path class="cls-3" d="M532.69,284.34c6.89-2.08,11.04-1.12,12.47,2.86,1.43,3.99,1.7,9.46,.82,16.39-.88,6.94,.99,13.66,5.61,20.13,1.01,4.45,1.91,9.61,2.71,15.46,.8,5.85,1.34,11.36,1.64,16.53,.29,5.17,.78,10.8,1.45,16.86,.67,6.07,1.49,11.24,2.46,15.5,.97,4.27,2.44,8.45,4.41,12.52,1.98,4.08,4.49,6.7,7.56,7.86,3.06,1.16,6.97,1.78,11.72,1.85,4.74,.07,10.35-1.86,16.81-5.8-5.55,1.83-8.77,3.02-9.7,3.58-.92,.57,.5,.69,4.28,.35,1.09,.18,2.47,.11,4.16-.21l5.92,.62c-1.35,.26-5.5,1.24-12.47,2.95-10.58,1.23-15.75,2.4-15.49,3.52,.08,.37,.92,.99,2.52,1.85,3.61,2.03,2.98,3.89-1.89,5.58-1.6,.69-3.58,1.26-5.92,1.7,17.3-5.6,29.22-7.08,35.77-4.46,1.85,.43,1.34,1.3-1.51,2.61-4.12,1.94-11.93,3.81-23.43,5.6-5.97-.03-10.04,1.71-12.22,5.22-2.18,3.52-2.9,8.49-2.14,14.92,.75,6.45,1.97,12.98,3.66,19.63,1.68,6.65,3.11,13.74,4.29,21.26,1.18,7.53,1.55,13.45,1.14,17.79-1.43,10.72-2.3,24.64-2.64,41.73-.33,17.1-1.25,29.28-2.76,36.53-.17,2.36-.84,.16-2.02-6.58-.76-3.34-1.85-9.71-3.28-19.12l-3.03-15.69c.08,1.92,.63,6.66,1.64,14.21,1.94,13.19,2.18,19.72,.76,19.6-.68,.13-1.51-4.36-2.52-13.46-.34,6.26-.59,12.89-.75,19.89l-.13-.56c-1.01-6-1.98-11.82-2.9-17.45,0,1.55,.21,4.81,.63,9.75,.42,11.15,.32,16.88-.31,17.19-.63,.32-2.04-3.58-4.22-11.68,.25,5.76,.29,9.04,.13,9.85l-3.4-12.71c-2.44-13.86-4.2-20.88-5.3-21.06-.34,.06-.67,.91-1.01,2.51-2.61-8.41-6.66-26.7-12.17-54.89-5.51-28.18-10.28-44.99-14.31-50.42-1.01,.19-2.81,.73-5.42,1.61-12.09,3.84-21.44,7.07-28.03,9.67-6.59,2.61-14.49,6.43-23.68,11.46-9.2,5.04-16.84,11.13-22.92,18.28-6.09,7.16-10.98,15.73-14.67,25.72-3.35,17.68-12.13,26.89-26.32,27.64-10.75,.5-18.52-3.65-23.31-12.42-5.97-10.86-3.07-22.84,8.68-35.91-.17-2.29-2.44-3.02-6.8-2.2-2.1,.02-5.12,.59-9.07,1.72-13.35,2.92-20.66,2.37-21.92-1.65-.25-1.11-.22-2.47,.12-4.09,1.09-9.11,5.09-16.15,12.02-21.15,6.93-4.99,16.78-9.47,29.54-13.44,12.77-3.96,21.16-7.1,25.19-9.42,8.56-10.13,19.6-26.36,33.12-48.67,13.51-22.31,21.83-35.88,24.93-40.73,4.03-5.41,9.65-14.99,16.88-28.75,7.21-13.75,14.25-24.86,21.09-33.32,6.84-8.46,14.67-13.33,23.49-14.62Zm-23.41,103.16c-1.18,2.55-4.29,7.4-9.32,14.54-9.91,15.04-13.18,23.02-9.82,23.93,2.68,1.04,8.27-.6,16.75-4.92,7.06,3.31,10.37-2.16,9.95-16.4-.59-11.88-2.44-18.5-5.55-19.85-.76-.24-1.43,.66-2.01,2.7Z"/><path class="cls-3" d="M532.69,284.34c6.89-2.08,11.04-1.12,12.47,2.86,1.43,3.99,1.7,9.46,.82,16.39-.88,6.94,.99,13.66,5.61,20.13,1.01,4.45,1.91,9.61,2.71,15.46,.8,5.85,1.34,11.36,1.64,16.53,.29,5.17,.78,10.8,1.45,16.86,.67,6.07,1.49,11.24,2.46,15.5,.97,4.27,2.44,8.45,4.41,12.52,1.98,4.08,4.49,6.7,7.56,7.86,3.06,1.16,6.97,1.78,11.72,1.85,4.74,.07,10.35-1.86,16.81-5.8-5.55,1.83-8.77,3.02-9.7,3.58-.92,.57,.5,.69,4.28,.35,1.09,.18,2.47,.11,4.16-.21l5.92,.62c-1.35,.26-5.5,1.24-12.47,2.95-10.58,1.23-15.75,2.4-15.49,3.52,.08,.37,.92,.99,2.52,1.85,3.61,2.03,2.98,3.89-1.89,5.58-1.6,.69-3.58,1.26-5.92,1.7,17.3-5.6,29.22-7.08,35.77-4.46,1.85,.43,1.34,1.3-1.51,2.61-4.12,1.94-11.93,3.81-23.43,5.6-5.97-.03-10.04,1.71-12.22,5.22-2.18,3.52-2.9,8.49-2.14,14.92,.75,6.45,1.97,12.98,3.66,19.63,1.68,6.65,3.11,13.74,4.29,21.26,1.18,7.53,1.55,13.45,1.14,17.79-1.43,10.72-2.3,24.64-2.64,41.73-.33,17.1-1.25,29.28-2.76,36.53-.17,2.36-.84,.16-2.02-6.58-.76-3.34-1.85-9.71-3.28-19.12l-3.03-15.69c.08,1.92,.63,6.66,1.64,14.21,1.94,13.19,2.18,19.72,.76,19.6-.68,.13-1.51-4.36-2.52-13.46-.34,6.26-.59,12.89-.75,19.89l-.13-.56c-1.01-6-1.98-11.82-2.9-17.45,0,1.55,.21,4.81,.63,9.75,.42,11.15,.32,16.88-.31,17.19-.63,.32-2.04-3.58-4.22-11.68,.25,5.76,.29,9.04,.13,9.85l-3.4-12.71c-2.44-13.86-4.2-20.88-5.3-21.06-.34,.06-.67,.91-1.01,2.51-2.61-8.41-6.66-26.7-12.17-54.89-5.51-28.18-10.28-44.99-14.31-50.42-1.01,.19-2.81,.73-5.42,1.61-12.09,3.84-21.44,7.07-28.03,9.67-6.59,2.61-14.49,6.43-23.68,11.46-9.2,5.04-16.84,11.13-22.92,18.28-6.09,7.16-10.98,15.73-14.67,25.72-3.35,17.68-12.13,26.89-26.32,27.64-10.75,.5-18.52-3.65-23.31-12.42-5.97-10.86-3.07-22.84,8.68-35.91-.17-2.29-2.44-3.02-6.8-2.2-2.1,.02-5.12,.59-9.07,1.72-13.35,2.92-20.66,2.37-21.92-1.65-.25-1.11-.22-2.47,.12-4.09,1.09-9.11,5.09-16.15,12.02-21.15,6.93-4.99,16.78-9.47,29.54-13.44,12.77-3.96,21.16-7.1,25.19-9.42,8.56-10.13,19.6-26.36,33.12-48.67,13.51-22.31,21.83-35.88,24.93-40.73,4.03-5.41,9.65-14.99,16.88-28.75,7.21-13.75,14.25-24.86,21.09-33.32,6.84-8.46,14.67-13.33,23.49-14.62Zm-23.41,103.16c-1.18,2.55-4.29,7.4-9.32,14.54-9.91,15.04-13.18,23.02-9.82,23.93,2.68,1.04,8.27-.6,16.75-4.92,7.06,3.31,10.37-2.16,9.95-16.4-.59-11.88-2.44-18.5-5.55-19.85-.76-.24-1.43,.66-2.01,2.7Z"/></g><g><path class="cls-3" d="M664.73,262.12c7.85,3.34,14.03,8.42,18.53,15.25,4.49,6.83,7.21,14.94,8.14,24.34,.93,9.41,1.26,18.11,1.02,26.11-.25,8.01-.94,17.35-2.08,28.03-1.15,10.69-1.71,18.6-1.71,23.75-.4,2.51-2.22,12.73-5.45,30.64-3.23,17.92-5.47,29.95-6.72,36.11-1.25,6.16-3.38,15.89-6.38,29.16-3.01,13.29-6.25,24.76-9.71,34.43-3.47,9.67-7.3,19.16-11.48,28.47-.86,6.63-3.27,8.42-7.23,5.37-2.71-1.87-3.74,.05-3.1,5.78,.13,1.15,.4,2.64,.84,4.48-6.03,5.97-13.04,6.71-21.02,2.22-7.99-4.48-12.92-12.74-14.83-24.8-3.58-31.3-3.3-62.8,.84-94.49,4.14-31.69,11.3-67.64,21.48-107.87,1.74-3.74,4.18-11.88,7.33-24.43,3.15-12.53,7.07-22.45,11.76-29.76,4.69-7.3,11.28-11.56,19.76-12.8Z"/><path class="cls-3" d="M664.73,262.12c7.85,3.34,14.03,8.42,18.53,15.25,4.49,6.83,7.21,14.94,8.14,24.34,.93,9.41,1.26,18.11,1.02,26.11-.25,8.01-.94,17.35-2.08,28.03-1.15,10.69-1.71,18.6-1.71,23.75-.4,2.51-2.22,12.73-5.45,30.64-3.23,17.92-5.47,29.95-6.72,36.11-1.25,6.16-3.38,15.89-6.38,29.16-3.01,13.29-6.25,24.76-9.71,34.43-3.47,9.67-7.3,19.16-11.48,28.47-.86,6.63-3.27,8.42-7.23,5.37-2.71-1.87-3.74,.05-3.1,5.78,.13,1.15,.4,2.64,.84,4.48-6.03,5.97-13.04,6.71-21.02,2.22-7.99-4.48-12.92-12.74-14.83-24.8-3.58-31.3-3.3-62.8,.84-94.49,4.14-31.69,11.3-67.64,21.48-107.87,1.74-3.74,4.18-11.88,7.33-24.43,3.15-12.53,7.07-22.45,11.76-29.76,4.69-7.3,11.28-11.56,19.76-12.8Z"/><path class="cls-3" d="M664.73,262.12c7.85,3.34,14.03,8.42,18.53,15.25,4.49,6.83,7.21,14.94,8.14,24.34,.93,9.41,1.26,18.11,1.02,26.11-.25,8.01-.94,17.35-2.08,28.03-1.15,10.69-1.71,18.6-1.71,23.75-.4,2.51-2.22,12.73-5.45,30.64-3.23,17.92-5.47,29.95-6.72,36.11-1.25,6.16-3.38,15.89-6.38,29.16-3.01,13.29-6.25,24.76-9.71,34.43-3.47,9.67-7.3,19.16-11.48,28.47-.86,6.63-3.27,8.42-7.23,5.37-2.71-1.87-3.74,.05-3.1,5.78,.13,1.15,.4,2.64,.84,4.48-6.03,5.97-13.04,6.71-21.02,2.22-7.99-4.48-12.92-12.74-14.83-24.8-3.58-31.3-3.3-62.8,.84-94.49,4.14-31.69,11.3-67.64,21.48-107.87,1.74-3.74,4.18-11.88,7.33-24.43,3.15-12.53,7.07-22.45,11.76-29.76,4.69-7.3,11.28-11.56,19.76-12.8Z"/></g><g><path class="cls-3" d="M763.08,538c0-3.09-.36-5.06-1.07-5.89-.71-.83-1.74-.73-3.09,.29-1.34,1.03-2.73,1.88-4.16,2.53-1.43,.66-2.75,1.01-3.97,1.04-1.22,.04-2.16-1.42-2.84-4.4-.67-2.97-.85-7.58-.51-13.84,.49-65.9,11.56-136.14,33.21-210.71-2.44,.08-5.69,.41-9.76,.98-4.07,.58-7.87,1.2-11.4,1.87-3.53,.67-7.77,1.28-12.72,1.83-4.96,.56-9.35,.9-13.16,1.04-3.83,.14-8.12,.09-12.91-.17-4.79-.26-8.69-.87-11.72-1.85-3.03-.97-6.39-2.27-10.08-3.9-3.7-1.62-6.3-3.83-7.81-6.65-1.51-2.81-3.05-6.1-4.6-9.87-1.55-3.77-1.91-8.44-1.07-14.02,7.64-6.48,16.67-11.87,27.08-16.17,10.41-4.3,20.72-7.5,30.92-9.64,10.2-2.12,21.03-4.18,32.5-6.16,11.46-1.97,22.02-4.07,31.68-6.29,67.6-7.78,118.16-10.39,151.67-7.84,4.96,3.32,6.19,6.08,3.72,8.3-2.48,2.21-6.53,4.05-12.16,5.5-5.63,1.46-8.17,2.62-7.62,3.48,.54,.87,6.32,1.61,17.32,2.23-7.22,5.24-16.25,7.93-27.08,8.04-1.43-.11-2.02,.38-1.76,1.5,.17,.75,1.68,2.78,4.54,6.11-7.14,2.51-14.83,6.1-23.05,10.76-8.23,4.66-16.2,8.5-23.93,11.5-7.72,3.02-17.09,4.98-28.09,5.91-9.16-.2-14.65,4.14-16.5,13-1.85,8.87-2.1,20.14-.75,33.82,1.34,13.68,1.3,22.79-.12,27.32-.76,2.86-2.18,8.16-4.28,15.91l-22.28,84.94c-.34,6.26-3.23,12.81-8.69,19.65-2.43,3.18-3.78,3.43-4.03,.76-.17-2.29,1.05-7.75,3.65-16.37,.59-6.69,.16-10.09-1.26-10.21-.84-.61-2.73,1.1-5.67,5.14l-2.14,2.15c-.25-1.11,.96-5.79,3.65-14.05-5.8,10.01-14.48,27.34-26.06,51.98-1.85,4.23-3.47,7.54-4.85,9.92-1.39,2.39-2.35,3.93-2.9,4.61-.55,.69-1.16,1.48-1.83,2.38-.67,.91-1.3,2.38-1.89,4.42-.59,2.05-1.3,5.09-2.14,9.12Z"/><path class="cls-3" d="M763.08,538c0-3.09-.36-5.06-1.07-5.89-.71-.83-1.74-.73-3.09,.29-1.34,1.03-2.73,1.88-4.16,2.53-1.43,.66-2.75,1.01-3.97,1.04-1.22,.04-2.16-1.42-2.84-4.4-.67-2.97-.85-7.58-.51-13.84,.49-65.9,11.56-136.14,33.21-210.71-2.44,.08-5.69,.41-9.76,.98-4.07,.58-7.87,1.2-11.4,1.87-3.53,.67-7.77,1.28-12.72,1.83-4.96,.56-9.35,.9-13.16,1.04-3.83,.14-8.12,.09-12.91-.17-4.79-.26-8.69-.87-11.72-1.85-3.03-.97-6.39-2.27-10.08-3.9-3.7-1.62-6.3-3.83-7.81-6.65-1.51-2.81-3.05-6.1-4.6-9.87-1.55-3.77-1.91-8.44-1.07-14.02,7.64-6.48,16.67-11.87,27.08-16.17,10.41-4.3,20.72-7.5,30.92-9.64,10.2-2.12,21.03-4.18,32.5-6.16,11.46-1.97,22.02-4.07,31.68-6.29,67.6-7.78,118.16-10.39,151.67-7.84,4.96,3.32,6.19,6.08,3.72,8.3-2.48,2.21-6.53,4.05-12.16,5.5-5.63,1.46-8.17,2.62-7.62,3.48,.54,.87,6.32,1.61,17.32,2.23-7.22,5.24-16.25,7.93-27.08,8.04-1.43-.11-2.02,.38-1.76,1.5,.17,.75,1.68,2.78,4.54,6.11-7.14,2.51-14.83,6.1-23.05,10.76-8.23,4.66-16.2,8.5-23.93,11.5-7.72,3.02-17.09,4.98-28.09,5.91-9.16-.2-14.65,4.14-16.5,13-1.85,8.87-2.1,20.14-.75,33.82,1.34,13.68,1.3,22.79-.12,27.32-.76,2.86-2.18,8.16-4.28,15.91l-22.28,84.94c-.34,6.26-3.23,12.81-8.69,19.65-2.43,3.18-3.78,3.43-4.03,.76-.17-2.29,1.05-7.75,3.65-16.37,.59-6.69,.16-10.09-1.26-10.21-.84-.61-2.73,1.1-5.67,5.14l-2.14,2.15c-.25-1.11,.96-5.79,3.65-14.05-5.8,10.01-14.48,27.34-26.06,51.98-1.85,4.23-3.47,7.54-4.85,9.92-1.39,2.39-2.35,3.93-2.9,4.61-.55,.69-1.16,1.48-1.83,2.38-.67,.91-1.3,2.38-1.89,4.42-.59,2.05-1.3,5.09-2.14,9.12Z"/><path class="cls-3" d="M763.08,538c0-3.09-.36-5.06-1.07-5.89-.71-.83-1.74-.73-3.09,.29-1.34,1.03-2.73,1.88-4.16,2.53-1.43,.66-2.75,1.01-3.97,1.04-1.22,.04-2.16-1.42-2.84-4.4-.67-2.97-.85-7.58-.51-13.84,.49-65.9,11.56-136.14,33.21-210.71-2.44,.08-5.69,.41-9.76,.98-4.07,.58-7.87,1.2-11.4,1.87-3.53,.67-7.77,1.28-12.72,1.83-4.96,.56-9.35,.9-13.16,1.04-3.83,.14-8.12,.09-12.91-.17-4.79-.26-8.69-.87-11.72-1.85-3.03-.97-6.39-2.27-10.08-3.9-3.7-1.62-6.3-3.83-7.81-6.65-1.51-2.81-3.05-6.1-4.6-9.87-1.55-3.77-1.91-8.44-1.07-14.02,7.64-6.48,16.67-11.87,27.08-16.17,10.41-4.3,20.72-7.5,30.92-9.64,10.2-2.12,21.03-4.18,32.5-6.16,11.46-1.97,22.02-4.07,31.68-6.29,67.6-7.78,118.16-10.39,151.67-7.84,4.96,3.32,6.19,6.08,3.72,8.3-2.48,2.21-6.53,4.05-12.16,5.5-5.63,1.46-8.17,2.62-7.62,3.48,.54,.87,6.32,1.61,17.32,2.23-7.22,5.24-16.25,7.93-27.08,8.04-1.43-.11-2.02,.38-1.76,1.5,.17,.75,1.68,2.78,4.54,6.11-7.14,2.51-14.83,6.1-23.05,10.76-8.23,4.66-16.2,8.5-23.93,11.5-7.72,3.02-17.09,4.98-28.09,5.91-9.16-.2-14.65,4.14-16.5,13-1.85,8.87-2.1,20.14-.75,33.82,1.34,13.68,1.3,22.79-.12,27.32-.76,2.86-2.18,8.16-4.28,15.91l-22.28,84.94c-.34,6.26-3.23,12.81-8.69,19.65-2.43,3.18-3.78,3.43-4.03,.76-.17-2.29,1.05-7.75,3.65-16.37,.59-6.69,.16-10.09-1.26-10.21-.84-.61-2.73,1.1-5.67,5.14l-2.14,2.15c-.25-1.11,.96-5.79,3.65-14.05-5.8,10.01-14.48,27.34-26.06,51.98-1.85,4.23-3.47,7.54-4.85,9.92-1.39,2.39-2.35,3.93-2.9,4.61-.55,.69-1.16,1.48-1.83,2.38-.67,.91-1.3,2.38-1.89,4.42-.59,2.05-1.3,5.09-2.14,9.12Z"/></g><g><path class="cls-3" d="M1012.99,193.3c6.89-2.08,11.04-1.12,12.47,2.86,1.43,3.99,1.7,9.46,.82,16.39-.88,6.94,.99,13.66,5.61,20.13,1.01,4.45,1.91,9.61,2.71,15.46,.8,5.85,1.34,11.36,1.64,16.53,.29,5.17,.78,10.8,1.45,16.86,.67,6.07,1.49,11.24,2.46,15.5,.97,4.27,2.44,8.45,4.41,12.52,1.98,4.08,4.49,6.7,7.56,7.86,3.06,1.16,6.97,1.78,11.72,1.85,4.74,.07,10.35-1.86,16.81-5.8-5.55,1.83-8.77,3.02-9.7,3.58-.92,.57,.5,.69,4.28,.35,1.09,.18,2.47,.11,4.16-.21l5.92,.62c-1.35,.26-5.5,1.24-12.47,2.95-10.58,1.23-15.75,2.4-15.49,3.52,.08,.37,.92,.99,2.52,1.85,3.61,2.03,2.98,3.89-1.89,5.58-1.6,.69-3.58,1.26-5.92,1.7,17.3-5.6,29.22-7.08,35.77-4.46,1.85,.43,1.34,1.3-1.51,2.61-4.12,1.94-11.93,3.81-23.43,5.6-5.97-.03-10.04,1.71-12.22,5.22-2.18,3.52-2.9,8.49-2.14,14.92,.75,6.45,1.97,12.98,3.66,19.63,1.68,6.65,3.11,13.74,4.29,21.26,1.18,7.53,1.55,13.45,1.14,17.79-1.43,10.72-2.3,24.64-2.64,41.73-.33,17.1-1.25,29.28-2.76,36.53-.17,2.36-.84,.16-2.02-6.58-.76-3.34-1.85-9.71-3.28-19.12l-3.03-15.69c.08,1.92,.63,6.66,1.64,14.21,1.94,13.19,2.18,19.72,.76,19.6-.68,.13-1.51-4.36-2.52-13.46-.34,6.26-.59,12.89-.75,19.89l-.13-.56c-1.01-6-1.98-11.82-2.9-17.45,0,1.55,.21,4.81,.63,9.75,.42,11.15,.32,16.88-.31,17.19-.63,.32-2.04-3.58-4.22-11.68,.25,5.76,.29,9.04,.13,9.85l-3.4-12.71c-2.44-13.86-4.2-20.88-5.3-21.06-.34,.06-.67,.91-1.01,2.51-2.61-8.41-6.66-26.7-12.17-54.89-5.51-28.18-10.28-44.99-14.31-50.42-1.01,.19-2.81,.73-5.42,1.61-12.09,3.84-21.44,7.07-28.03,9.67-6.59,2.61-14.49,6.43-23.68,11.46-9.2,5.04-16.84,11.13-22.92,18.28-6.09,7.16-10.98,15.73-14.67,25.72-3.35,17.68-12.13,26.89-26.32,27.64-10.75,.5-18.52-3.65-23.31-12.42-5.97-10.86-3.07-22.84,8.68-35.91-.17-2.29-2.44-3.02-6.8-2.2-2.1,.02-5.12,.59-9.07,1.72-13.35,2.92-20.66,2.37-21.92-1.65-.25-1.11-.22-2.47,.12-4.09,1.09-9.11,5.09-16.15,12.02-21.15,6.93-4.99,16.78-9.47,29.54-13.44,12.77-3.96,21.16-7.1,25.19-9.42,8.56-10.13,19.6-26.36,33.12-48.67,13.51-22.31,21.83-35.88,24.93-40.73,4.03-5.41,9.65-14.99,16.88-28.75,7.21-13.75,14.25-24.86,21.09-33.32,6.84-8.46,14.67-13.33,23.49-14.62Zm-23.41,103.16c-1.18,2.55-4.29,7.4-9.32,14.54-9.91,15.04-13.18,23.02-9.82,23.93,2.68,1.04,8.27-.6,16.75-4.92,7.06,3.31,10.37-2.16,9.95-16.4-.59-11.88-2.44-18.5-5.55-19.85-.76-.24-1.43,.66-2.01,2.7Z"/><path class="cls-3" d="M1012.99,193.3c6.89-2.08,11.04-1.12,12.47,2.86,1.43,3.99,1.7,9.46,.82,16.39-.88,6.94,.99,13.66,5.61,20.13,1.01,4.45,1.91,9.61,2.71,15.46,.8,5.85,1.34,11.36,1.64,16.53,.29,5.17,.78,10.8,1.45,16.86,.67,6.07,1.49,11.24,2.46,15.5,.97,4.27,2.44,8.45,4.41,12.52,1.98,4.08,4.49,6.7,7.56,7.86,3.06,1.16,6.97,1.78,11.72,1.85,4.74,.07,10.35-1.86,16.81-5.8-5.55,1.83-8.77,3.02-9.7,3.58-.92,.57,.5,.69,4.28,.35,1.09,.18,2.47,.11,4.16-.21l5.92,.62c-1.35,.26-5.5,1.24-12.47,2.95-10.58,1.23-15.75,2.4-15.49,3.52,.08,.37,.92,.99,2.52,1.85,3.61,2.03,2.98,3.89-1.89,5.58-1.6,.69-3.58,1.26-5.92,1.7,17.3-5.6,29.22-7.08,35.77-4.46,1.85,.43,1.34,1.3-1.51,2.61-4.12,1.94-11.93,3.81-23.43,5.6-5.97-.03-10.04,1.71-12.22,5.22-2.18,3.52-2.9,8.49-2.14,14.92,.75,6.45,1.97,12.98,3.66,19.63,1.68,6.65,3.11,13.74,4.29,21.26,1.18,7.53,1.55,13.45,1.14,17.79-1.43,10.72-2.3,24.64-2.64,41.73-.33,17.1-1.25,29.28-2.76,36.53-.17,2.36-.84,.16-2.02-6.58-.76-3.34-1.85-9.71-3.28-19.12l-3.03-15.69c.08,1.92,.63,6.66,1.64,14.21,1.94,13.19,2.18,19.72,.76,19.6-.68,.13-1.51-4.36-2.52-13.46-.34,6.26-.59,12.89-.75,19.89l-.13-.56c-1.01-6-1.98-11.82-2.9-17.45,0,1.55,.21,4.81,.63,9.75,.42,11.15,.32,16.88-.31,17.19-.63,.32-2.04-3.58-4.22-11.68,.25,5.76,.29,9.04,.13,9.85l-3.4-12.71c-2.44-13.86-4.2-20.88-5.3-21.06-.34,.06-.67,.91-1.01,2.51-2.61-8.41-6.66-26.7-12.17-54.89-5.51-28.18-10.28-44.99-14.31-50.42-1.01,.19-2.81,.73-5.42,1.61-12.09,3.84-21.44,7.07-28.03,9.67-6.59,2.61-14.49,6.43-23.68,11.46-9.2,5.04-16.84,11.13-22.92,18.28-6.09,7.16-10.98,15.73-14.67,25.72-3.35,17.68-12.13,26.89-26.32,27.64-10.75,.5-18.52-3.65-23.31-12.42-5.97-10.86-3.07-22.84,8.68-35.91-.17-2.29-2.44-3.02-6.8-2.2-2.1,.02-5.12,.59-9.07,1.72-13.35,2.92-20.66,2.37-21.92-1.65-.25-1.11-.22-2.47,.12-4.09,1.09-9.11,5.09-16.15,12.02-21.15,6.93-4.99,16.78-9.47,29.54-13.44,12.77-3.96,21.16-7.1,25.19-9.42,8.56-10.13,19.6-26.36,33.12-48.67,13.51-22.31,21.83-35.88,24.93-40.73,4.03-5.41,9.65-14.99,16.88-28.75,7.21-13.75,14.25-24.86,21.09-33.32,6.84-8.46,14.67-13.33,23.49-14.62Zm-23.41,103.16c-1.18,2.55-4.29,7.4-9.32,14.54-9.91,15.04-13.18,23.02-9.82,23.93,2.68,1.04,8.27-.6,16.75-4.92,7.06,3.31,10.37-2.16,9.95-16.4-.59-11.88-2.44-18.5-5.55-19.85-.76-.24-1.43,.66-2.01,2.7Z"/><path class="cls-3" d="M1012.99,193.3c6.89-2.08,11.04-1.12,12.47,2.86,1.43,3.99,1.7,9.46,.82,16.39-.88,6.94,.99,13.66,5.61,20.13,1.01,4.45,1.91,9.61,2.71,15.46,.8,5.85,1.34,11.36,1.64,16.53,.29,5.17,.78,10.8,1.45,16.86,.67,6.07,1.49,11.24,2.46,15.5,.97,4.27,2.44,8.45,4.41,12.52,1.98,4.08,4.49,6.7,7.56,7.86,3.06,1.16,6.97,1.78,11.72,1.85,4.74,.07,10.35-1.86,16.81-5.8-5.55,1.83-8.77,3.02-9.7,3.58-.92,.57,.5,.69,4.28,.35,1.09,.18,2.47,.11,4.16-.21l5.92,.62c-1.35,.26-5.5,1.24-12.47,2.95-10.58,1.23-15.75,2.4-15.49,3.52,.08,.37,.92,.99,2.52,1.85,3.61,2.03,2.98,3.89-1.89,5.58-1.6,.69-3.58,1.26-5.92,1.7,17.3-5.6,29.22-7.08,35.77-4.46,1.85,.43,1.34,1.3-1.51,2.61-4.12,1.94-11.93,3.81-23.43,5.6-5.97-.03-10.04,1.71-12.22,5.22-2.18,3.52-2.9,8.49-2.14,14.92,.75,6.45,1.97,12.98,3.66,19.63,1.68,6.65,3.11,13.74,4.29,21.26,1.18,7.53,1.55,13.45,1.14,17.79-1.43,10.72-2.3,24.64-2.64,41.73-.33,17.1-1.25,29.28-2.76,36.53-.17,2.36-.84,.16-2.02-6.58-.76-3.34-1.85-9.71-3.28-19.12l-3.03-15.69c.08,1.92,.63,6.66,1.64,14.21,1.94,13.19,2.18,19.72,.76,19.6-.68,.13-1.51-4.36-2.52-13.46-.34,6.26-.59,12.89-.75,19.89l-.13-.56c-1.01-6-1.98-11.82-2.9-17.45,0,1.55,.21,4.81,.63,9.75,.42,11.15,.32,16.88-.31,17.19-.63,.32-2.04-3.58-4.22-11.68,.25,5.76,.29,9.04,.13,9.85l-3.4-12.71c-2.44-13.86-4.2-20.88-5.3-21.06-.34,.06-.67,.91-1.01,2.51-2.61-8.41-6.66-26.7-12.17-54.89-5.51-28.18-10.28-44.99-14.31-50.42-1.01,.19-2.81,.73-5.42,1.61-12.09,3.84-21.44,7.07-28.03,9.67-6.59,2.61-14.49,6.43-23.68,11.46-9.2,5.04-16.84,11.13-22.92,18.28-6.09,7.16-10.98,15.73-14.67,25.72-3.35,17.68-12.13,26.89-26.32,27.64-10.75,.5-18.52-3.65-23.31-12.42-5.97-10.86-3.07-22.84,8.68-35.91-.17-2.29-2.44-3.02-6.8-2.2-2.1,.02-5.12,.59-9.07,1.72-13.35,2.92-20.66,2.37-21.92-1.65-.25-1.11-.22-2.47,.12-4.09,1.09-9.11,5.09-16.15,12.02-21.15,6.93-4.99,16.78-9.47,29.54-13.44,12.77-3.96,21.16-7.1,25.19-9.42,8.56-10.13,19.6-26.36,33.12-48.67,13.51-22.31,21.83-35.88,24.93-40.73,4.03-5.41,9.65-14.99,16.88-28.75,7.21-13.75,14.25-24.86,21.09-33.32,6.84-8.46,14.67-13.33,23.49-14.62Zm-23.41,103.16c-1.18,2.55-4.29,7.4-9.32,14.54-9.91,15.04-13.18,23.02-9.82,23.93,2.68,1.04,8.27-.6,16.75-4.92,7.06,3.31,10.37-2.16,9.95-16.4-.59-11.88-2.44-18.5-5.55-19.85-.76-.24-1.43,.66-2.01,2.7Z"/></g><g><path class="cls-3" d="M406.4,435.12c-3.39-8.48-10.5-16.11-21.35-22.9-12.9-3.12-25.89-5.52-39-7.18-13.11-1.65-27.57-3-43.37-4.07-15.82-1.05-28.45-1.69-37.91-1.89-9.47-.2-24.07-.33-43.8-.39-19.74-.05-32.83-.14-39.28-.26,4.29-8.77,12.5-17.22,24.62-25.33,12.11-8.11,23.61-14.57,34.49-19.39,10.88-4.8,25.46-10.71,43.74-17.71,18.28-6.99,30.65-11.88,37.11-14.66,2.8-1.33,7.04-2.49,12.68-3.48,5.65-.98,10.96-2.04,15.94-3.18,4.98-1.13,10.34-2.56,16.1-4.29,5.75-1.72,10.59-3.81,14.53-6.26,3.93-2.44,7.16-5.29,9.7-8.52,2.53-3.23,3.31-7.43,2.34-12.62-.98-5.18-3.62-10.86-7.95-17.06-64.18-16.65-140.87,1.64-230.03,54.9-14.03,3.78-25.84,11.85-35.39,24.22-9.57,12.37-15.29,25.31-17.18,38.84-1.89,13.54,1.16,26.41,9.16,38.64,7.99,12.23,20.83,20.08,38.49,23.55,21.23,4.45,51.96,5.6,92.17,3.44,40.22-2.15,68.59-2.38,85.14-.7-14.11,9.1-38.93,24.2-74.46,45.29-35.53,21.1-62.46,37.92-80.78,50.47-7.31,5.79-19.36,14.39-36.14,25.76-12.15,8.25-29.33,24.07-34.85,30.21-8.19,9.12-20.74,24.66-21.76,36.99,0,0,26.11,1.09,66.39-22.13,9.12-5.06,14.7-7.97,16.74-8.72,1.26-.17,.84,1.34-1.27,4.51-2.18,2.71-3.23,4.3-3.17,4.76,.28,1.9,5.22,.53,14.84-4.13,20.98-6.13,49.51-19.3,85.6-39.51,36.08-20.2,58.12-32.28,66.13-36.23,7.16-3.84,14.46-8.17,21.9-13.02,7.44-4.84,15.59-10.74,24.44-17.7,8.85-6.96,16.25-14.33,22.19-22.11,5.94-7.78,10.48-15.62,13.62-23.52,3.13-7.89,3.02-16.08-.36-24.58Z"/><path class="cls-3" d="M406.4,435.12c-3.39-8.48-10.5-16.11-21.35-22.9-12.9-3.12-25.89-5.52-39-7.18-13.11-1.65-27.57-3-43.37-4.07-15.82-1.05-28.45-1.69-37.91-1.89-9.47-.2-24.07-.33-43.8-.39-19.74-.05-32.83-.14-39.28-.26,4.29-8.77,12.5-17.22,24.62-25.33,12.11-8.11,23.61-14.57,34.49-19.39,10.88-4.8,25.46-10.71,43.74-17.71,18.28-6.99,30.65-11.88,37.11-14.66,2.8-1.33,7.04-2.49,12.68-3.48,5.65-.98,10.96-2.04,15.94-3.18,4.98-1.13,10.34-2.56,16.1-4.29,5.75-1.72,10.59-3.81,14.53-6.26,3.93-2.44,7.16-5.29,9.7-8.52,2.53-3.23,3.31-7.43,2.34-12.62-.98-5.18-3.62-10.86-7.95-17.06-64.18-16.65-140.87,1.64-230.03,54.9-14.03,3.78-25.84,11.85-35.39,24.22-9.57,12.37-15.29,25.31-17.18,38.84-1.89,13.54,1.16,26.41,9.16,38.64,7.99,12.23,20.83,20.08,38.49,23.55,21.23,4.45,51.96,5.6,92.17,3.44,40.22-2.15,68.59-2.38,85.14-.7-14.11,9.1-38.93,24.2-74.46,45.29-35.53,21.1-62.46,37.92-80.78,50.47-7.31,5.79-19.36,14.39-36.14,25.76-12.15,8.25-29.33,24.07-34.85,30.21-8.19,9.12-20.74,24.66-21.76,36.99,0,0,26.11,1.09,66.39-22.13,9.12-5.06,14.7-7.97,16.74-8.72,1.26-.17,.84,1.34-1.27,4.51-2.18,2.71-3.23,4.3-3.17,4.76,.28,1.9,5.22,.53,14.84-4.13,20.98-6.13,49.51-19.3,85.6-39.51,36.08-20.2,58.12-32.28,66.13-36.23,7.16-3.84,14.46-8.17,21.9-13.02,7.44-4.84,15.59-10.74,24.44-17.7,8.85-6.96,16.25-14.33,22.19-22.11,5.94-7.78,10.48-15.62,13.62-23.52,3.13-7.89,3.02-16.08-.36-24.58Z"/><path class="cls-3" d="M406.4,435.12c-3.39-8.48-10.5-16.11-21.35-22.9-12.9-3.12-25.89-5.52-39-7.18-13.11-1.65-27.57-3-43.37-4.07-15.82-1.05-28.45-1.69-37.91-1.89-9.47-.2-24.07-.33-43.8-.39-19.74-.05-32.83-.14-39.28-.26,4.29-8.77,12.5-17.22,24.62-25.33,12.11-8.11,23.61-14.57,34.49-19.39,10.88-4.8,25.46-10.71,43.74-17.71,18.28-6.99,30.65-11.88,37.11-14.66,2.8-1.33,7.04-2.49,12.68-3.48,5.65-.98,10.96-2.04,15.94-3.18,4.98-1.13,10.34-2.56,16.1-4.29,5.75-1.72,10.59-3.81,14.53-6.26,3.93-2.44,7.16-5.29,9.7-8.52,2.53-3.23,3.31-7.43,2.34-12.62-.98-5.18-3.62-10.86-7.95-17.06-64.18-16.65-140.87,1.64-230.03,54.9-14.03,3.78-25.84,11.85-35.39,24.22-9.57,12.37-15.29,25.31-17.18,38.84-1.89,13.54,1.16,26.41,9.16,38.64,7.99,12.23,20.83,20.08,38.49,23.55,21.23,4.45,51.96,5.6,92.17,3.44,40.22-2.15,68.59-2.38,85.14-.7-14.11,9.1-38.93,24.2-74.46,45.29-35.53,21.1-62.46,37.92-80.78,50.47-7.31,5.79-19.36,14.39-36.14,25.76-12.15,8.25-29.33,24.07-34.85,30.21-8.19,9.12-20.74,24.66-21.76,36.99,0,0,26.11,1.09,66.39-22.13,9.12-5.06,14.7-7.97,16.74-8.72,1.26-.17,.84,1.34-1.27,4.51-2.18,2.71-3.23,4.3-3.17,4.76,.28,1.9,5.22,.53,14.84-4.13,20.98-6.13,49.51-19.3,85.6-39.51,36.08-20.2,58.12-32.28,66.13-36.23,7.16-3.84,14.46-8.17,21.9-13.02,7.44-4.84,15.59-10.74,24.44-17.7,8.85-6.96,16.25-14.33,22.19-22.11,5.94-7.78,10.48-15.62,13.62-23.52,3.13-7.89,3.02-16.08-.36-24.58Z"/></g></g></g><path class="cls-3" d="M1764.81,79.21c6.47-1.95,10.37-1.05,11.71,2.69,1.34,3.75,1.59,8.88,.77,15.4-.83,6.52,.93,12.83,5.27,18.91,.95,4.18,1.8,9.02,2.55,14.51,.75,5.5,1.26,10.67,1.54,15.52,.28,4.86,.73,10.14,1.36,15.83,.63,5.7,1.4,10.56,2.31,14.56,.91,4.01,2.29,7.93,4.14,11.76,1.86,3.83,4.22,6.29,7.1,7.38,2.88,1.09,6.55,1.67,11,1.73,4.45,.07,9.72-1.75,15.79-5.45-5.21,1.72-8.24,2.84-9.11,3.36-.87,.53,.47,.64,4.02,.33,1.03,.17,2.32,.11,3.9-.19l5.56,.58c-1.26,.24-5.16,1.17-11.71,2.77-9.94,1.16-14.79,2.26-14.55,3.3,.08,.35,.86,.93,2.37,1.73,3.39,1.9,2.8,3.65-1.77,5.24-1.5,.65-3.36,1.18-5.56,1.6,16.24-5.26,27.44-6.65,33.6-4.19,1.73,.4,1.26,1.22-1.42,2.45-3.87,1.83-11.2,3.58-22,5.26-5.6-.03-9.43,1.61-11.47,4.9-2.05,3.3-2.72,7.97-2.01,14.01,.71,6.05,1.85,12.19,3.43,18.44,1.58,6.25,2.92,12.9,4.03,19.96,1.11,7.07,1.46,12.63,1.07,16.7-1.34,10.07-2.16,23.14-2.48,39.19-.31,16.06-1.18,27.49-2.59,34.3-.16,2.21-.79,.15-1.89-6.18-.71-3.14-1.74-9.12-3.08-17.96l-2.84-14.73c.08,1.81,.59,6.25,1.54,13.34,1.82,12.38,2.05,18.52,.71,18.41-.63,.12-1.42-4.1-2.37-12.64-.32,5.88-.55,12.1-.7,18.68l-.12-.52c-.95-5.63-1.86-11.1-2.72-16.39,0,1.46,.2,4.51,.59,9.16,.4,10.47,.3,15.85-.29,16.14-.6,.3-1.92-3.36-3.97-10.97,.24,5.41,.27,8.49,.12,9.25l-3.2-11.94c-2.29-13.01-3.95-19.61-4.97-19.78-.32,.06-.63,.85-.95,2.36-2.45-7.9-6.26-25.08-11.43-51.55-5.18-26.47-9.65-42.25-13.44-47.35-.95,.18-2.64,.69-5.09,1.51-11.36,3.61-20.13,6.64-26.32,9.08-6.19,2.45-13.61,6.04-22.24,10.76-8.64,4.73-15.81,10.46-21.53,17.17-5.72,6.72-10.31,14.77-13.78,24.15-3.15,16.6-11.39,25.25-24.72,25.95-10.1,.47-17.39-3.43-21.89-11.67-5.6-10.2-2.88-21.45,8.15-33.72-.16-2.15-2.29-2.84-6.39-2.06-1.97,.02-4.81,.56-8.52,1.61-12.54,2.74-19.4,2.23-20.58-1.55-.24-1.05-.2-2.32,.12-3.84,1.02-8.55,4.78-15.17,11.29-19.86,6.5-4.68,15.75-8.89,27.74-12.62,11.99-3.72,19.87-6.67,23.66-8.85,8.04-9.52,18.4-24.76,31.1-45.71,12.69-20.95,20.5-33.69,23.41-38.25,3.79-5.08,9.07-14.07,15.85-27,6.78-12.92,13.38-23.35,19.81-31.29,6.42-7.94,13.78-12.51,22.06-13.73Zm-21.98,96.88c-1.11,2.39-4.02,6.95-8.75,13.66-9.31,14.13-12.37,21.62-9.22,22.47,2.52,.98,7.77-.56,15.73-4.62,6.63,3.11,9.74-2.02,9.34-15.4-.55-11.16-2.29-17.37-5.21-18.65-.71-.22-1.34,.62-1.89,2.54Z"/><path class="cls-3" d="M1902.41,47.21c10.28,1.84,24.46,2.02,42.53,.54,18.07-1.47,34.67-1.37,49.79,.31,15.12,1.68,28.72,7.22,40.8,16.63,5.67,4.04,10.18,8.23,13.51,12.61,3.33,4.37,5.16,9,5.49,13.87,.33,4.87,.32,9.44-.04,13.71-.36,4.27-2.07,9.03-5.11,14.3-3.05,5.26-5.66,9.57-7.85,12.93-2.19,3.36-5.68,7.68-10.46,12.95-4.78,5.28-8.29,8.94-10.5,10.96-2.22,2.03-5.49,5.25-9.82,9.67-11.33,11.72-28.86,24.96-52.59,39.71-23.73,14.76-38.18,24.06-43.37,27.9-1.86,5.76-4.83,15.28-8.91,28.58-4.08,13.3-7.97,24.85-11.65,34.63-3.69,9.79-7.11,17.7-10.28,23.75-1.64-4.56-3.73-5.8-6.28-3.7-2.54,2.11-5.09,4.5-7.65,7.17-2.56,2.68-5.84,1.25-9.85-4.31-4.13,10.08-8,8.11-11.61-5.91-4-16.58-5.51-32.41-4.54-47.47,.17-3.08,.56-3.55,1.17-1.41-1.37-2.34-3.84-3.4-7.43-3.15-3.59,.25-7.38,1.97-11.36,5.17,2.21-6.97,5.67-15.08,10.37-24.35,4.71-9.25,8.81-17.23,12.32-23.94,3.51-6.7,6.51-14.9,8.99-24.6,2.49-9.7,3.18-19.56,2.09-29.59,.02-1.15,.22-2.9,.6-5.27,1.18-4.45,2.06-7.79,2.66-10.02,.59-2.22,1.25-5.42,2-9.59,.73-4.16,1.15-7.3,1.26-9.42,.1-2.11,.31-4.73,.65-7.85,.34-3.12,.11-5.45-.67-6.98-.79-1.53-1.62-3.24-2.5-5.14-.89-1.88-2.27-3.09-4.16-3.61-1.89-.51-4-.89-6.33-1.12-2.33-.22-5.19,.14-8.58,1.11-3.39,.97-7.11,2.3-11.17,3.98-9.07,2.46-17.02,1.81-23.84-1.97-6.82-3.76-8.4-10.25-4.72-19.47,1.61-4.17,4.42-7.76,8.46-10.78,4.03-3.01,9.98-5.71,17.85-8.08,7.87-2.37,13.58-4.05,17.14-5.06,3.55-1,10.97-2.51,22.26-4.52,11.28-2.01,17.25-3.09,17.92-3.24,.22-.43,1.23-1.8,3.02-4.12,1.78-2.31,3.42-3.92,4.91-4.83,1.48-.91,3.31-1.23,5.48-.97Zm33.43,53.43c-5.82,2.86-9.23,12.39-10.22,28.59-.97,15.06,.98,22.6,5.88,22.63,2.82,.12,6.15-2.92,9.97-9.13,1.99-1.6,5.69-4.53,11.11-8.82,25.51-19.53,37.56-31.8,36.15-36.81-1.21-4.29-10.11-4.91-26.69-1.88-1.96,.45-4.99,.86-9.07,1.22-4.08,.36-7.03,.75-8.83,1.16s-4.57,1.43-8.3,3.04Zm90.59,55.76c-7.38,9.68-16.08,17.76-26.1,24.24-1.44,1.09-2.09,1.24-1.96,.45,.35-1.22,5.29-5.96,14.81-14.23,5.77-5.5,10.19-8.98,13.26-10.45Z"/><path class="cls-3" d="M1370.21,269.2c-3.39-8.48-10.5-16.11-21.35-22.9-12.9-3.12-25.89-5.52-39-7.18-13.11-1.65-27.57-3-43.37-4.07-15.82-1.05-28.45-1.69-37.91-1.89-9.47-.2-24.07-.33-43.8-.39-19.74-.05-32.83-.14-39.28-.26,4.29-8.77,12.5-17.22,24.62-25.33,12.11-8.11,23.61-14.57,34.49-19.39,10.88-4.8,25.46-10.71,43.74-17.71,18.28-6.99,30.65-11.88,37.11-14.66,2.8-1.33,7.04-2.49,12.68-3.48,5.65-.98,10.96-2.04,15.94-3.18,4.98-1.13,10.34-2.56,16.1-4.29,5.75-1.72,10.59-3.81,14.53-6.26,3.93-2.44,7.16-5.29,9.7-8.52,2.53-3.23,3.31-7.43,2.34-12.62-.98-5.18-3.62-10.86-7.95-17.06-64.18-16.65-140.87,1.64-230.03,54.9-14.03,3.78-25.84,11.85-35.39,24.22-9.57,12.37-15.29,25.31-17.18,38.84-1.89,13.54,1.16,26.41,9.16,38.64,7.99,12.23,20.83,20.08,38.49,23.55,21.23,4.45,51.96,5.6,92.17,3.44,40.22-2.15,68.59-2.38,85.14-.7-14.11,9.1-38.93,24.2-74.46,45.29-35.53,21.1-62.46,37.92-80.78,50.47-7.31,5.79-19.36,14.39-36.14,25.76-12.15,8.25-29.33,24.07-34.85,30.21-8.19,9.12-20.74,24.66-21.76,36.99,0,0,26.11,1.09,66.39-22.13,9.12-5.06,14.7-7.97,16.74-8.72,1.26-.17,.84,1.34-1.27,4.51-2.18,2.71-3.23,4.3-3.17,4.76,.28,1.9,5.22,.53,14.84-4.13,20.98-6.13,49.51-19.3,85.6-39.51,36.08-20.2,58.12-32.28,66.13-36.23,7.16-3.84,14.46-8.17,21.9-13.02,7.44-4.84,15.59-10.74,24.44-17.7,8.85-6.96,16.25-14.33,22.19-22.11,5.94-7.78,10.48-15.62,13.62-23.52,3.13-7.89,3.02-16.08-.36-24.58Z"/><path class="cls-3" d="M1631.61,158.91c1.74-8.13,2-21.2,1.52-25.79-.23-2.18-.58-4.78-1.15-7.49,0-.08,0-.17,0-.25-.08-.26-.16-.52-.24-.78-1.25-5.47-3.43-11.18-7.29-14.43,0,0-4.54,3.44-9.9,11.18-.76,.58-1.59,1.11-2.49,1.54-5.72,7.26-10.22,15.32-14.79,23.52-2.76,4.95-5.87,9.68-8.74,14.58-1.44,2.46-14.48,32.16-19.64,47.78-2.2,6.65-4.62,17.77-5.23,17.9-.67,2.41-1.34,4.92-2.01,7.59-.58,2.08-1.44,5.18-2.6,9.31-1.16,4.14-1.8,6.72-1.92,7.72-.12,1.01-.95,3.91-2.48,8.7-1.53,4.8-1.41,5.34-2.64,10.67-5.37,21.02-6.74,34.84-10.12,44.48-1.08,2.95-1.91,4.27-2.49,3.97-.58-.29-.93-2.21-1.01-5.75-.09-1.95-.27-5.08-.52-9.38-.52-7.01-.68-17.13-.51-30.38,.18-13.24,.39-14.83,.63-16.85l-.26-5.87c-.75-.26-.92-1.03-.51-2.28,.25-.43,.21-1.41-.13-2.93,.08-1.2,.1-1.88,.06-2.08-.04-.19-.31,.15-.81,1.02-.83,.93-1.23,1.89-1.18,2.86,.04,.98-.11,1.5-.43,1.55-.34,.06-.59-1.08-.76-3.42l-.13-2.94c-.25,.44-.41,2.05-.49,4.82-.08,2.78-.29,4.19-.62,4.24l-.25-1.14c.71-15.5,.48-26.7-.7-33.6-.51-2.28-.7-3.92-.57-4.93,.12-1-.11-1.26-.69-.77l-.5,.08-1.51-4.48c-.51-3.85-.6-6.6-.27-8.24,.41-2.82-.26-4.29-2.01-4.39-1,.17-1.56-.03-1.69-.6-.13-.57-.4-1.41-.82-2.52-.42-1.11-1.09-1.79-2-2.03-.92-.23-1.46-.73-1.63-1.5,.16-.81,.16-1.21,0-1.18-.17,.03-.38,.27-.62,.7-.5,.88-.87,.74-1.13-.4-.25-1.14-.44-2-.57-2.57-.13-.57-1.09-.6-2.87-.11-1.79,.51-2.73,.56-2.81,.18-.08-.37-.38-.53-.88-.44-.5,.08-1.08-.21-1.75-.89-.67-.67,0-2.66,2.05-5.96,2.03-3.3,2.55-4.87,1.55-4.7-1,.17-1.86,.61-2.56,1.32-.71,.71-1.64,.78-2.81,.18-1.17-.59-1.94-.56-2.31,.09-.37,.65-1.93,3.38-4.67,8.18-1.74,3.06-2.78,4.61-3.11,4.66-.34,.06-2.91,4.04-7.72,11.95-6.14,11.29-15.6,27.09-28.38,47.38-2.58,3.98-3.92,6.09-4.05,6.3-.13,.23-2.07,3.51-5.85,9.86-3.78,6.36-6.96,11.13-8.65,14.77-4.25,9.17-4.22,4.24-4.22,2.66,1.73-9.36,3.21-15.92,4.45-19.68,.32-1.58,.73-3.85,1.25-6.77,.38-1.69,.77-3.38,1.14-5.06,.15-.45,.3-.82,.45-1.08,.5-.87,2.27-10.1,2.37-11.84,7.6-35.58,13.17-69.64,13.41-102.74,.28-5.18,.14-8.99-.42-11.44-.56-2.46-1.33-3.67-2.34-3.64-1,.03-2.1,.32-3.28,.86-1.18,.54-2.33,1.24-3.44,2.09-1.11,.85-1.96,.93-2.55,.24-.59-.69-2.17,.97-2.65,2.66-.49,1.69-1,2.91-1.56,3.66-.55,.74-1.05,1.4-1.51,1.97-.45,.57-1.25,1.84-2.4,3.81-1.14,1.97-2.48,4.71-4.01,8.2-9.57,20.37-19.85,9.75-19.99,7.86-.21-2.2-1.32-1.99-3.33,.63-3.53,4.42-17.2,63.14-22.99,88.5-.29,.92-.61,1.92-.97,3-1.65,6.59-3.51,13.81-5.57,21.64-1.24,5.34-2.27,9.26-3.1,11.76-.83,2.5-1.63,5.89-2.41,10.17-.79,4.27-2,9.71-3.65,16.29-1.65,6.59-2.41,10.17-2.29,10.74,.13,.57-.76,5.95-2.65,16.12-1.89,10.18-3.11,17.19-3.64,21.02-.53,3.84-.88,6.17-1.05,6.98-.17,.82-.33,3.61-.48,8.36-.16,4.76-.19,8.12-.1,10.07,.25,2.72,1.01,5.36,2.27,7.9,1.25,2.55,2.26,4.75,3.01,6.59,.83,2.23,2.94,4.34,6.33,6.33,3.37,2,6.65,3.12,9.82,3.37,1.75,.1,2.94,.39,3.56,.88,.63,.49,2.54,.56,5.75,.21,3.21-.34,5.68-.46,7.44-.37,4.5,.04,10.53-2.37,18.1-7.19,2.16-1.15,4.11-2.85,5.86-5.13,1.74-2.26,3.45-4.33,5.11-6.19,6.73-5.47,12.55-11.97,17.45-19.5,.5-.87,1.41-2.21,2.74-4.01,8.47-11.68,20.55-31.27,36.23-58.76,4.48-7.85,6.82-11.7,7.03-11.54,.21,.17,.32,2.61,.33,7.34,.13,19.31,2.17,35.53,6.11,48.66,4.62,16.18,9.01,27.47,13.2,33.86,2.51,3.53,5.97,5.9,10.39,7.12,4.08,1.29,9.5,1.56,16.25,.81,4.08-.29,6.22-.36,6.44-.2,.21,.17,.54,.11,1-.17,.46-.27,2.85-1.17,7.18-2.69,4.33-1.52,8.28-3.96,11.86-7.32,3.57-3.36,6.27-6.38,8.1-9.06,5.48-6.44,10.83-16.61,16.05-30.51,4.47-11,8.87-24.66,13.21-40.97,4.33-16.3,19.31-102.57,20.84-109.9,.03-.24,.07-.52,.1-.77,.32-1.27,.63-2.54,.95-3.81-.05-.59-.08-1.18-.07-1.8,0-.1,0-.2,0-.29,.8-4.74,1.98-10.71,3.54-17.96Z"/><path class="cls-3" d="M1607.69,229.97c.63-.03,1.27-.06,1.9-.1,4.09-.25-.63-.28-1.9,.1Z"/></svg>