<svg xmlns="http://www.w3.org/2000/svg" xmlns:xlink="http://www.w3.org/1999/xlink" width="28.058" height="28.058" viewBox="0 0 28.058 28.058">
  <defs>
    <linearGradient id="linear-gradient" x1="0.5" x2="0.5" y2="1" gradientUnits="objectBoundingBox">
      <stop offset="0" stop-color="#a44084"/>
      <stop offset="1" stop-color="#5e52b3"/>
    </linearGradient>
  </defs>
  <path id="Icon_ionic-md-settings" data-name="Icon ionic-md-settings" d="M28.058,18.807a8.773,8.773,0,0,0,.071-1.4c0-.491-.071-.912-.071-1.4l3.013-2.315a.644.644,0,0,0,.144-.912l-2.87-4.84a.7.7,0,0,0-.861-.281L23.9,9.057a10.442,10.442,0,0,0-2.439-1.4l-.5-3.717a.769.769,0,0,0-.717-.561H14.5a.769.769,0,0,0-.717.561l-.574,3.717a12.149,12.149,0,0,0-2.44,1.4L7.18,7.654a.672.672,0,0,0-.861.281l-2.87,4.84a.847.847,0,0,0,.144.912L6.678,16c0,.491-.071.912-.071,1.4s.071.912.071,1.4L3.665,21.121a.644.644,0,0,0-.144.912l2.87,4.84a.7.7,0,0,0,.861.281l3.587-1.4a10.441,10.441,0,0,0,2.439,1.4l.574,3.717a.7.7,0,0,0,.717.561h5.74a.769.769,0,0,0,.717-.561l.575-3.717a12.142,12.142,0,0,0,2.439-1.4l3.587,1.4a.672.672,0,0,0,.861-.281l2.87-4.84a.846.846,0,0,0-.144-.912Zm-10.69,3.507A4.911,4.911,0,1,1,22.39,17.4,4.936,4.936,0,0,1,17.368,22.314Z" transform="translate(-3.375 -3.375)" fill="url(#linear-gradient)"/>
</svg>
