<svg xmlns="http://www.w3.org/2000/svg" xmlns:xlink="http://www.w3.org/1999/xlink" width="37.477" height="40.894" viewBox="0 0 37.477 40.894">
  <defs>
    <linearGradient id="linear-gradient" y1="0.5" x2="1" y2="0.5" gradientUnits="objectBoundingBox">
      <stop offset="0" stop-color="#2160db"/>
      <stop offset="1" stop-color="#e3305a"/>
    </linearGradient>
  </defs>
  <path id="Pfad_899" data-name="Pfad 899" d="M98.841,93.956l-.161,2.1a1.638,1.638,0,0,1-2.37,1.381l-12.721-6.66a1.711,1.711,0,0,1,.239-3.109l13.589-4.641a1.638,1.638,0,0,1,2.132,1.727l-.16,2.087a24.074,24.074,0,0,0,8.461-1.061,20.3,20.3,0,0,0,9.325-5.473C117.506,85.117,111.411,93.65,98.841,93.956Zm14.937-21.673a21.681,21.681,0,0,1-2.135,10.849c-.132.285-.264.563-.4.836A19.1,19.1,0,0,0,117.1,79.9C116.818,76.332,115.447,73.564,113.778,72.282ZM79.722,74.034a20.3,20.3,0,0,1,9.325-5.474,24.083,24.083,0,0,1,8.461-1.06l-.16,2.087a1.638,1.638,0,0,0,2.132,1.727l13.589-4.641a1.711,1.711,0,0,0,.238-3.109L100.586,56.9a1.638,1.638,0,0,0-2.37,1.381l-.161,2.1C85.484,60.686,79.389,69.219,79.722,74.034Zm3.4,8.02A21.679,21.679,0,0,1,85.253,71.2c.132-.285.264-.563.4-.835a19.106,19.106,0,0,0-5.858,4.071C80.077,78,81.448,80.772,83.117,82.054Z" transform="translate(-79.709 -56.721)" fill="url(#linear-gradient)"/>
</svg>
