<svg xmlns="http://www.w3.org/2000/svg" width="19.841" height="16.341" viewBox="0 0 19.841 16.341">
  <g id="Gruppe_1632" data-name="Gruppe 1632" transform="translate(527.642 -759.999) rotate(90)">
    <path id="Icon_ionic-ios-arrow-round-down" data-name="Icon ionic-ios-arrow-round-down" d="M20.864,18.324a.667.667,0,0,0-.94-.005l-3.11,3.1V12.456a.664.664,0,0,0-1.328,0v8.963l-3.11-3.1a.672.672,0,0,0-.94.005.661.661,0,0,0,.005.934l4.238,4.208h0a.745.745,0,0,0,.209.138.634.634,0,0,0,.255.051.666.666,0,0,0,.465-.189l4.238-4.208A.65.65,0,0,0,20.864,18.324Z" transform="translate(755.288 503.992)" fill="#7868E6"/>
    <path id="Icon_ionic-ios-arrow-round-down-2" data-name="Icon ionic-ios-arrow-round-down" d="M9.617,6.527a.667.667,0,0,0-.94-.005l-3.11,3.1V.659a.664.664,0,0,0-1.328,0V9.621l-3.11-3.1a.672.672,0,0,0-.94.005A.661.661,0,0,0,.2,7.456l4.238,4.208h0a.745.745,0,0,0,.209.138.634.634,0,0,0,.255.051.666.666,0,0,0,.465-.189L9.6,7.456A.65.65,0,0,0,9.617,6.527Z" transform="translate(769.804 519.653) rotate(180)" fill="#7868E6"/>
  </g>
</svg>
