<svg id="Gruppe_109" data-name="Gruppe 109" xmlns="http://www.w3.org/2000/svg" xmlns:xlink="http://www.w3.org/1999/xlink" width="39.269" height="39.269" viewBox="0 0 39.269 39.269">
  <defs>
    <clipPath id="clip-path">
      <ellipse id="Ellipse_41" data-name="Ellipse 41" cx="19.635" cy="19.635" rx="19.635" ry="19.635" fill="#132342"/>
    </clipPath>
  </defs>
  <g id="Gruppe_107" data-name="Gruppe 107" transform="translate(0 0)">
    <g id="Gruppe_106" data-name="Gruppe 106">
      <g id="Gruppe_105" data-name="Gruppe 105">
        <ellipse id="Ellipse_40" data-name="Ellipse 40" cx="19.635" cy="19.635" rx="19.635" ry="19.635" fill="#132342"/>
        <g id="Gruppe_104" data-name="Gruppe 104" clip-path="url(#clip-path)">
          <path id="Pfad_443" data-name="Pfad 443" d="M-486.653,54.048l9.411,13.441h-9.411Z" transform="translate(486.653 -28.22)" fill="#132342"/>
          <path id="Pfad_444" data-name="Pfad 444" d="M-486.653,52.086l9.708,13.864h-.3l-9.411-13.441Z" transform="translate(486.653 -26.681)" fill="#132342"/>
          <path id="Pfad_445" data-name="Pfad 445" d="M-486.653,50.123l10,14.288h-.3l-9.708-13.864Z" transform="translate(486.653 -25.142)" fill="#132342"/>
          <path id="Pfad_446" data-name="Pfad 446" d="M-486.653,48.161l10.3,14.711h-.3l-10-14.288Z" transform="translate(486.653 -23.603)" fill="#132342"/>
          <path id="Pfad_447" data-name="Pfad 447" d="M-486.653,46.2l10.6,15.135h-.3l-10.3-14.711Z" transform="translate(486.653 -22.065)" fill="#132342"/>
          <path id="Pfad_448" data-name="Pfad 448" d="M-486.653,44.237-475.759,59.8h-.3l-10.6-15.135Z" transform="translate(486.653 -20.526)" fill="#132342"/>
          <path id="Pfad_449" data-name="Pfad 449" d="M-486.653,42.275l11.191,15.982h-.3L-486.653,42.7Z" transform="translate(486.653 -18.987)" fill="#132342"/>
          <path id="Pfad_450" data-name="Pfad 450" d="M-486.653,40.312l11.487,16.405h-.3l-11.191-15.982Z" transform="translate(486.653 -17.449)" fill="#132342"/>
          <path id="Pfad_451" data-name="Pfad 451" d="M-486.653,38.35l11.784,16.829h-.3l-11.487-16.405Z" transform="translate(486.653 -15.91)" fill="#132342"/>
          <path id="Pfad_452" data-name="Pfad 452" d="M-486.653,36.388l12.08,17.252h-.3l-11.784-16.829Z" transform="translate(486.653 -14.371)" fill="#132342"/>
          <path id="Pfad_453" data-name="Pfad 453" d="M-486.653,34.426-474.276,52.1h-.3l-12.08-17.252Z" transform="translate(486.653 -12.832)" fill="#132342"/>
          <path id="Pfad_454" data-name="Pfad 454" d="M-486.653,32.464l12.673,18.1h-.3l-12.377-17.676Z" transform="translate(486.653 -11.294)" fill="#132342"/>
          <path id="Pfad_455" data-name="Pfad 455" d="M-486.653,30.5l12.97,18.523h-.3l-12.673-18.1Z" transform="translate(486.653 -9.755)" fill="#132342"/>
          <path id="Pfad_456" data-name="Pfad 456" d="M-486.653,28.539l13.266,18.946h-.3l-12.97-18.523Z" transform="translate(486.653 -8.216)" fill="#132342"/>
          <path id="Pfad_457" data-name="Pfad 457" d="M-486.653,26.577l13.563,19.37h-.3L-486.653,27Z" transform="translate(486.653 -6.677)" fill="#132342"/>
          <path id="Pfad_458" data-name="Pfad 458" d="M-486.653,24.615l13.859,19.793h-.3l-13.563-19.37Z" transform="translate(486.653 -5.139)" fill="#132342"/>
          <path id="Pfad_459" data-name="Pfad 459" d="M-486.653,22.652-472.5,42.869h-.3l-13.859-19.793Z" transform="translate(486.653 -3.6)" fill="#132342"/>
          <path id="Pfad_460" data-name="Pfad 460" d="M-486.653,20.69-472.2,41.33h-.3l-14.156-20.217Z" transform="translate(486.653 -2.061)" fill="#132342"/>
          <path id="Pfad_461" data-name="Pfad 461" d="M-486.653,18.728-471.9,39.792h-.3l-14.452-20.64Z" transform="translate(486.653 -0.523)" fill="#132342"/>
          <path id="Pfad_462" data-name="Pfad 462" d="M-486.653,16.766l15.045,21.487h-.3l-14.749-21.064Z" transform="translate(486.653 1.016)" fill="#132342"/>
          <path id="Pfad_463" data-name="Pfad 463" d="M-486.653,14.8l15.342,21.911h-.3l-15.045-21.487Z" transform="translate(486.653 2.555)" fill="#132342"/>
          <path id="Pfad_464" data-name="Pfad 464" d="M-486.653,12.841l15.638,22.334h-.3l-15.342-21.911Z" transform="translate(486.653 4.094)" fill="#132342"/>
          <path id="Pfad_465" data-name="Pfad 465" d="M-486.653,10.879l15.935,22.758h-.3L-486.653,11.3Z" transform="translate(486.653 5.632)" fill="#132342"/>
          <path id="Pfad_466" data-name="Pfad 466" d="M-486.653,8.917-470.422,32.1h-.3L-486.653,9.34Z" transform="translate(486.653 7.171)" fill="#132342"/>
          <path id="Pfad_467" data-name="Pfad 467" d="M-486.653,6.955l16.528,23.6h-.3L-486.653,7.378Z" transform="translate(486.653 8.71)" fill="#132342"/>
          <path id="Pfad_468" data-name="Pfad 468" d="M-486.653,4.993l16.825,24.028h-.3l-16.528-23.6Z" transform="translate(486.653 10.249)" fill="#132342"/>
          <path id="Pfad_469" data-name="Pfad 469" d="M-486.653,3.03l17.121,24.451h-.3L-486.653,3.454Z" transform="translate(486.653 11.787)" fill="#132342"/>
          <path id="Pfad_470" data-name="Pfad 470" d="M-486.653,1.068l17.418,24.875h-.3L-486.653,1.492Z" transform="translate(486.653 13.326)" fill="#132342"/>
          <path id="Pfad_471" data-name="Pfad 471" d="M-486.653-.894l17.714,25.3h-.3L-486.653-.471Z" transform="translate(486.653 14.865)" fill="#132342"/>
          <path id="Pfad_472" data-name="Pfad 472" d="M-486.653-2.856l18.011,25.722h-.3l-17.714-25.3Z" transform="translate(486.653 16.403)" fill="#132342"/>
          <path id="Pfad_473" data-name="Pfad 473" d="M-486.653-4.819l18.307,26.145h-.3L-486.653-4.4Z" transform="translate(486.653 17.942)" fill="#132342"/>
          <path id="Pfad_474" data-name="Pfad 474" d="M-486.653-6.781l18.6,26.569h-.3L-486.653-6.357Z" transform="translate(486.653 19.481)" fill="#132342"/>
          <path id="Pfad_475" data-name="Pfad 475" d="M-486.653-8.743l18.9,26.992h-.3l-18.6-26.569Z" transform="translate(486.653 21.02)" fill="#132342"/>
          <path id="Pfad_476" data-name="Pfad 476" d="M-486.653-10.705l19.2,27.416h-.3l-18.9-26.992Z" transform="translate(486.653 22.558)" fill="#132342"/>
          <path id="Pfad_477" data-name="Pfad 477" d="M-486.653-12.667l19.493,27.839h-.3l-19.2-27.416Z" transform="translate(486.653 24.097)" fill="#132342"/>
          <path id="Pfad_478" data-name="Pfad 478" d="M-486.653-14.63l19.79,28.263h-.3l-19.493-27.839Z" transform="translate(486.653 25.636)" fill="#132342"/>
          <path id="Pfad_479" data-name="Pfad 479" d="M-486.653-16.592l20.086,28.686h-.3l-19.79-28.263Z" transform="translate(486.653 27.175)" fill="#132342"/>
          <path id="Pfad_480" data-name="Pfad 480" d="M-486.653-18.554l20.383,29.11h-.3l-20.086-28.686Z" transform="translate(486.653 28.713)" fill="#132342"/>
          <path id="Pfad_481" data-name="Pfad 481" d="M-486.653-20.516l20.679,29.533h-.3l-20.383-29.11Z" transform="translate(486.653 30.252)" fill="#132342"/>
          <path id="Pfad_482" data-name="Pfad 482" d="M-486.653-22.479l20.976,29.957h-.3l-20.679-29.533Z" transform="translate(486.653 31.791)" fill="#132342"/>
          <path id="Pfad_483" data-name="Pfad 483" d="M-486.653-24.441l21.272,30.38h-.3l-20.976-29.957Z" transform="translate(486.653 33.33)" fill="#132342"/>
          <path id="Pfad_484" data-name="Pfad 484" d="M-486.653-26.4l21.569,30.8h-.3l-21.272-30.38Z" transform="translate(486.653 34.868)" fill="#132342"/>
          <path id="Pfad_485" data-name="Pfad 485" d="M-486.653-28.365l21.866,31.227h-.3l-21.569-30.8Z" transform="translate(486.653 36.407)" fill="#132342"/>
          <path id="Pfad_486" data-name="Pfad 486" d="M-486.653-30.327l22.162,31.651h-.3L-486.653-29.9Z" transform="translate(486.653 37.946)" fill="#132342"/>
          <path id="Pfad_487" data-name="Pfad 487" d="M-486.653-32.29-464.194-.215h-.3l-22.162-31.651Z" transform="translate(486.653 39.484)" fill="#132342"/>
          <path id="Pfad_488" data-name="Pfad 488" d="M-486.653-34.252l22.755,32.5h-.3l-22.459-32.074Z" transform="translate(486.653 41.023)" fill="#132342"/>
          <path id="Pfad_489" data-name="Pfad 489" d="M-486.653-36.214-463.6-3.293h-.3l-22.755-32.5Z" transform="translate(486.653 42.562)" fill="#132342"/>
          <path id="Pfad_490" data-name="Pfad 490" d="M-486.653-38.176-463.3-4.832h-.3l-23.052-32.921Z" transform="translate(486.653 44.101)" fill="#132342"/>
          <path id="Pfad_491" data-name="Pfad 491" d="M-486.653-40.138-463.008-6.37h-.3l-23.348-33.345Z" transform="translate(486.653 45.639)" fill="#132342"/>
          <path id="Pfad_492" data-name="Pfad 492" d="M-486.653-41.808l.04-.028,23.9,34.135h-.3L-486.653-41.47Z" transform="translate(486.653 46.971)" fill="#132342"/>
          <path id="Pfad_493" data-name="Pfad 493" d="M-486.468-42.343l.2-.139,24,34.274h-.3Z" transform="translate(486.508 47.477)" fill="#132342"/>
          <path id="Pfad_494" data-name="Pfad 494" d="M-485.546-42.988l.2-.139,24.1,34.413h-.3Z" transform="translate(485.785 47.983)" fill="#132342"/>
          <path id="Pfad_495" data-name="Pfad 495" d="M-484.624-43.634l.2-.139L-460.231-9.22h-.3Z" transform="translate(485.062 48.49)" fill="#132342"/>
          <path id="Pfad_496" data-name="Pfad 496" d="M-483.7-44.279l.2-.139,24.291,34.692h-.3Z" transform="translate(484.339 48.996)" fill="#132342"/>
          <path id="Pfad_497" data-name="Pfad 497" d="M-482.78-44.925l.2-.139,24.389,34.831h-.3Z" transform="translate(483.616 49.502)" fill="#132342"/>
          <path id="Pfad_498" data-name="Pfad 498" d="M-481.858-45.57l.2-.139,24.487,34.971h-.3Z" transform="translate(482.893 50.008)" fill="#132342"/>
          <path id="Pfad_499" data-name="Pfad 499" d="M-480.936-46.216l.2-.139,24.584,35.11h-.3Z" transform="translate(482.17 50.514)" fill="#132342"/>
          <path id="Pfad_500" data-name="Pfad 500" d="M-480.014-46.861l.2-.139,24.682,35.249h-.3Z" transform="translate(481.447 51.021)" fill="#132342"/>
          <path id="Pfad_501" data-name="Pfad 501" d="M-479.092-47.507l.2-.139,24.779,35.389h-.3Z" transform="translate(480.724 51.527)" fill="#132342"/>
          <path id="Pfad_502" data-name="Pfad 502" d="M-478.171-48.153l.2-.139,24.877,35.528h-.3Z" transform="translate(480.001 52.033)" fill="#132342"/>
          <path id="Pfad_503" data-name="Pfad 503" d="M-477.249-48.8l.2-.139,24.974,35.667h-.3Z" transform="translate(479.278 52.539)" fill="#132342"/>
          <path id="Pfad_504" data-name="Pfad 504" d="M-476.327-49.444l.2-.139,25.072,35.806h-.3Z" transform="translate(478.555 53.046)" fill="#132342"/>
          <path id="Pfad_505" data-name="Pfad 505" d="M-475.4-50.089l.2-.139,25.169,35.946h-.3Z" transform="translate(477.832 53.552)" fill="#132342"/>
          <path id="Pfad_506" data-name="Pfad 506" d="M-474.483-50.735l.2-.139,25.267,36.085h-.3Z" transform="translate(477.109 54.058)" fill="#132342"/>
          <path id="Pfad_507" data-name="Pfad 507" d="M-473.561-51.38l.2-.139L-448-15.3h-.3Z" transform="translate(476.386 54.564)" fill="#132342"/>
          <path id="Pfad_508" data-name="Pfad 508" d="M-472.639-52.026l.2-.139L-446.978-15.8h-.3Z" transform="translate(475.663 55.07)" fill="#132342"/>
          <path id="Pfad_509" data-name="Pfad 509" d="M-471.717-52.671l.2-.139,25.56,36.5h-.3Z" transform="translate(474.941 55.577)" fill="#132342"/>
          <path id="Pfad_510" data-name="Pfad 510" d="M-470.795-53.317l.2-.139,25.657,36.642h-.3Z" transform="translate(474.217 56.083)" fill="#132342"/>
          <path id="Pfad_511" data-name="Pfad 511" d="M-469.873-53.962l.2-.139,25.755,36.782h-.3Z" transform="translate(473.494 56.589)" fill="#132342"/>
          <path id="Pfad_512" data-name="Pfad 512" d="M-468.951-54.608l.2-.139L-442.9-17.826h-.3Z" transform="translate(472.772 57.095)" fill="#132342"/>
          <path id="Pfad_513" data-name="Pfad 513" d="M-468.029-55.254l.2-.139,25.95,37.06h-.3Z" transform="translate(472.049 57.602)" fill="#132342"/>
          <path id="Pfad_514" data-name="Pfad 514" d="M-467.107-55.9l.2-.139,26.048,37.2h-.3Z" transform="translate(471.326 58.108)" fill="#132342"/>
          <path id="Pfad_515" data-name="Pfad 515" d="M-466.185-56.545l.2-.139,26.145,37.339h-.3Z" transform="translate(470.603 58.614)" fill="#132342"/>
          <path id="Pfad_516" data-name="Pfad 516" d="M-465.263-57.19l.2-.139,26.243,37.478h-.3Z" transform="translate(469.88 59.12)" fill="#132342"/>
          <path id="Pfad_517" data-name="Pfad 517" d="M-464.341-57.836l.2-.139,26.34,37.618h-.3Z" transform="translate(469.157 59.626)" fill="#132342"/>
          <path id="Pfad_518" data-name="Pfad 518" d="M-463.419-58.162l.074-.052,26.376,37.669h-.11Z" transform="translate(468.434 59.814)" fill="#132342"/>
          <path id="Pfad_519" data-name="Pfad 519" d="M-463.078-58.4l.074-.052,26.412,37.721h-.11Z" transform="translate(468.166 60.001)" fill="#132342"/>
          <path id="Pfad_520" data-name="Pfad 520" d="M-462.737-58.64l.074-.052,26.448,37.772h-.11Z" transform="translate(467.899 60.188)" fill="#132342"/>
          <path id="Pfad_521" data-name="Pfad 521" d="M-462.4-58.879l.074-.052,26.485,37.824h-.11Z" transform="translate(467.631 60.376)" fill="#132342"/>
          <path id="Pfad_522" data-name="Pfad 522" d="M-462.055-59.118l.074-.052L-435.463-21.3l0,0h-.1Z" transform="translate(467.364 60.563)" fill="#132342"/>
          <rect id="Rechteck_101" data-name="Rechteck 101" width="0.09" height="46.234" transform="translate(5.382 1.394) rotate(-35)" fill="#132342"/>
          <rect id="Rechteck_102" data-name="Rechteck 102" width="0.09" height="46.234" transform="matrix(0.819, -0.574, 0.574, 0.819, 5.456, 1.342)" fill="#132342"/>
          <rect id="Rechteck_103" data-name="Rechteck 103" width="0.09" height="46.234" transform="translate(5.53 1.291) rotate(-35)" fill="#132342"/>
          <rect id="Rechteck_104" data-name="Rechteck 104" width="0.09" height="46.234" transform="translate(5.603 1.239) rotate(-35)" fill="#132342"/>
          <rect id="Rechteck_105" data-name="Rechteck 105" width="0.09" height="46.234" transform="matrix(0.819, -0.574, 0.574, 0.819, 5.677, 1.187)" fill="#132342"/>
          <rect id="Rechteck_106" data-name="Rechteck 106" width="0.09" height="46.234" transform="matrix(0.819, -0.574, 0.574, 0.819, 5.75, 1.136)" fill="#132342"/>
          <rect id="Rechteck_107" data-name="Rechteck 107" width="0.09" height="46.234" transform="translate(5.824 1.084) rotate(-35)" fill="#132342"/>
          <rect id="Rechteck_108" data-name="Rechteck 108" width="0.09" height="46.234" transform="matrix(0.819, -0.574, 0.574, 0.819, 5.898, 1.033)" fill="#132342"/>
          <rect id="Rechteck_109" data-name="Rechteck 109" width="0.09" height="46.234" transform="translate(5.971 0.981) rotate(-35)" fill="#132342"/>
          <rect id="Rechteck_110" data-name="Rechteck 110" width="0.09" height="46.234" transform="matrix(0.819, -0.574, 0.574, 0.819, 6.045, 0.93)" fill="#132342"/>
          <rect id="Rechteck_111" data-name="Rechteck 111" width="0.09" height="46.234" transform="translate(6.118 0.878) rotate(-35)" fill="#132342"/>
          <rect id="Rechteck_112" data-name="Rechteck 112" width="0.09" height="46.234" transform="translate(6.192 0.827) rotate(-35)" fill="#132342"/>
          <rect id="Rechteck_113" data-name="Rechteck 113" width="0.09" height="46.234" transform="matrix(0.819, -0.574, 0.574, 0.819, 6.266, 0.775)" fill="#132342"/>
          <rect id="Rechteck_114" data-name="Rechteck 114" width="0.09" height="46.234" transform="matrix(0.819, -0.574, 0.574, 0.819, 6.339, 0.724)" fill="#132342"/>
          <rect id="Rechteck_115" data-name="Rechteck 115" width="0.09" height="46.234" transform="translate(6.413 0.672) rotate(-35)" fill="#132342"/>
          <rect id="Rechteck_116" data-name="Rechteck 116" width="0.09" height="46.234" transform="matrix(0.819, -0.574, 0.574, 0.819, 6.487, 0.621)" fill="#132342"/>
          <rect id="Rechteck_117" data-name="Rechteck 117" width="0.09" height="46.234" transform="translate(6.56 0.569) rotate(-35)" fill="#132342"/>
          <rect id="Rechteck_118" data-name="Rechteck 118" width="0.09" height="46.234" transform="matrix(0.819, -0.574, 0.574, 0.819, 6.634, 0.517)" fill="#132342"/>
          <rect id="Rechteck_119" data-name="Rechteck 119" width="0.09" height="46.234" transform="translate(6.707 0.466) rotate(-35)" fill="#132342"/>
          <rect id="Rechteck_120" data-name="Rechteck 120" width="0.09" height="46.234" transform="translate(6.781 0.414) rotate(-35)" fill="#132342"/>
          <rect id="Rechteck_121" data-name="Rechteck 121" width="0.09" height="46.234" transform="matrix(0.819, -0.574, 0.574, 0.819, 6.855, 0.363)" fill="#132342"/>
          <rect id="Rechteck_122" data-name="Rechteck 122" width="0.09" height="46.234" transform="matrix(0.819, -0.574, 0.574, 0.819, 6.928, 0.311)" fill="#132342"/>
          <rect id="Rechteck_123" data-name="Rechteck 123" width="0.09" height="46.234" transform="translate(7.002 0.26) rotate(-35)" fill="#132342"/>
          <rect id="Rechteck_124" data-name="Rechteck 124" width="0.09" height="46.234" transform="matrix(0.819, -0.574, 0.574, 0.819, 7.075, 0.208)" fill="#132342"/>
          <rect id="Rechteck_125" data-name="Rechteck 125" width="0.09" height="46.234" transform="matrix(0.819, -0.574, 0.574, 0.819, 7.149, 0.157)" fill="#132342"/>
          <rect id="Rechteck_126" data-name="Rechteck 126" width="0.09" height="46.234" transform="translate(7.223 0.105) rotate(-35)" fill="#132342"/>
          <rect id="Rechteck_127" data-name="Rechteck 127" width="0.09" height="46.234" transform="translate(7.296 0.054) rotate(-35)" fill="#132342"/>
          <path id="Pfad_523" data-name="Pfad 523" d="M-452.5-65.625l0,0h.105L-425.913-27.8l-.074.052Z" transform="translate(459.875 65.627)" fill="#132342"/>
          <path id="Pfad_524" data-name="Pfad 524" d="M-451.893-65.627l26.448,37.771-.074.052L-452-65.627Z" transform="translate(459.481 65.627)" fill="#132342"/>
          <path id="Pfad_525" data-name="Pfad 525" d="M-451.385-65.627l26.412,37.72-.074.052-26.448-37.771Z" transform="translate(459.083 65.627)" fill="#132342"/>
          <path id="Pfad_526" data-name="Pfad 526" d="M-450.877-65.627-424.5-27.959l-.074.052-26.412-37.72Z" transform="translate(458.684 65.627)" fill="#132342"/>
          <path id="Pfad_527" data-name="Pfad 527" d="M-450.368-65.627l26.339,37.617-.074.052-26.376-37.668Z" transform="translate(458.285 65.627)" fill="#132342"/>
          <path id="Pfad_528" data-name="Pfad 528" d="M-449.86-65.627l26.3,37.565-.074.052L-449.97-65.627Z" transform="translate(457.887 65.627)" fill="#132342"/>
          <path id="Pfad_529" data-name="Pfad 529" d="M-449.352-65.627l26.267,37.513-.074.052-26.3-37.565Z" transform="translate(457.488 65.627)" fill="#132342"/>
          <path id="Pfad_530" data-name="Pfad 530" d="M-448.843-65.627l26.231,37.462-.074.052-26.267-37.513Z" transform="translate(457.09 65.627)" fill="#132342"/>
          <path id="Pfad_531" data-name="Pfad 531" d="M-448.335-65.627l26.2,37.41-.074.052-26.231-37.462Z" transform="translate(456.691 65.627)" fill="#132342"/>
          <path id="Pfad_532" data-name="Pfad 532" d="M-447.827-65.627l26.159,37.359-.074.052-26.2-37.41Z" transform="translate(456.292 65.627)" fill="#132342"/>
          <path id="Pfad_533" data-name="Pfad 533" d="M-447.319-65.627-421.2-28.319l-.074.052-26.159-37.359Z" transform="translate(455.894 65.627)" fill="#132342"/>
          <path id="Pfad_534" data-name="Pfad 534" d="M-446.81-65.627l26.087,37.256-.074.052L-446.92-65.627Z" transform="translate(455.495 65.627)" fill="#132342"/>
          <path id="Pfad_535" data-name="Pfad 535" d="M-446.3-65.627l26.051,37.2-.074.052-26.087-37.256Z" transform="translate(455.097 65.627)" fill="#132342"/>
          <path id="Pfad_536" data-name="Pfad 536" d="M-445.794-65.627l26.015,37.153-.074.052-26.051-37.2Z" transform="translate(454.698 65.627)" fill="#132342"/>
          <path id="Pfad_537" data-name="Pfad 537" d="M-445.285-65.627l25.978,37.1-.074.052L-445.4-65.627Z" transform="translate(454.299 65.627)" fill="#132342"/>
          <path id="Pfad_538" data-name="Pfad 538" d="M-444.777-65.627l25.942,37.05-.074.052-25.978-37.1Z" transform="translate(453.901 65.627)" fill="#132342"/>
          <path id="Pfad_539" data-name="Pfad 539" d="M-444.269-65.627l25.906,37-.074.052-25.942-37.05Z" transform="translate(453.502 65.627)" fill="#132342"/>
          <path id="Pfad_540" data-name="Pfad 540" d="M-443.76-65.627l25.87,36.947-.074.052-25.906-37Z" transform="translate(453.103 65.627)" fill="#132342"/>
          <path id="Pfad_541" data-name="Pfad 541" d="M-443.252-65.627l25.834,36.895-.074.052-25.87-36.947Z" transform="translate(452.705 65.627)" fill="#132342"/>
          <path id="Pfad_542" data-name="Pfad 542" d="M-442.744-65.627l25.8,36.843-.074.052-25.834-36.895Z" transform="translate(452.306 65.627)" fill="#132342"/>
          <path id="Pfad_543" data-name="Pfad 543" d="M-442.235-65.627l25.762,36.792-.074.052-25.8-36.843Z" transform="translate(451.908 65.627)" fill="#132342"/>
          <path id="Pfad_544" data-name="Pfad 544" d="M-441.727-65.627-416-28.886l-.074.052-25.762-36.792Z" transform="translate(451.509 65.627)" fill="#132342"/>
          <path id="Pfad_545" data-name="Pfad 545" d="M-441.219-65.627l25.69,36.689-.074.052-25.726-36.74Z" transform="translate(451.11 65.627)" fill="#132342"/>
          <path id="Pfad_546" data-name="Pfad 546" d="M-440.711-65.627l25.654,36.637-.074.052-25.69-36.689Z" transform="translate(450.712 65.627)" fill="#132342"/>
          <path id="Pfad_547" data-name="Pfad 547" d="M-440.2-65.627l25.618,36.586-.074.052-25.654-36.637Z" transform="translate(450.313 65.627)" fill="#132342"/>
          <path id="Pfad_548" data-name="Pfad 548" d="M-439.694-65.627l25.581,36.534-.074.052L-439.8-65.627Z" transform="translate(449.915 65.627)" fill="#132342"/>
          <path id="Pfad_549" data-name="Pfad 549" d="M-439.186-65.627l25.545,36.483-.074.052L-439.3-65.627Z" transform="translate(449.516 65.627)" fill="#132342"/>
          <path id="Pfad_550" data-name="Pfad 550" d="M-438.677-65.627-413.168-29.2l-.074.052-25.545-36.483Z" transform="translate(449.117 65.627)" fill="#132342"/>
          <path id="Pfad_551" data-name="Pfad 551" d="M-438.169-65.627l25.473,36.38-.074.052-25.509-36.431Z" transform="translate(448.719 65.627)" fill="#132342"/>
          <path id="Pfad_552" data-name="Pfad 552" d="M-437.661-65.627-412.224-29.3l-.074.052-25.473-36.38Z" transform="translate(448.32 65.627)" fill="#132342"/>
          <path id="Pfad_553" data-name="Pfad 553" d="M-437.152-65.627l25.4,36.276-.074.052-25.437-36.328Z" transform="translate(447.922 65.627)" fill="#132342"/>
          <path id="Pfad_554" data-name="Pfad 554" d="M-436.644-65.627-411.279-29.4l-.074.052-25.4-36.276Z" transform="translate(447.523 65.627)" fill="#132342"/>
          <path id="Pfad_555" data-name="Pfad 555" d="M-436.136-65.627l25.329,36.173-.074.052-25.365-36.225Z" transform="translate(447.124 65.627)" fill="#132342"/>
          <path id="Pfad_556" data-name="Pfad 556" d="M-435.627-65.627-410.335-29.5l-.074.052-25.329-36.173Z" transform="translate(446.726 65.627)" fill="#132342"/>
          <path id="Pfad_557" data-name="Pfad 557" d="M-435.119-65.627l25.257,36.07-.074.052-25.293-36.122Z" transform="translate(446.327 65.627)" fill="#132342"/>
          <path id="Pfad_558" data-name="Pfad 558" d="M-434.611-65.627l25.221,36.019-.074.052-25.257-36.07Z" transform="translate(445.929 65.627)" fill="#132342"/>
          <path id="Pfad_559" data-name="Pfad 559" d="M-434.1-65.627l25.184,35.967-.074.052-25.221-36.019Z" transform="translate(445.53 65.627)" fill="#132342"/>
          <path id="Pfad_560" data-name="Pfad 560" d="M-433.594-65.627l25.148,35.916-.074.052L-433.7-65.627Z" transform="translate(445.131 65.627)" fill="#132342"/>
          <path id="Pfad_561" data-name="Pfad 561" d="M-433.086-65.627l25.112,35.864-.074.052L-433.2-65.627Z" transform="translate(444.733 65.627)" fill="#132342"/>
          <path id="Pfad_562" data-name="Pfad 562" d="M-432.578-65.627-407.5-29.814l-.074.052-25.112-35.864Z" transform="translate(444.334 65.627)" fill="#132342"/>
          <path id="Pfad_563" data-name="Pfad 563" d="M-432.069-65.627l25.04,35.761-.074.052-25.076-35.813Z" transform="translate(443.935 65.627)" fill="#132342"/>
          <path id="Pfad_564" data-name="Pfad 564" d="M-431.561-65.627l25,35.709-.074.052-25.04-35.761Z" transform="translate(443.537 65.627)" fill="#132342"/>
          <path id="Pfad_565" data-name="Pfad 565" d="M-431.053-65.627l24.968,35.658-.074.052-25-35.709Z" transform="translate(443.138 65.627)" fill="#132342"/>
          <path id="Pfad_566" data-name="Pfad 566" d="M-430.544-65.627l24.932,35.606-.074.052-24.968-35.658Z" transform="translate(442.74 65.627)" fill="#132342"/>
          <path id="Pfad_567" data-name="Pfad 567" d="M-430.036-65.627l24.9,35.555-.074.052-24.932-35.606Z" transform="translate(442.341 65.627)" fill="#132342"/>
          <path id="Pfad_568" data-name="Pfad 568" d="M-429.528-65.627l24.86,35.5-.074.052-24.9-35.555Z" transform="translate(441.943 65.627)" fill="#132342"/>
          <path id="Pfad_569" data-name="Pfad 569" d="M-429.019-65.627-404.2-30.175l-.074.052-24.86-35.5Z" transform="translate(441.544 65.627)" fill="#132342"/>
          <path id="Pfad_570" data-name="Pfad 570" d="M-428.511-65.627l24.787,35.4-.074.052-24.824-35.452Z" transform="translate(441.145 65.627)" fill="#132342"/>
          <path id="Pfad_571" data-name="Pfad 571" d="M-428-65.627l24.751,35.349-.074.052-24.787-35.4Z" transform="translate(440.747 65.627)" fill="#132342"/>
          <path id="Pfad_572" data-name="Pfad 572" d="M-427.494-65.627l24.715,35.3-.074.052L-427.6-65.627Z" transform="translate(440.348 65.627)" fill="#132342"/>
          <path id="Pfad_573" data-name="Pfad 573" d="M-426.986-65.627l24.679,35.246-.074.052-24.715-35.3Z" transform="translate(439.95 65.627)" fill="#132342"/>
          <path id="Pfad_574" data-name="Pfad 574" d="M-426.478-65.627l24.643,35.194-.074.052-24.679-35.246Z" transform="translate(439.551 65.627)" fill="#132342"/>
          <path id="Pfad_575" data-name="Pfad 575" d="M-425.969-65.627l24.607,35.142-.074.052-24.643-35.194Z" transform="translate(439.152 65.627)" fill="#132342"/>
          <path id="Pfad_576" data-name="Pfad 576" d="M-425.461-65.627l24.571,35.091-.074.052-24.607-35.142Z" transform="translate(438.754 65.627)" fill="#132342"/>
          <path id="Pfad_577" data-name="Pfad 577" d="M-424.953-65.627l24.535,35.039-.074.052-24.571-35.091Z" transform="translate(438.355 65.627)" fill="#132342"/>
          <path id="Pfad_578" data-name="Pfad 578" d="M-424.445-65.627l24.5,34.988-.074.052-24.535-35.039Z" transform="translate(437.956 65.627)" fill="#132342"/>
          <path id="Pfad_579" data-name="Pfad 579" d="M-423.936-65.627l24.463,34.936-.074.052-24.5-34.988Z" transform="translate(437.558 65.627)" fill="#132342"/>
          <path id="Pfad_580" data-name="Pfad 580" d="M-423.428-65.627-399-30.742l-.074.052-24.463-34.936Z" transform="translate(437.159 65.627)" fill="#132342"/>
          <path id="Pfad_581" data-name="Pfad 581" d="M-422.92-65.627l24.39,34.833-.074.052-24.427-34.885Z" transform="translate(436.761 65.627)" fill="#132342"/>
          <path id="Pfad_582" data-name="Pfad 582" d="M-422.411-65.627l24.354,34.782-.074.052-24.39-34.833Z" transform="translate(436.362 65.627)" fill="#132342"/>
          <path id="Pfad_583" data-name="Pfad 583" d="M-421.9-65.627l24.318,34.73-.074.052-24.354-34.782Z" transform="translate(435.963 65.627)" fill="#132342"/>
          <path id="Pfad_584" data-name="Pfad 584" d="M-421.395-65.627l24.282,34.679-.074.052L-421.5-65.627Z" transform="translate(435.565 65.627)" fill="#132342"/>
          <path id="Pfad_585" data-name="Pfad 585" d="M-420.886-65.627-396.64-31l-.074.052L-421-65.627Z" transform="translate(435.166 65.627)" fill="#132342"/>
          <path id="Pfad_586" data-name="Pfad 586" d="M-420.378-65.627l24.21,34.575-.074.052-24.246-34.627Z" transform="translate(434.768 65.627)" fill="#132342"/>
          <path id="Pfad_587" data-name="Pfad 587" d="M-419.87-65.627-395.7-31.1l-.074.052-24.21-34.575Z" transform="translate(434.369 65.627)" fill="#132342"/>
          <path id="Pfad_588" data-name="Pfad 588" d="M-419.362-65.627l24.138,34.472-.074.052-24.174-34.524Z" transform="translate(433.97 65.627)" fill="#132342"/>
          <path id="Pfad_589" data-name="Pfad 589" d="M-418.853-65.627l24.1,34.421-.074.052-24.138-34.472Z" transform="translate(433.572 65.627)" fill="#132342"/>
          <path id="Pfad_590" data-name="Pfad 590" d="M-418.345-65.627l24.066,34.369-.074.052-24.1-34.421Z" transform="translate(433.173 65.627)" fill="#132342"/>
          <path id="Pfad_591" data-name="Pfad 591" d="M-417.837-65.627l24.03,34.318-.074.052-24.066-34.369Z" transform="translate(432.775 65.627)" fill="#132342"/>
          <path id="Pfad_592" data-name="Pfad 592" d="M-417.328-65.627l23.993,34.266-.074.052-24.029-34.318Z" transform="translate(432.376 65.627)" fill="#132342"/>
          <path id="Pfad_593" data-name="Pfad 593" d="M-416.82-65.627l23.957,34.215-.074.052L-416.93-65.627Z" transform="translate(431.977 65.627)" fill="#132342"/>
          <path id="Pfad_594" data-name="Pfad 594" d="M-416.312-65.627l23.921,34.163-.074.052-23.957-34.215Z" transform="translate(431.579 65.627)" fill="#132342"/>
          <path id="Pfad_595" data-name="Pfad 595" d="M-415.8-65.627l23.885,34.112-.074.052-23.921-34.163Z" transform="translate(431.18 65.627)" fill="#132342"/>
          <path id="Pfad_596" data-name="Pfad 596" d="M-415.3-65.627l23.783,33.965v.142l-.007,0L-415.4-65.627Z" transform="translate(430.782 65.627)" fill="#132342"/>
          <path id="Pfad_597" data-name="Pfad 597" d="M-414.787-65.627l23.673,33.808v.157L-414.9-65.627Z" transform="translate(430.383 65.627)" fill="#132342"/>
          <path id="Pfad_598" data-name="Pfad 598" d="M-414.279-65.627l23.563,33.652v.157l-23.673-33.808Z" transform="translate(429.984 65.627)" fill="#132342"/>
          <path id="Pfad_599" data-name="Pfad 599" d="M-413.77-65.627l23.453,33.495v.157L-413.88-65.627Z" transform="translate(429.586 65.627)" fill="#132342"/>
          <path id="Pfad_600" data-name="Pfad 600" d="M-413.262-65.627l23.344,33.338v.157l-23.453-33.495Z" transform="translate(429.187 65.627)" fill="#132342"/>
          <path id="Pfad_601" data-name="Pfad 601" d="M-412.754-65.627l23.234,33.182v.157l-23.344-33.338Z" transform="translate(428.789 65.627)" fill="#132342"/>
          <path id="Pfad_602" data-name="Pfad 602" d="M-412.245-65.627-389.121-32.6v.157l-23.234-33.182Z" transform="translate(428.39 65.627)" fill="#132342"/>
          <path id="Pfad_603" data-name="Pfad 603" d="M-411.737-65.627l23.015,32.868v.157l-23.124-33.025Z" transform="translate(427.991 65.627)" fill="#132342"/>
          <path id="Pfad_604" data-name="Pfad 604" d="M-411.229-65.627l22.9,32.712v.157l-23.015-32.868Z" transform="translate(427.593 65.627)" fill="#132342"/>
          <path id="Pfad_605" data-name="Pfad 605" d="M-410.72-65.627l22.8,32.555v.157l-22.9-32.712Z" transform="translate(427.194 65.627)" fill="#132342"/>
          <path id="Pfad_606" data-name="Pfad 606" d="M-410.212-65.627l22.685,32.4v.157l-22.8-32.555Z" transform="translate(426.795 65.627)" fill="#132342"/>
          <path id="Pfad_607" data-name="Pfad 607" d="M-409.7-65.627l22.576,32.242v.157l-22.685-32.4Z" transform="translate(426.397 65.627)" fill="#132342"/>
          <path id="Pfad_608" data-name="Pfad 608" d="M-409.2-65.627l22.466,32.085v.157l-22.576-32.242Z" transform="translate(425.998 65.627)" fill="#132342"/>
          <path id="Pfad_609" data-name="Pfad 609" d="M-408.687-65.627-386.331-33.7v.157L-408.8-65.627Z" transform="translate(425.6 65.627)" fill="#132342"/>
          <path id="Pfad_610" data-name="Pfad 610" d="M-408.179-65.627l22.247,31.772v.157l-22.356-31.928Z" transform="translate(425.201 65.627)" fill="#132342"/>
          <path id="Pfad_611" data-name="Pfad 611" d="M-407.67-65.627l22.137,31.615v.157L-407.78-65.627Z" transform="translate(424.802 65.627)" fill="#132342"/>
          <path id="Pfad_612" data-name="Pfad 612" d="M-407.162-65.627l22.027,31.458v.157l-22.137-31.615Z" transform="translate(424.404 65.627)" fill="#132342"/>
          <path id="Pfad_613" data-name="Pfad 613" d="M-406.654-65.627l21.918,31.3v.157l-22.027-31.458Z" transform="translate(424.005 65.627)" fill="#132342"/>
          <path id="Pfad_614" data-name="Pfad 614" d="M-406.146-65.627l21.808,31.145v.157l-21.918-31.3Z" transform="translate(423.607 65.627)" fill="#132342"/>
          <path id="Pfad_615" data-name="Pfad 615" d="M-405.637-65.627l21.7,30.988v.157l-21.808-31.145Z" transform="translate(423.208 65.627)" fill="#132342"/>
          <path id="Pfad_616" data-name="Pfad 616" d="M-405.129-65.627-383.54-34.8v.157l-21.7-30.988Z" transform="translate(422.809 65.627)" fill="#132342"/>
          <path id="Pfad_617" data-name="Pfad 617" d="M-404.621-65.627l21.479,30.675v.157L-404.73-65.627Z" transform="translate(422.411 65.627)" fill="#132342"/>
          <path id="Pfad_618" data-name="Pfad 618" d="M-404.112-65.627l21.369,30.518v.157l-21.479-30.675Z" transform="translate(422.012 65.627)" fill="#132342"/>
          <path id="Pfad_619" data-name="Pfad 619" d="M-403.6-65.627l21.259,30.362v.157l-21.369-30.518Z" transform="translate(421.614 65.627)" fill="#132342"/>
          <path id="Pfad_620" data-name="Pfad 620" d="M-403.1-65.627l21.15,30.2v.157l-21.259-30.362Z" transform="translate(421.215 65.627)" fill="#132342"/>
          <path id="Pfad_621" data-name="Pfad 621" d="M-402.587-65.627l21.04,30.048v.157l-21.15-30.2Z" transform="translate(420.816 65.627)" fill="#132342"/>
          <path id="Pfad_622" data-name="Pfad 622" d="M-402.079-65.627l20.93,29.892v.157l-21.04-30.048Z" transform="translate(420.418 65.627)" fill="#132342"/>
          <path id="Pfad_623" data-name="Pfad 623" d="M-401.571-65.627l20.821,29.735v.157l-20.93-29.892Z" transform="translate(420.019 65.627)" fill="#132342"/>
          <path id="Pfad_624" data-name="Pfad 624" d="M-401.062-65.627l20.711,29.578v.157l-20.821-29.735Z" transform="translate(419.621 65.627)" fill="#132342"/>
          <path id="Pfad_625" data-name="Pfad 625" d="M-400.554-65.627l20.6,29.421v.157l-20.711-29.578Z" transform="translate(419.222 65.627)" fill="#132342"/>
          <path id="Pfad_626" data-name="Pfad 626" d="M-400.046-65.627l20.491,29.265v.157l-20.6-29.421Z" transform="translate(418.823 65.627)" fill="#132342"/>
          <path id="Pfad_627" data-name="Pfad 627" d="M-399.537-65.627l20.382,29.108v.157l-20.491-29.265Z" transform="translate(418.425 65.627)" fill="#132342"/>
          <path id="Pfad_628" data-name="Pfad 628" d="M-399.029-65.627l20.272,28.951v.157l-20.382-29.108Z" transform="translate(418.026 65.627)" fill="#132342"/>
          <path id="Pfad_629" data-name="Pfad 629" d="M-398.521-65.627l20.162,28.795v.157l-20.272-28.951Z" transform="translate(417.628 65.627)" fill="#132342"/>
          <path id="Pfad_630" data-name="Pfad 630" d="M-398.013-65.627l20.053,28.638v.157l-20.162-28.795Z" transform="translate(417.229 65.627)" fill="#132342"/>
          <path id="Pfad_631" data-name="Pfad 631" d="M-397.5-65.627l19.943,28.481v.157l-20.053-28.638Z" transform="translate(416.83 65.627)" fill="#132342"/>
          <path id="Pfad_632" data-name="Pfad 632" d="M-397-65.627-377.163-37.3v.157l-19.943-28.481Z" transform="translate(416.432 65.627)" fill="#132342"/>
          <path id="Pfad_633" data-name="Pfad 633" d="M-396.488-65.627l19.724,28.168v.157L-396.6-65.627Z" transform="translate(416.033 65.627)" fill="#132342"/>
          <path id="Pfad_634" data-name="Pfad 634" d="M-395.979-65.627l19.614,28.011v.157l-19.724-28.168Z" transform="translate(415.635 65.627)" fill="#132342"/>
          <path id="Pfad_635" data-name="Pfad 635" d="M-395.471-65.627l19.5,27.855v.157l-19.614-28.011Z" transform="translate(415.236 65.627)" fill="#132342"/>
          <path id="Pfad_636" data-name="Pfad 636" d="M-394.963-65.627l19.394,27.7v.157l-19.5-27.855Z" transform="translate(414.837 65.627)" fill="#132342"/>
          <path id="Pfad_637" data-name="Pfad 637" d="M-394.454-65.627l19.285,27.541v.157l-19.394-27.7Z" transform="translate(414.439 65.627)" fill="#132342"/>
          <path id="Pfad_638" data-name="Pfad 638" d="M-393.946-65.627l19.175,27.385v.157l-19.285-27.541Z" transform="translate(414.04 65.627)" fill="#132342"/>
          <path id="Pfad_639" data-name="Pfad 639" d="M-393.438-65.627-374.372-38.4v.157l-19.175-27.385Z" transform="translate(413.642 65.627)" fill="#132342"/>
          <path id="Pfad_640" data-name="Pfad 640" d="M-392.929-65.627l18.956,27.071v.157l-19.065-27.228Z" transform="translate(413.243 65.627)" fill="#132342"/>
          <path id="Pfad_641" data-name="Pfad 641" d="M-392.421-65.627l18.846,26.915v.157l-18.956-27.071Z" transform="translate(412.844 65.627)" fill="#132342"/>
          <path id="Pfad_642" data-name="Pfad 642" d="M-391.913-65.627l18.736,26.758v.157l-18.846-26.915Z" transform="translate(412.446 65.627)" fill="#132342"/>
          <path id="Pfad_643" data-name="Pfad 643" d="M-391.4-65.627l18.626,26.6v.157l-18.736-26.758Z" transform="translate(412.047 65.627)" fill="#132342"/>
          <path id="Pfad_644" data-name="Pfad 644" d="M-390.9-65.627l18.517,26.445v.157l-18.627-26.6Z" transform="translate(411.649 65.627)" fill="#132342"/>
          <path id="Pfad_645" data-name="Pfad 645" d="M-390.388-65.627l18.407,26.288v.157L-390.5-65.627Z" transform="translate(411.25 65.627)" fill="#132342"/>
          <path id="Pfad_646" data-name="Pfad 646" d="M-389.88-65.627l18.3,26.131v.157l-18.407-26.288Z" transform="translate(410.851 65.627)" fill="#132342"/>
          <path id="Pfad_647" data-name="Pfad 647" d="M-389.371-65.627l18.188,25.975v.157l-18.3-26.131Z" transform="translate(410.453 65.627)" fill="#132342"/>
          <path id="Pfad_648" data-name="Pfad 648" d="M-388.863-65.627l18.078,25.818v.157l-18.188-25.975Z" transform="translate(410.054 65.627)" fill="#132342"/>
          <path id="Pfad_649" data-name="Pfad 649" d="M-388.355-65.627l17.968,25.661v.157l-18.078-25.818Z" transform="translate(409.655 65.627)" fill="#132342"/>
          <path id="Pfad_650" data-name="Pfad 650" d="M-387.846-65.627l17.859,25.5v.157l-17.968-25.661Z" transform="translate(409.257 65.627)" fill="#132342"/>
          <path id="Pfad_651" data-name="Pfad 651" d="M-387.338-65.627l17.749,25.348v.157l-17.859-25.5Z" transform="translate(408.858 65.627)" fill="#132342"/>
          <path id="Pfad_652" data-name="Pfad 652" d="M-386.83-65.627l17.639,25.191v.157l-17.749-25.348Z" transform="translate(408.46 65.627)" fill="#132342"/>
          <path id="Pfad_653" data-name="Pfad 653" d="M-386.321-65.627l17.529,25.035v.157l-17.639-25.191Z" transform="translate(408.061 65.627)" fill="#132342"/>
          <path id="Pfad_654" data-name="Pfad 654" d="M-385.813-65.627l17.42,24.878v.157l-17.529-25.035Z" transform="translate(407.662 65.627)" fill="#132342"/>
          <path id="Pfad_655" data-name="Pfad 655" d="M-385.3-65.627l17.31,24.721v.157l-17.42-24.878Z" transform="translate(407.264 65.627)" fill="#132342"/>
          <path id="Pfad_656" data-name="Pfad 656" d="M-384.8-65.627l17.2,24.565v.157l-17.31-24.721Z" transform="translate(406.865 65.627)" fill="#132342"/>
          <path id="Pfad_657" data-name="Pfad 657" d="M-384.288-65.627-367.2-41.219v.157l-17.2-24.565Z" transform="translate(406.467 65.627)" fill="#132342"/>
          <path id="Pfad_658" data-name="Pfad 658" d="M-383.78-65.627-366.8-41.376v.157L-383.89-65.627Z" transform="translate(406.068 65.627)" fill="#132342"/>
          <path id="Pfad_659" data-name="Pfad 659" d="M-383.272-65.627-366.4-41.532v.157l-16.981-24.251Z" transform="translate(405.669 65.627)" fill="#132342"/>
          <path id="Pfad_660" data-name="Pfad 660" d="M-382.763-65.627-366-41.689v.157l-16.871-24.095Z" transform="translate(405.271 65.627)" fill="#132342"/>
          <path id="Pfad_661" data-name="Pfad 661" d="M-382.255-65.627-365.6-41.846v.157l-16.762-23.938Z" transform="translate(404.872 65.627)" fill="#132342"/>
          <path id="Pfad_662" data-name="Pfad 662" d="M-381.747-65.627-365.2-42v.157l-16.652-23.781Z" transform="translate(404.474 65.627)" fill="#132342"/>
          <path id="Pfad_663" data-name="Pfad 663" d="M-381.238-65.627l16.432,23.468V-42l-16.542-23.625Z" transform="translate(404.075 65.627)" fill="#132342"/>
          <path id="Pfad_664" data-name="Pfad 664" d="M-380.73-65.627l16.323,23.311v.157L-380.84-65.627Z" transform="translate(403.676 65.627)" fill="#132342"/>
          <path id="Pfad_665" data-name="Pfad 665" d="M-380.222-65.627l16.213,23.155v.157l-16.323-23.311Z" transform="translate(403.278 65.627)" fill="#132342"/>
          <path id="Pfad_666" data-name="Pfad 666" d="M-379.713-65.627l16.1,23v.157l-16.213-23.155Z" transform="translate(402.879 65.627)" fill="#132342"/>
          <path id="Pfad_667" data-name="Pfad 667" d="M-379.205-65.627l15.994,22.841v.157l-16.1-23Z" transform="translate(402.481 65.627)" fill="#132342"/>
          <path id="Pfad_668" data-name="Pfad 668" d="M-378.7-65.627l15.884,22.685v.157l-15.994-22.841Z" transform="translate(402.082 65.627)" fill="#132342"/>
          <path id="Pfad_669" data-name="Pfad 669" d="M-378.188-65.627-362.414-43.1v.157L-378.3-65.627Z" transform="translate(401.683 65.627)" fill="#132342"/>
          <path id="Pfad_670" data-name="Pfad 670" d="M-377.68-65.627l15.664,22.371v.157L-377.79-65.627Z" transform="translate(401.285 65.627)" fill="#132342"/>
          <path id="Pfad_671" data-name="Pfad 671" d="M-377.172-65.627l15.555,22.215v.157l-15.664-22.371Z" transform="translate(400.886 65.627)" fill="#132342"/>
          <path id="Pfad_672" data-name="Pfad 672" d="M-376.664-65.627l15.445,22.058v.157l-15.555-22.215Z" transform="translate(400.488 65.627)" fill="#132342"/>
          <path id="Pfad_673" data-name="Pfad 673" d="M-376.155-65.627l15.335,21.9v.157l-15.445-22.058Z" transform="translate(400.089 65.627)" fill="#132342"/>
          <path id="Pfad_674" data-name="Pfad 674" d="M-375.647-65.627l15.226,21.745v.157l-15.335-21.9Z" transform="translate(399.69 65.627)" fill="#132342"/>
          <path id="Pfad_675" data-name="Pfad 675" d="M-375.139-65.627l15.116,21.588v.157l-15.226-21.745Z" transform="translate(399.292 65.627)" fill="#132342"/>
          <path id="Pfad_676" data-name="Pfad 676" d="M-374.63-65.627-359.624-44.2v.157L-374.74-65.627Z" transform="translate(398.893 65.627)" fill="#132342"/>
          <path id="Pfad_677" data-name="Pfad 677" d="M-374.122-65.627l14.9,21.274v.157l-15.006-21.431Z" transform="translate(398.494 65.627)" fill="#132342"/>
          <path id="Pfad_678" data-name="Pfad 678" d="M-373.614-65.627l14.787,21.118v.157l-14.9-21.274Z" transform="translate(398.096 65.627)" fill="#132342"/>
          <path id="Pfad_679" data-name="Pfad 679" d="M-373.105-65.627l14.677,20.961v.157l-14.787-21.118Z" transform="translate(397.697 65.627)" fill="#132342"/>
          <path id="Pfad_680" data-name="Pfad 680" d="M-372.6-65.627l14.567,20.8v.157l-14.677-20.961Z" transform="translate(397.299 65.627)" fill="#132342"/>
          <path id="Pfad_681" data-name="Pfad 681" d="M-372.089-65.627l14.458,20.648v.157l-14.567-20.8Z" transform="translate(396.9 65.627)" fill="#132342"/>
          <path id="Pfad_682" data-name="Pfad 682" d="M-371.58-65.627l14.348,20.491v.157L-371.69-65.627Z" transform="translate(396.501 65.627)" fill="#132342"/>
          <path id="Pfad_683" data-name="Pfad 683" d="M-371.072-65.627l14.238,20.334v.157l-14.348-20.491Z" transform="translate(396.103 65.627)" fill="#132342"/>
          <path id="Pfad_684" data-name="Pfad 684" d="M-370.564-65.627l14.129,20.178v.157l-14.238-20.334Z" transform="translate(395.704 65.627)" fill="#132342"/>
          <path id="Pfad_685" data-name="Pfad 685" d="M-370.055-65.627l14.019,20.021v.157l-14.129-20.178Z" transform="translate(395.306 65.627)" fill="#132342"/>
          <path id="Pfad_686" data-name="Pfad 686" d="M-369.547-65.627l13.909,19.864v.157l-14.019-20.021Z" transform="translate(394.907 65.627)" fill="#132342"/>
          <path id="Pfad_687" data-name="Pfad 687" d="M-369.039-65.627l13.8,19.708v.157l-13.909-19.864Z" transform="translate(394.508 65.627)" fill="#132342"/>
          <path id="Pfad_688" data-name="Pfad 688" d="M-368.531-65.627l13.69,19.551v.157l-13.8-19.708Z" transform="translate(394.11 65.627)" fill="#132342"/>
          <path id="Pfad_689" data-name="Pfad 689" d="M-368.022-65.627l13.58,19.394v.157l-13.69-19.551Z" transform="translate(393.711 65.627)" fill="#132342"/>
          <path id="Pfad_690" data-name="Pfad 690" d="M-367.514-65.627l13.47,19.238v.157l-13.58-19.394Z" transform="translate(393.313 65.627)" fill="#132342"/>
          <path id="Pfad_691" data-name="Pfad 691" d="M-367.006-65.627l13.361,19.081v.157l-13.47-19.238Z" transform="translate(392.914 65.627)" fill="#132342"/>
          <path id="Pfad_692" data-name="Pfad 692" d="M-366.5-65.627-353.246-46.7v.157l-13.361-19.081Z" transform="translate(392.515 65.627)" fill="#132342"/>
          <path id="Pfad_693" data-name="Pfad 693" d="M-365.989-65.627l13.141,18.768v.157L-366.1-65.627Z" transform="translate(392.117 65.627)" fill="#132342"/>
          <path id="Pfad_694" data-name="Pfad 694" d="M-365.481-65.627l13.032,18.611v.157L-365.59-65.627Z" transform="translate(391.718 65.627)" fill="#132342"/>
          <path id="Pfad_695" data-name="Pfad 695" d="M-364.972-65.627l12.922,18.454v.157l-13.032-18.611Z" transform="translate(391.32 65.627)" fill="#132342"/>
          <path id="Pfad_696" data-name="Pfad 696" d="M-364.464-65.627l12.812,18.3v.157l-12.922-18.454Z" transform="translate(390.921 65.627)" fill="#132342"/>
          <path id="Pfad_697" data-name="Pfad 697" d="M-363.956-65.627l12.7,18.141v.157l-12.812-18.3Z" transform="translate(390.522 65.627)" fill="#132342"/>
          <path id="Pfad_698" data-name="Pfad 698" d="M-363.447-65.627l12.593,17.984v.157l-12.7-18.141Z" transform="translate(390.124 65.627)" fill="#132342"/>
          <path id="Pfad_699" data-name="Pfad 699" d="M-362.939-65.627-350.456-47.8v.157l-12.593-17.984Z" transform="translate(389.725 65.627)" fill="#132342"/>
          <path id="Pfad_700" data-name="Pfad 700" d="M-362.431-65.627l12.373,17.671v.157l-12.483-17.828Z" transform="translate(389.327 65.627)" fill="#132342"/>
          <path id="Pfad_701" data-name="Pfad 701" d="M-361.923-65.627l12.264,17.514v.157l-12.373-17.671Z" transform="translate(388.928 65.627)" fill="#132342"/>
          <path id="Pfad_702" data-name="Pfad 702" d="M-361.414-65.627l12.154,17.358v.157l-12.264-17.514Z" transform="translate(388.529 65.627)" fill="#132342"/>
          <path id="Pfad_703" data-name="Pfad 703" d="M-360.906-65.627l12.044,17.2v.157l-12.154-17.358Z" transform="translate(388.131 65.627)" fill="#132342"/>
          <path id="Pfad_704" data-name="Pfad 704" d="M-360.4-65.627l11.935,17.044v.157l-12.044-17.2Z" transform="translate(387.732 65.627)" fill="#132342"/>
          <path id="Pfad_705" data-name="Pfad 705" d="M-359.889-65.627l11.825,16.888v.157L-360-65.627Z" transform="translate(387.333 65.627)" fill="#132342"/>
          <path id="Pfad_706" data-name="Pfad 706" d="M-359.381-65.627-347.666-48.9v.157l-11.825-16.888Z" transform="translate(386.935 65.627)" fill="#132342"/>
          <path id="Pfad_707" data-name="Pfad 707" d="M-358.873-65.627l11.605,16.574v.157l-11.715-16.731Z" transform="translate(386.536 65.627)" fill="#132342"/>
          <path id="Pfad_708" data-name="Pfad 708" d="M-358.364-65.627l11.5,16.418v.157l-11.605-16.574Z" transform="translate(386.138 65.627)" fill="#132342"/>
          <path id="Pfad_709" data-name="Pfad 709" d="M-357.856-65.627l11.386,16.261v.157l-11.5-16.418Z" transform="translate(385.739 65.627)" fill="#132342"/>
          <path id="Pfad_710" data-name="Pfad 710" d="M-357.348-65.627l11.276,16.1v.157l-11.386-16.261Z" transform="translate(385.34 65.627)" fill="#132342"/>
          <path id="Pfad_711" data-name="Pfad 711" d="M-356.839-65.627l11.167,15.948v.157l-11.276-16.1Z" transform="translate(384.942 65.627)" fill="#132342"/>
          <path id="Pfad_712" data-name="Pfad 712" d="M-356.331-65.627l11.057,15.791v.157l-11.167-15.948Z" transform="translate(384.543 65.627)" fill="#132342"/>
          <path id="Pfad_713" data-name="Pfad 713" d="M-355.823-65.627l10.947,15.634v.157l-11.057-15.791Z" transform="translate(384.145 65.627)" fill="#132342"/>
          <path id="Pfad_714" data-name="Pfad 714" d="M-355.315-65.627l10.837,15.478v.157l-10.947-15.634Z" transform="translate(383.746 65.627)" fill="#132342"/>
          <path id="Pfad_715" data-name="Pfad 715" d="M-354.806-65.627l10.728,15.321v.157l-10.838-15.478Z" transform="translate(383.347 65.627)" fill="#132342"/>
          <path id="Pfad_716" data-name="Pfad 716" d="M-354.3-65.627l10.618,15.164v.157l-10.728-15.321Z" transform="translate(382.949 65.627)" fill="#132342"/>
          <path id="Pfad_717" data-name="Pfad 717" d="M-353.79-65.627l10.508,15.008v.157L-353.9-65.627Z" transform="translate(382.55 65.627)" fill="#132342"/>
          <path id="Pfad_718" data-name="Pfad 718" d="M-353.281-65.627l10.4,14.851v.157l-10.508-15.008Z" transform="translate(382.152 65.627)" fill="#132342"/>
          <path id="Pfad_719" data-name="Pfad 719" d="M-352.773-65.627l10.289,14.694v.157l-10.4-14.851Z" transform="translate(381.753 65.627)" fill="#132342"/>
          <path id="Pfad_720" data-name="Pfad 720" d="M-352.265-65.627l10.179,14.538v.157l-10.289-14.694Z" transform="translate(381.354 65.627)" fill="#132342"/>
          <path id="Pfad_721" data-name="Pfad 721" d="M-351.756-65.627l10.07,14.381v.157l-10.179-14.538Z" transform="translate(380.956 65.627)" fill="#132342"/>
          <path id="Pfad_722" data-name="Pfad 722" d="M-351.248-65.627l9.96,14.224v.157l-10.07-14.381Z" transform="translate(380.557 65.627)" fill="#132342"/>
          <path id="Pfad_723" data-name="Pfad 723" d="M-350.74-65.627l9.85,14.068v.157l-9.96-14.224Z" transform="translate(380.159 65.627)" fill="#132342"/>
          <path id="Pfad_724" data-name="Pfad 724" d="M-350.231-65.627l9.74,13.911v.157l-9.85-14.068Z" transform="translate(379.76 65.627)" fill="#132342"/>
          <path id="Pfad_725" data-name="Pfad 725" d="M-349.723-65.627l9.631,13.754v.157l-9.741-13.911Z" transform="translate(379.361 65.627)" fill="#132342"/>
          <path id="Pfad_726" data-name="Pfad 726" d="M-349.215-65.627l9.521,13.6v.157l-9.631-13.754Z" transform="translate(378.963 65.627)" fill="#132342"/>
          <path id="Pfad_727" data-name="Pfad 727" d="M-348.707-65.627l9.411,13.441v.157l-9.521-13.6Z" transform="translate(378.564 65.627)" fill="#132342"/>
          <path id="Pfad_728" data-name="Pfad 728" d="M-338.9-52.186l-9.411-13.441h9.411Z" transform="translate(378.166 65.627)" fill="#132342"/>
        </g>
      </g>
    </g>
  </g>
  <g id="anchor" transform="translate(6.765 4.059)">
    <g id="Gruppe_108" data-name="Gruppe 108">
      <path id="Pfad_729" data-name="Pfad 729" d="M-432.045-27.432a8.1,8.1,0,0,1-4.789,2.719,18.045,18.045,0,0,1,1.438,1.126,4.906,4.906,0,0,1-5.153.609c-.029-.02-.056-.041-.088-.061h0l-.008-.005h0a1.4,1.4,0,0,0-.321-.133q-.241-.126-.474-.272a.511.511,0,0,0-.039-.048,1.467,1.467,0,0,0-.295-.248h0l-.008-.006h0a1.386,1.386,0,0,0-.268-.125,8.283,8.283,0,0,1-.986-.9l1.45-5.282.19-.692a1.943,1.943,0,0,0,.226-.09l.123-.069a1.16,1.16,0,0,0,.168.063,1.355,1.355,0,0,0,.561.025h.012a1.638,1.638,0,0,0,.607-.249l.125-.1.007,0a1.241,1.241,0,0,0,.829-.17h0l.008,0h0a1.165,1.165,0,0,0,.141-.1c.011-.008.024-.015.034-.024a1.506,1.506,0,0,0,.214-.23h0a1.466,1.466,0,0,0,.14-.211l.027-.06c.017-.039.033-.078.047-.118l.013-.005a1.26,1.26,0,0,0,.588-.68v0h0l0-.008h0v0a1.322,1.322,0,0,0,.082-.386,1.655,1.655,0,0,0-.01-.317l-.034-.158,0-.005a1.282,1.282,0,0,0,.221-.79h0v0h0s0-.006,0-.009a1.53,1.53,0,0,0-.207-.677l-.1-.138a.064.064,0,0,1,0-.009,1.286,1.286,0,0,0-.119-.809h0v0h0l0-.008h0a1.545,1.545,0,0,0-.437-.518l-.132-.086a1.305,1.305,0,0,0-.33-.7h0a1.607,1.607,0,0,0-.511-.366l-.136-.052a1.268,1.268,0,0,0-.142-.309l2.68.736a1.378,1.378,0,0,0,.919.834,1.387,1.387,0,0,0,1.706-.97,1.388,1.388,0,0,0-.972-1.7,1.382,1.382,0,0,0-1.217.249l-1.723-.473a1.769,1.769,0,0,0,.23-.073,1.158,1.158,0,0,0,.187-.106h0a1.24,1.24,0,0,0,.807-.071,1.1,1.1,0,0,0,.1-.047h.005a2.169,2.169,0,0,0,.456-.348,1.016,1.016,0,0,0,.157-.208h.005a1.2,1.2,0,0,0,.728-.679v0h0c.011-.024.02-.05.029-.076s.009-.02.012-.032,0-.011.005-.017l0-.005h0l0,0h0a1.555,1.555,0,0,0,.064-.358,1.812,1.812,0,0,0-.01-.319,1.112,1.112,0,0,0-.067-.23,1.177,1.177,0,0,0,.07-.728c-.009-.047-.021-.095-.036-.144a.954.954,0,0,0-.041-.114h0v0h0a1.944,1.944,0,0,0-.349-.525.866.866,0,0,0-.185-.144,1.236,1.236,0,0,0-.477-.726,2.748,2.748,0,0,0-2-2.289,2.748,2.748,0,0,0-3.376,1.923,2.759,2.759,0,0,0-.082.441l.036,0a.817.817,0,0,1,.062-.077l.031-.033.04-.04c.014-.083.031-.166.054-.249a2.6,2.6,0,0,1,3.2-1.82,2.591,2.591,0,0,1,1.35.9,2.849,2.849,0,0,0-.807-.362,2.9,2.9,0,0,0-3.158,1.166l.026-.006c-.034.009-.066.017-.1.029s-.063.025-.1.039h0v0a2.3,2.3,0,0,0-.455.3.869.869,0,0,0-.136.153,1.231,1.231,0,0,0-.732.278,1,1,0,0,0-.084.071h0a2.1,2.1,0,0,0-.352.461h0c-.051-.019-.1-.034-.134-.044l-.083-.021-.16-.023-.005-.008a1.182,1.182,0,0,0-.678-.459l-.1-.024a1.324,1.324,0,0,0-.479,0,1.287,1.287,0,0,0-.366.121l-.055.032-.089.06-.006,0a1.734,1.734,0,0,0-.582-.061h0a1.7,1.7,0,0,0-.356.086l-.117.042-.022.008a1.211,1.211,0,0,0-.481-.318l-.007,0a1.66,1.66,0,0,0-.577-.087l-.316.025.188.19a1.212,1.212,0,0,1,.239.406c.037.09.07.185.1.277l.01.028c.025.068.051.139.08.208a1.346,1.346,0,0,0,.352.514,1.094,1.094,0,0,0,.426.223,1.438,1.438,0,0,0,.375.048,1.037,1.037,0,0,0,.118-.007h.006v0a1.669,1.669,0,0,0,.32-.068,1.79,1.79,0,0,0,.261-.1.714.714,0,0,0,.16-.111c.04.013.079.026.115.036a2.1,2.1,0,0,0,.317.063l.032,0,0,0h0v0h0c.02,0,.039,0,.063,0l.075-.005c.046,0,.093,0,.122,0h.024c.019,0,.04,0,.059,0h.013l.05-.006a1.1,1.1,0,0,0,.323.38,1.192,1.192,0,0,0,0,.2.871.871,0,0,0,.048.23,1.166,1.166,0,0,0-.133.681h0l-.142-.039-.085-.023a1.382,1.382,0,0,0-.921-.836,1.387,1.387,0,0,0-1.7.969,1.387,1.387,0,0,0,.971,1.7,1.38,1.38,0,0,0,1.217-.248l1.254.344.526.144h0a2.09,2.09,0,0,0,.174.119.851.851,0,0,0,.175.078,1.249,1.249,0,0,0,.381.594l.02.014v0l-.38,1.385-1.237,4.5-.066.241v0c-.06.023-.1.043-.121.051a.862.862,0,0,0-.166.1c-.014,0-.027-.011-.042-.016a1.26,1.26,0,0,0-.7.025h0a.919.919,0,0,0-.1.034h-.005v0a2.254,2.254,0,0,0-.479.285.85.85,0,0,0-.146.151,1.221,1.221,0,0,0-.757.288,1,1,0,0,0-.085.075h0a2.086,2.086,0,0,0-.347.474.869.869,0,0,0-.073.206,1.249,1.249,0,0,0-.559.578,1.01,1.01,0,0,0-.043.1l0,0h0v0h0a2.194,2.194,0,0,0-.12.543.818.818,0,0,0,.012.207l-.005,0c-.009.015-.02.029-.031.044a.564.564,0,0,0-.095.173l-.034.122a.952.952,0,0,0-.029.1,1.385,1.385,0,0,0-.036.448.936.936,0,0,0,.014.11.006.006,0,0,0,0,0h0v0h0a2.144,2.144,0,0,0,.187.541.974.974,0,0,0,.121.17,1.251,1.251,0,0,0,.118.778c.015.031.032.062.05.093a.008.008,0,0,1,0,0h0v0h0a2.271,2.271,0,0,0,.346.423.815.815,0,0,0,.164.117,1.246,1.246,0,0,0,.3.679h0l-.033-.046c-2.577.47-5.218-.329-6.318-3.081a18.092,18.092,0,0,1,1.81-.235,8.089,8.089,0,0,1-2.729-4.783,6.2,6.2,0,0,0-1.7,5.687,15.78,15.78,0,0,1,1.821-.512c.251,3.515,2.282,4.4,5.434,7.414.457.436,1.171,1.151,1.955,2.035,1.126-.359,2.105-.609,2.72-.751,1.518-.35,2.773-.54,3.853-.772,0,0,.268.161.334.2l.024.013a.746.746,0,0,0,.134.05l.008,0a1.208,1.208,0,0,0,.234.528h0c.013.016.028.033.042.05a.028.028,0,0,1,0,.006h0v0l0,0a3.293,3.293,0,0,0,.248.246l.034.032a.721.721,0,0,0,.111.079,1.172,1.172,0,0,0,.019.526c.005.019.012.039.019.058a.048.048,0,0,1,0,.005h0c.037.109.091.227.123.3.01.021.018.037.022.049a.717.717,0,0,0,.064.1,1.347,1.347,0,0,0-.183.3c-.01.023-.02.045-.027.067s0,.021-.007.031l0,0h0a1.457,1.457,0,0,0-.025.153.5.5,0,0,1-.01.07c0,.01,0,.023,0,.036a.7.7,0,0,0-.339-.011l-.014,0-.034.009h-.005v0c-.018,0-.035.008-.054.014l-.023.006c-.043.012-.094.026-.135.039-.1.032-.188.065-.216.076a.805.805,0,0,0-.154.086,1.135,1.135,0,0,0-.177-.067,1.3,1.3,0,0,0-.483-.035c-.028,0-.057.007-.086.013h0v0a2.891,2.891,0,0,0-.458.139.877.877,0,0,0-.191.113l-.092.073.106.049a2.954,2.954,0,0,1,.508.3c.079.07.157.148.233.224l.156.153a1.61,1.61,0,0,0,.679.419h0a1.349,1.349,0,0,0,.5.038,1.417,1.417,0,0,0,.515-.164h0a1.4,1.4,0,0,0,.228-.144l.053-.047c.037-.034.072-.07.106-.107h.021a1.2,1.2,0,0,0,.837-.65v0h0l.006-.01v0h0c.008-.017.014-.033.022-.05s.026-.055.036-.083a1.4,1.4,0,0,0,.06-.7l-.015-.062c-.01-.039-.021-.078-.033-.115a1.29,1.29,0,0,0,.109-.864v0a.046.046,0,0,1,0-.007c-.007-.034-.015-.068-.025-.1a1.614,1.614,0,0,0-.278-.524l-.115-.122s0-.006,0-.009a1.29,1.29,0,0,0-.232-.777v0h0l0-.007a1.552,1.552,0,0,0-.5-.449l-.007,0a5.945,5.945,0,0,0,2.931-2.361,15.787,15.787,0,0,1,1.305,1.37A6.2,6.2,0,0,0-432.045-27.432Zm-20.915-1.157a8.529,8.529,0,0,1-.325-2.784,9.057,9.057,0,0,0,1.744,2.564c-.34.042-.7.095-1.083.162Zm11.608-2.336.008-.029.047.007Zm1.422-.183a1.155,1.155,0,0,1-.114.021l-.022,0a.888.888,0,0,1-.454-.054l0,0-.005,0a.8.8,0,0,0,.284.133l.033.006a1.107,1.107,0,0,1-.125.029l-.036,0a.355.355,0,0,1-.046,0,.524.524,0,0,1-.1-.023.813.813,0,0,1-.2-.1l0,0,0,0a.836.836,0,0,0,.127.133,1.09,1.09,0,0,1-.257-.038,1.162,1.162,0,0,1-.427-.231l.228-.83a2.282,2.282,0,0,1,.374.285l.16.145a3.023,3.023,0,0,0,.262.213,1.508,1.508,0,0,0,.274.156c-.029.005-.058.011-.087.014h0a.878.878,0,0,1-.277-.023h0a.881.881,0,0,0,.269.1.958.958,0,0,0,.228.008C-439.869-31.14-439.9-31.124-439.931-31.107Zm1.493-.7a.947.947,0,0,1-.62.256h0a.745.745,0,0,0,.347,0l.035-.011a1.017,1.017,0,0,1-.122.087c-.016.009-.032.015-.049.024l-.04.014a.6.6,0,0,1-.12.021.772.772,0,0,1-.239-.022l0,0h0a.7.7,0,0,0,.17.082,1.021,1.021,0,0,1-.467.039,1,1,0,0,1-.127-.03l-.017-.006a1.014,1.014,0,0,1-.1-.039l-.025-.011c-.038-.018-.076-.038-.115-.061h0c-.043-.026-.086-.055-.132-.088s-.114-.088-.169-.133l-.25-.212a2.314,2.314,0,0,0-.325-.2.926.926,0,0,1,.11.006,1.107,1.107,0,0,1,.239.057l0,0h0a1.229,1.229,0,0,0-.223-.126,1.118,1.118,0,0,0-.107-.038l.008,0a.623.623,0,0,1,.109-.019.712.712,0,0,1,.127,0,.6.6,0,0,1,.249.084l0,0,0,0a.674.674,0,0,0-.235-.154l-.012,0c.035-.012.069-.022.1-.03h.039a.421.421,0,0,1,.091.016.708.708,0,0,1,.183.087l0,0,0,0a.843.843,0,0,0-.134-.131.966.966,0,0,1,.343.031,2.233,2.233,0,0,1,.371.153l.137.065c.065.031.132.06.2.085a1.608,1.608,0,0,0,.336.092,1.135,1.135,0,0,0,.334,0,.982.982,0,0,1-.087.065.83.83,0,0,1-.288.111h0a.8.8,0,0,0,.311-.041.921.921,0,0,0,.224-.112C-438.4-31.866-438.415-31.838-438.437-31.808Zm.862-1.535c0,.012,0,.025,0,.038a.013.013,0,0,1,0,0,.989.989,0,0,1-.327.557l0,0,0,0a.786.786,0,0,0,.273-.213c.008-.009.014-.019.021-.029,0,.007,0,.014-.006.021a1.147,1.147,0,0,1-.036.122c-.006.016-.015.03-.022.045s-.015.026-.023.037a.639.639,0,0,1-.082.093.785.785,0,0,1-.206.138h0l0,0a.7.7,0,0,0,.187-.045,1.045,1.045,0,0,1-.377.344.979.979,0,0,1-.589.092,1.951,1.951,0,0,1-.21-.044c-.1-.027-.193-.062-.3-.1s-.227-.067-.337-.1c.027-.008.055-.014.083-.019a1.286,1.286,0,0,1,.217-.014h0a1.751,1.751,0,0,0-.227-.055c-.032,0-.064-.008-.1-.01l.008-.008a.516.516,0,0,1,.047-.026c.01,0,.018-.011.028-.015a.567.567,0,0,1,.1-.03.579.579,0,0,1,.228,0l0,0h.005a.829.829,0,0,0-.246-.068h-.01l.064-.055.026-.01a.344.344,0,0,1,.073-.013.859.859,0,0,1,.178.013h0a1.363,1.363,0,0,0-.164-.065,1.017,1.017,0,0,1,.292-.1c.063-.014.13-.026.2-.038.094-.017.193-.035.294-.058.069-.016.141-.035.21-.058a1.772,1.772,0,0,0,.319-.133,1.5,1.5,0,0,0,.264-.18.769.769,0,0,1-.028.089.862.862,0,0,1-.156.254l0,0,0,0a.857.857,0,0,0,.217-.214.959.959,0,0,0,.108-.2C-437.579-33.381-437.577-33.362-437.576-33.343Zm-.073-1.53a.826.826,0,0,1,.009.1.844.844,0,0,1-.047.289v0a.832.832,0,0,0,.119-.275.939.939,0,0,0,.022-.236c.015.03.03.061.044.1h0a.969.969,0,0,1-.085.622l0,0,0,0a.786.786,0,0,0,.166-.289c0-.011,0-.022.008-.032a.962.962,0,0,1,.017.139c0,.015,0,.028,0,.043a.391.391,0,0,1-.007.045.623.623,0,0,1-.037.11.807.807,0,0,1-.127.2l0,0,0,0a.766.766,0,0,0,.151-.113,1.054,1.054,0,0,1-.173.43,1.189,1.189,0,0,1-.441.365c-.064.032-.13.064-.194.091-.1.041-.2.076-.3.107-.047.016-.1.038-.158.061s-.112.045-.164.063h0c.016-.021.033-.041.051-.062a1.591,1.591,0,0,1,.16-.145h0l0,0c-.074.03-.146.063-.211.1l-.079.046a.115.115,0,0,1,0-.012.477.477,0,0,1,.032-.072.566.566,0,0,1,.058-.085.634.634,0,0,1,.183-.15l0,0,0,0a.852.852,0,0,0-.238.108l-.007.006c.005-.03.011-.06.017-.087a.183.183,0,0,1,.014-.025.361.361,0,0,1,.053-.063.713.713,0,0,1,.158-.121h0l0,0a.866.866,0,0,0-.177.059,1.479,1.479,0,0,1,.535-.6l.066-.052c.057-.044.113-.09.167-.139a1.974,1.974,0,0,0,.242-.244A1.338,1.338,0,0,0-437.648-34.873Zm-.872-.527.046-.087c.034-.064.066-.129.1-.2a2.2,2.2,0,0,0,.125-.317,1.471,1.471,0,0,0,.061-.312.877.877,0,0,1,.042.082.87.87,0,0,1,.067.278v0a.868.868,0,0,0,0-.293.969.969,0,0,0-.065-.22c.022.018.046.04.073.067a.973.973,0,0,1,.161.593v0a.018.018,0,0,1,0,0,.8.8,0,0,0,.039-.326c0-.011,0-.022-.005-.034a1.072,1.072,0,0,1,.069.119c.005.011.009.021.014.032a.38.38,0,0,1,.013.05.556.556,0,0,1,.01.114.812.812,0,0,1-.036.23l0,0v0a.742.742,0,0,0,.093-.167,1.074,1.074,0,0,1,.017.467,1.147,1.147,0,0,1-.257.517c-.047.055-.1.108-.145.158-.065.064-.133.126-.2.186l-.038.035c-.072.071-.165.177-.242.264.006-.03.012-.06.021-.089l0-.012a1.225,1.225,0,0,1,.078-.186l.005-.012v0a1.642,1.642,0,0,0-.155.186c-.019.029-.037.057-.053.087l0-.01a.488.488,0,0,1,0-.079.63.63,0,0,1,.019-.125.6.6,0,0,1,.11-.218l0,0,0,0a.747.747,0,0,0-.178.2.064.064,0,0,0,0,.009c-.008-.033-.014-.064-.019-.094a.227.227,0,0,1,0-.031.422.422,0,0,1,.024-.081.78.78,0,0,1,.1-.164l0,0,0,0a.983.983,0,0,0-.14.118A1.556,1.556,0,0,1-438.521-35.4Zm-.372.941v0h0c.019.106.052.226.073.3.008.028.014.05.017.065a.779.779,0,0,0,.052.125,1.158,1.158,0,0,0-.265.477c0,.017-.008.035-.012.053l0,0h0c-.02.09-.032.191-.041.262,0,.031-.006.054-.01.071a.68.68,0,0,0,0,.1,1.038,1.038,0,0,0-.394.173h0l-.038.031h0v0c-.059.05-.127.114-.18.164-.033.032-.06.057-.077.071a.85.85,0,0,0-.085.1l-.017-.006a1.124,1.124,0,0,0-.478-.024c-.023,0-.045.005-.068.01s-.045.012-.067.018h-.009v0a3.573,3.573,0,0,0-.411.151.654.654,0,0,0-.077.041v0l.031-.114,1.063-3.87.037-.136h0a3.148,3.148,0,0,0,.32.246l.022.015a.739.739,0,0,0,.12.062l.016,0a1.22,1.22,0,0,0,.142.516c.006.012.011.024.018.037s.022.036.034.054a.049.049,0,0,0,0,.005h0v0h0a3.3,3.3,0,0,0,.2.266l.036.044a.729.729,0,0,0,.1.092,1.166,1.166,0,0,0-.059.519h0c0,.019.006.039.01.059v0ZM-439-37.574a.975.975,0,0,1,.281.507v0l0,0a.817.817,0,0,0-.039-.311c0-.01-.008-.02-.012-.03a1.053,1.053,0,0,1,.09.088l.023.029a.411.411,0,0,1,.022.039.538.538,0,0,1,.036.1.819.819,0,0,1,.026.22v0s0,0,0,0a.839.839,0,0,0,.043-.178,1.154,1.154,0,0,1,.084.974c-.023.069-.048.136-.073.2l-.129.3c-.036.1-.078.229-.113.342a.9.9,0,0,1-.017-.091,1.238,1.238,0,0,1-.006-.232v0s0,0,0,0a1.545,1.545,0,0,0-.064.237c-.005.035-.01.068-.013.1l-.007-.008a.566.566,0,0,1-.037-.08.639.639,0,0,1-.032-.118.616.616,0,0,1,.011-.252v0a.726.726,0,0,0-.081.261s0,.007,0,.011c-.021-.028-.04-.056-.057-.084a.266.266,0,0,1-.01-.03.407.407,0,0,1-.011-.088.743.743,0,0,1,.026-.2l0,0v0a.908.908,0,0,0-.083.167,1.51,1.51,0,0,1-.03-.911l.037-.213a3.132,3.132,0,0,0,.041-.334,1.743,1.743,0,0,0-.006-.312c.019.022.038.043.055.065a.887.887,0,0,1,.124.243v0l0,0a.9.9,0,0,0-.059-.275.976.976,0,0,0-.1-.189C-439.061-37.606-439.034-37.591-439-37.574Zm-.312.339-.071.541a3.075,3.075,0,0,0,0,.374.9.9,0,0,1-.05-.091,1.171,1.171,0,0,1-.079-.231v0a1.341,1.341,0,0,0,.011.255c.006.037.014.073.023.109l-.007,0a.6.6,0,0,1-.071-.08.66.66,0,0,1-.066-.108.619.619,0,0,1-.064-.259s0,0,0,0,0,0,0-.006a.7.7,0,0,0,0,.284l0,.012c-.028-.023-.056-.047-.081-.071a.307.307,0,0,1-.022-.033c0-.008-.007-.017-.011-.026l.38-1.383A1.329,1.329,0,0,1-439.316-37.235Zm4.164-1.678a.3.3,0,0,1,.237-.021.86.86,0,0,1,.466.39.852.852,0,0,1,.136.606.293.293,0,0,1-.121.188.3.3,0,0,1-.238.02.859.859,0,0,1-.466-.387C-435.332-38.434-435.338-38.8-435.152-38.913Zm-.576.343-.173.629-3.882-1.066-.554-.152.062-.226.111-.4.09.025-.009,0c.023.009.042.021.065.03s.063.022.1.031h.006a1.863,1.863,0,0,0,.2.04Zm-4.45-1.564,0,0a.659.659,0,0,0,.055.191,1.1,1.1,0,0,1-.574-.839l-.086-.537a2.669,2.669,0,0,0-.065-.292c.02.015.041.029.059.046a.909.909,0,0,1,.162.189v0l0,0a.992.992,0,0,0-.108-.236.935.935,0,0,0-.118-.148l.062.015.017.006a.946.946,0,0,1,.346.371v0l0,0a.883.883,0,0,0-.1-.265l-.012-.019c.031.015.065.029.091.045l.025.016a.3.3,0,0,1,.028.028.508.508,0,0,1,.054.074.884.884,0,0,1,.08.182.006.006,0,0,1,0,0l0,0a1.065,1.065,0,0,0-.011-.174,1.554,1.554,0,0,1,.439.768c.021.068.044.138.068.205a2.465,2.465,0,0,0,.125.312,1.386,1.386,0,0,0,.253.331.955.955,0,0,1-.124-.056,1,1,0,0,1-.223-.167l0,0,0,0a.967.967,0,0,0,.175.223,1.07,1.07,0,0,0,.1.085h0a.741.741,0,0,1-.139-.035.8.8,0,0,1-.139-.066.628.628,0,0,1-.217-.213l0,0,0,0a.622.622,0,0,0,.167.267l.013.011a1.255,1.255,0,0,1-.13-.032l-.044-.023a.566.566,0,0,1-.09-.07.679.679,0,0,1-.135-.191Zm-1.074-.631,0-.005a.641.641,0,0,0,.1.291l.008.011c-.042-.018-.081-.037-.117-.057a.413.413,0,0,1-.032-.027.537.537,0,0,1-.071-.084.7.7,0,0,1-.091-.209v0l0,0a.7.7,0,0,0,.014.2,1.139,1.139,0,0,1-.407-.913l-.007-.3c0-.082,0-.164-.006-.244a2.564,2.564,0,0,0-.03-.3c.019.018.038.036.056.055a.914.914,0,0,1,.139.211.973.973,0,0,0-.079-.251,1.15,1.15,0,0,0-.055-.1l.042-.02a.94.94,0,0,1,.293.412.865.865,0,0,0-.069-.28c0-.009-.009-.018-.013-.027a1.052,1.052,0,0,1,.09.064l.025.022a.294.294,0,0,1,.024.032.472.472,0,0,1,.045.083.87.87,0,0,1,.056.195.97.97,0,0,0,.012-.175,1.114,1.114,0,0,1,.154.226h0l.015.028a1.88,1.88,0,0,1,.151.588l.026.215a3.159,3.159,0,0,0,.055.33,1.765,1.765,0,0,0,.16.374.93.93,0,0,1-.1-.08,1.026,1.026,0,0,1-.173-.208v0l0,0a1.043,1.043,0,0,0,.114.253,1.042,1.042,0,0,0,.077.1l-.008,0c-.011,0-.021-.012-.032-.017a.758.758,0,0,1-.2-.137.62.62,0,0,1-.16-.248S-441.252-40.766-441.252-40.765Zm-2.115-.249a.01.01,0,0,0,0,0,.587.587,0,0,0-.038.057l-.137-.038s0-.01,0-.015a.662.662,0,0,1,.093-.241l0,0,0,0a.576.576,0,0,0-.138.164,1.015,1.015,0,0,1,.112-.552l.026-.046v0a1.024,1.024,0,0,1,.4-.366,2.113,2.113,0,0,1,.195-.09c.1-.038.2-.069.3-.1l.129-.035c.052-.014.1-.027.143-.04-.01.016-.019.031-.03.046a.973.973,0,0,1-.147.157h0l0,0a1.3,1.3,0,0,0,.2-.112.928.928,0,0,0,.118-.1c0,.022-.005.047-.008.07s-.024.043-.037.065a.841.841,0,0,1-.23.245h0l0,0a1.158,1.158,0,0,0,.222-.114l.013-.01a.633.633,0,0,1-.017.074c0,.007-.006.013-.008.02a.184.184,0,0,1-.018.025.392.392,0,0,1-.053.051,1.207,1.207,0,0,1-.144.1h0l0,0c.054-.013.106-.028.157-.044a1.31,1.31,0,0,1-.161.23c-.066.077-.142.156-.22.237l-.131.139a2.1,2.1,0,0,0-.143.166,1.837,1.837,0,0,0-.14.208l-.327-.09c.006-.02.009-.042.017-.061Zm.54.21c.063-.1.136-.193.185-.255.032-.041.062-.077.09-.112s.06-.073.086-.107c0,.018,0,.036,0,.053v.007a1,1,0,0,1-.024.194s0,.007,0,.011h0v0a1.47,1.47,0,0,0,.1-.21,1.006,1.006,0,0,0,.038-.14c0,.012.006.024.011.036s.018.032.027.048v0a.9.9,0,0,1-.037.377l0,0v0a1.248,1.248,0,0,0,.111-.227l.005-.016c.01.024.023.047.03.071,0,.006,0,.013,0,.019a.3.3,0,0,1,0,.034.477.477,0,0,1-.013.076,1.2,1.2,0,0,1-.059.17l0,0v0a1.563,1.563,0,0,0,.1-.132,1.323,1.323,0,0,1,.006.278l-.665-.183Zm.627-.739,0,0a1.065,1.065,0,0,0,.075.263,1.2,1.2,0,0,0,.059.112l0,0c-.011-.006-.021-.016-.031-.023a2.112,2.112,0,0,0-.12-.233l-.072-.112a1.293,1.293,0,0,0,.211-.338c0,.084,0,.174.009.265a2.388,2.388,0,0,0,.1.391,1.017,1.017,0,0,1-.089-.1,1.046,1.046,0,0,1-.138-.228S-442.2-41.543-442.2-41.542Zm.221.56a.843.843,0,0,0,.11.023,1.239,1.239,0,0,0,.481.53c.018.012.054.032.072.042l-.406-.112-.26-.071-.032-.009,0,0a1.425,1.425,0,0,0-.023-.423C-442.021-41-442-40.988-441.979-40.982Zm.676.6h0Zm-.324-2.233c.02-.013.038-.03.057-.045s.036-.027.054-.043a1.123,1.123,0,0,0,.093-.093,2.786,2.786,0,0,0,.606.772l-.03.11-.036-.009-.121-.019a1.289,1.289,0,0,0-.39-.515h0l-.008-.007A.945.945,0,0,0-441.627-42.613Zm-2.178,12.768.208-.758.44-1.6.095-.345,1.154-4.2.348-1.267.439-1.6.094-.343.076-.278.081.023.06.015a.843.843,0,0,0,.194.02,1.919,1.919,0,0,0,.15.171l-.109.4-.075.272-.463,1.686-.283,1.031-1.089,3.968-.128.467-.446,1.623-.065.236-1.321,4.811-.1-.03a1.315,1.315,0,0,0-.29-.547Zm4.241-14.915h0a.992.992,0,0,0-.252-.125,1.161,1.161,0,0,0-.13-.032h0a.684.684,0,0,1,.089-.017c.017,0,.032-.008.05-.01a.813.813,0,0,1,.152,0,.63.63,0,0,1,.287.1l0,0,.006,0a.635.635,0,0,0-.266-.168l-.017,0a1.262,1.262,0,0,1,.13-.027h.05a.566.566,0,0,1,.112.024.681.681,0,0,1,.206.112l0,0,0,0a.657.657,0,0,0-.132-.147,1.164,1.164,0,0,1,.259.035,1.14,1.14,0,0,1,.628.484c.041.06.08.12.116.18l.166.291c.053.093.1.172.144.24-.021-.006-.041-.012-.06-.02a.97.97,0,0,1-.2-.115v0l0,0a1.129,1.129,0,0,0,.171.179,1.023,1.023,0,0,0,.141.1l-.075.008a.946.946,0,0,1-.416-.213l0,0,0,0a.946.946,0,0,0,.18.2l.019.015a.956.956,0,0,1-.1-.009l-.024,0-.034-.015a.432.432,0,0,1-.072-.047.971.971,0,0,1-.137-.134v0l0,0a1.191,1.191,0,0,0,.077.155,1.715,1.715,0,0,1-.706-.51q-.074-.08-.151-.156a2.568,2.568,0,0,0-.249-.227,1.4,1.4,0,0,0-.368-.19h0a.906.906,0,0,1,.137,0,1,1,0,0,1,.271.055Zm.688,1a1.3,1.3,0,0,0,.39.184,1.3,1.3,0,0,0,.152.032h.007a1.667,1.667,0,0,0,.482-.012l.1-.019a1.5,1.5,0,0,0,.117.148l0,.008a1.435,1.435,0,0,1-.112.19c-.009.013-.019.025-.028.038a1.593,1.593,0,0,1-.108.13c-.014.015-.028.03-.042.045a1.527,1.527,0,0,1-.368.271c-.04.021-.081.04-.122.057h0c-.042.017-.085.033-.128.046l-.007,0q-.062.019-.127.033l-.016,0c-.04.008-.081.015-.121.02l-.031,0c-.036,0-.073.007-.11.008h-.05c-.031,0-.062,0-.094,0s-.052-.006-.078-.009-.046,0-.069-.008a1.509,1.509,0,0,1-.148-.033,1.453,1.453,0,0,1-.163-.055l-.009,0a1.581,1.581,0,0,1-.146-.069,1.514,1.514,0,0,1-.349-.259,1.537,1.537,0,0,1-.123-.14l-.014-.017a1.539,1.539,0,0,1-.138-.223c.061-.041.124-.088.192-.144l.084-.077c.027.009.054.02.083.028a1.289,1.289,0,0,0,.523.033,1.668,1.668,0,0,0,.485-.156Zm-.895,1.209-.293,1.068a1.334,1.334,0,0,0-.3-.251h0l-.007,0a1.253,1.253,0,0,0-.145-.072l.285-1.038a.256.256,0,0,1,.014-.033A1.7,1.7,0,0,0-439.771-42.547Zm1.51,2.714,0,0a.939.939,0,0,0,.251.148,1.072,1.072,0,0,0,.134.041h0a.745.745,0,0,1-.15.017.829.829,0,0,1-.161-.014.629.629,0,0,1-.288-.13l0,0,0,0a.611.611,0,0,0,.257.2l.015.006a1.237,1.237,0,0,1-.138.013.4.4,0,0,1-.053-.008.571.571,0,0,1-.115-.037.678.678,0,0,1-.2-.14l0,0,0,0a.638.638,0,0,0,.119.167c-.042-.007-.082-.014-.121-.025a.994.994,0,0,1-.366-.186,1.277,1.277,0,0,1-.327-.45c-.03-.066-.058-.132-.084-.2l-.114-.305c-.039-.1-.076-.191-.117-.272.022.01.043.02.064.032a.926.926,0,0,1,.19.148l0,0,0,0a1.045,1.045,0,0,0-.147-.206,1,1,0,0,0-.137-.12l.077,0a.933.933,0,0,1,.4.284l0,0,0,0a.911.911,0,0,0-.148-.233l-.019-.02c.034.008.066.016.1.027l.024.009a.258.258,0,0,1,.032.021.444.444,0,0,1,.064.059.961.961,0,0,1,.113.155v0l0,0a1.17,1.17,0,0,0-.05-.165,1.691,1.691,0,0,1,.572.573l.03.042c.041.059.084.118.129.175a2.112,2.112,0,0,0,.228.256,1.339,1.339,0,0,0,.362.216.957.957,0,0,1-.143-.007.97.97,0,0,1-.277-.079Zm1.906-.319a.719.719,0,0,1-.088.052c-.013.008-.025.017-.039.023a.8.8,0,0,1-.151.054.638.638,0,0,1-.317,0h0a.62.62,0,0,0,.317.074l.018,0a1.2,1.2,0,0,1-.124.071c-.016.006-.034.011-.05.015a.6.6,0,0,1-.121.013.683.683,0,0,1-.241-.046l0,0,0,0a.639.639,0,0,0,.18.1,1.012,1.012,0,0,1-.538.006l-.008,0a1.14,1.14,0,0,1-.481-.292c-.052-.051-.1-.1-.149-.156s-.1-.115-.145-.174l-.07-.086c-.066-.082-.122-.15-.177-.209.021,0,.043.006.064.01a.931.931,0,0,1,.217.079l0,0,0,0a1.117,1.117,0,0,0-.2-.147.953.953,0,0,0-.155-.071l.072-.02a.918.918,0,0,1,.436.137l0,0,0,0a.985.985,0,0,0-.205-.169l-.021-.012c.03,0,.061-.007.091-.008h.024l.036.009a.43.43,0,0,1,.075.033,1.026,1.026,0,0,1,.152.105l0,0,0,0a1.36,1.36,0,0,0-.1-.136,1.124,1.124,0,0,1,.233.058l0,0,.06.016.019.007a3.75,3.75,0,0,1,.416.223l.045.027c.062.037.125.073.189.106a2.064,2.064,0,0,0,.314.139,1.4,1.4,0,0,0,.418.049.9.9,0,0,1-.133.052,1,1,0,0,1-.284.041h0a.959.959,0,0,0,.289.032c.048,0,.091-.008.137-.016Zm.94-1.609v0a.929.929,0,0,1-.044.154.9.9,0,0,1-.166.274v0l0,0a.863.863,0,0,0,.226-.226,1.046,1.046,0,0,0,.076-.136.005.005,0,0,0,0,0,.775.775,0,0,1-.014.1c0,.025,0,.05-.011.075a.864.864,0,0,1-.067.175.664.664,0,0,1-.242.27h0l0,0a.626.626,0,0,0,.3-.213l.01-.014a1.309,1.309,0,0,1-.044.162c-.009.019-.02.038-.03.056a.714.714,0,0,1-.091.115.7.7,0,0,1-.238.153h0l-.005,0a.566.566,0,0,0,.222-.055l-.007.011a.977.977,0,0,1-.517.39.821.821,0,0,1-.309.031,1.563,1.563,0,0,1-.269-.07c-.068-.025-.135-.052-.2-.08-.084-.038-.167-.08-.247-.12l-.086-.043c-.079-.04-.149-.074-.214-.1.019-.005.038-.012.059-.016h.008a.958.958,0,0,1,.213-.016h.01a1.192,1.192,0,0,0-.238-.053.964.964,0,0,0-.165,0l.056-.048a.933.933,0,0,1,.449-.053h0a.993.993,0,0,0-.257-.068l-.023,0a.867.867,0,0,1,.08-.045l.021-.009.036-.007a.429.429,0,0,1,.083,0,.971.971,0,0,1,.185.032l0,0h0a1.219,1.219,0,0,0-.15-.082c.022-.007.045-.015.064-.019a1.163,1.163,0,0,1,.137,0v0l.027,0h.027a2.633,2.633,0,0,0,.5-.01,1.315,1.315,0,0,0,.216-.043,1.26,1.26,0,0,0,.327-.139A1.13,1.13,0,0,0-435.414-41.761Zm-.7-.707c.044-.056.088-.116.128-.177a1.651,1.651,0,0,0,.165-.305,1.174,1.174,0,0,0,.059-.434.967.967,0,0,1,.054.146.928.928,0,0,1,.03.3v0a.874.874,0,0,0,.045-.3.986.986,0,0,0-.017-.15h0a.686.686,0,0,1,.043.07c.012.022.022.044.032.067l0,.009a.834.834,0,0,1,.05.167.637.637,0,0,1-.022.332v0s0,0,0,0a.608.608,0,0,0,.1-.324c0-.006,0-.012,0-.018a1.169,1.169,0,0,1,.062.134.437.437,0,0,1,.012.059.588.588,0,0,1,0,.129.686.686,0,0,1-.072.245l0,0a.048.048,0,0,0,0,.005.616.616,0,0,0,.123-.173,1.027,1.027,0,0,1-.064.56l-.01.023a.994.994,0,0,1-.385.426,1.629,1.629,0,0,1-.189.1,1.833,1.833,0,0,1-.29.1,2.381,2.381,0,0,1-.262.046l.021-.028a1.179,1.179,0,0,1,.137-.133h0l0,0c-.07.03-.136.059-.192.089a1.083,1.083,0,0,0-.1.059c0-.019,0-.038,0-.058a.879.879,0,0,1,.234-.245l0,0,0,0c-.081.031-.149.068-.21.1l-.013.007a.41.41,0,0,1,.011-.061c0-.005.005-.011.007-.016l.015-.02a.421.421,0,0,1,.049-.046l.025-.019.074-.053.036-.025h0l0,0c-.052.015-.1.032-.152.049a2.948,2.948,0,0,1,.343-.487Zm-.866.255h0l.008-.009a2.686,2.686,0,0,0,.187-.224h0a2.693,2.693,0,0,0,.436-.894,2.716,2.716,0,0,0,.1-.808c0,.016,0,.032,0,.047a.662.662,0,0,1,.032.127.025.025,0,0,0,0,0v.005a.6.6,0,0,0,0-.213,1.024,1.024,0,0,1,.278.506v0l.007.039s0,.008,0,.013a1.025,1.025,0,0,1-.071.526,2.082,2.082,0,0,1-.09.194c-.052.095-.11.186-.165.27l-.074.111c-.03.045-.057.085-.082.124,0-.018-.006-.036-.007-.055a.922.922,0,0,1,.009-.217v0a.032.032,0,0,1,0,0,1.316,1.316,0,0,0-.08.219,1.008,1.008,0,0,0-.026.151l-.039-.056a.871.871,0,0,1,0-.414v0a1.1,1.1,0,0,0-.095.232c0,.007,0,.014,0,.021-.011-.02-.021-.041-.029-.06-.03.047-.061.093-.094.137a2.376,2.376,0,0,0,.171.262l.049.061a1.328,1.328,0,0,0-.2.379c0,.014,0,.029-.008.043a1.034,1.034,0,0,0-.021.189c0,.027,0,.054,0,.086v.035a1.4,1.4,0,0,0-.172,0,1.138,1.138,0,0,0-.189.06c-.032.013-.064.024-.1.04a1.723,1.723,0,0,0-.376.273l-.068.067a1.253,1.253,0,0,0-.539-.1,1.512,1.512,0,0,0-.353.061l0,0,.107-.389A2.773,2.773,0,0,0-436.981-42.214Zm-.714-.759.041-.045c.02-.023.039-.047.058-.071.038-.047.075-.1.11-.146l.02-.029c.039-.057.076-.115.111-.176a.99.99,0,0,1-.024.239h0c-.006.036-.015.073-.023.109v.005c-.008.033-.016.065-.024.095l0,.013c-.007.026-.014.05-.02.071l0,.014c-.007.024-.014.043-.019.056a1.519,1.519,0,0,1-.077.153,1.109,1.109,0,0,1-.634.525.865.865,0,0,0-.033-.392,1.786,1.786,0,0,0,.431-.327h0l.017-.018C-437.744-42.92-437.719-42.946-437.7-42.973Zm-.1-1.947a.672.672,0,0,1,.154.152,1.5,1.5,0,0,1,.115,1.085,1.449,1.449,0,0,1-.05.151c.005-.013.009-.027.014-.04s-.018-.018-.025-.028l-.033-.046a3.561,3.561,0,0,1-.265-.481c-.03-.065-.063-.13-.1-.194a2.349,2.349,0,0,0-.176-.289,1.365,1.365,0,0,0-.308-.283.92.92,0,0,1,.136.034.993.993,0,0,1,.251.128l0,0,0,0a.992.992,0,0,0-.213-.191,1.122,1.122,0,0,0-.12-.066h0a.719.719,0,0,1,.147.011.8.8,0,0,1,.15.042.64.64,0,0,1,.255.177l0,0,0,0a.629.629,0,0,0-.214-.238L-438.09-45a1.252,1.252,0,0,1,.136.011.426.426,0,0,1,.051.017A.545.545,0,0,1-437.8-44.919Zm-2.474.012a1.52,1.52,0,0,1,1.68-.643,1.5,1.5,0,0,1,.658.383c.013.012.022.026.034.038l-.066-.01h-.006a2.2,2.2,0,0,0-.555.024.835.835,0,0,0-.193.063,1.107,1.107,0,0,0-.256-.107,1.409,1.409,0,0,0-.49-.039c-.032,0-.066.008-.1.014h0a2.321,2.321,0,0,0-.511.173.843.843,0,0,0-.165.109c-.012,0-.024,0-.036-.006Zm-1.118.448c.016-.009.035-.017.053-.026a.666.666,0,0,1,.075-.037.779.779,0,0,1,.148-.04.626.626,0,0,1,.3.02l0,0h.006a.625.625,0,0,0-.3-.094h-.017c.04-.022.079-.043.118-.06a.442.442,0,0,1,.05-.011.562.562,0,0,1,.115-.006.681.681,0,0,1,.228.057l0,0,.005,0a.656.656,0,0,0-.169-.11,1.021,1.021,0,0,1,.5,0,1.36,1.36,0,0,1,.486.272c.055.047.109.095.161.142l.235.225c.079.074.151.139.223.195h-.07a.931.931,0,0,1-.235-.051h0a1.043,1.043,0,0,0,.223.122.98.98,0,0,0,.173.048l-.07.031a.947.947,0,0,1-.481-.083l0,0,0,0a.929.929,0,0,0,.237.145l.025.009a.978.978,0,0,1-.1.019l-.025,0-.039,0a.494.494,0,0,1-.085-.025.943.943,0,0,1-.172-.091l0,0,0,0a1.126,1.126,0,0,0,.119.129,1.121,1.121,0,0,1-.261-.039h0l0,0-.05-.011a2.337,2.337,0,0,1-.515-.256c-.061-.039-.123-.077-.185-.113a2.522,2.522,0,0,0-.3-.156.632.632,0,0,0-.1-.037,2.541,2.541,0,0,0-.305-.05.929.929,0,0,1,.134-.039,1.007,1.007,0,0,1,.278-.017h0a.988.988,0,0,0-.278-.056,1.113,1.113,0,0,0-.134,0Zm-1.3.9a.736.736,0,0,1,.1-.11.829.829,0,0,1,.133-.092.639.639,0,0,1,.3-.083h0a.617.617,0,0,0-.323.011l-.016.006a1.154,1.154,0,0,1,.1-.1.493.493,0,0,1,.046-.028.568.568,0,0,1,.112-.044.675.675,0,0,1,.24-.017h0a.635.635,0,0,0-.2-.053.978.978,0,0,1,.789-.109,1.806,1.806,0,0,1,.252.092c.065.031.13.063.192.1l.285.158a2.947,2.947,0,0,0,.27.131c-.025.006-.049.014-.074.018a.923.923,0,0,1-.24.01h0a1.038,1.038,0,0,0,.245.061,1,1,0,0,0,.179,0l-.06.047a.938.938,0,0,1-.484.041h0a.914.914,0,0,0,.264.081l.026,0a.988.988,0,0,1-.091.043l-.025.009-.038.005a.465.465,0,0,1-.088,0,.939.939,0,0,1-.187-.045h0a1.186,1.186,0,0,0,.143.094,1.1,1.1,0,0,1-.254.027l0,0-.063,0a2.687,2.687,0,0,1-.522-.1l-.032-.009c-.066-.018-.133-.035-.2-.049a2.093,2.093,0,0,0-.338-.052,1.29,1.29,0,0,0-.415.065h0a.94.94,0,0,1,.114-.086.96.96,0,0,1,.265-.115h0l0,0a.924.924,0,0,0-.288.046,1.032,1.032,0,0,0-.13.054Zm-.419.09.072.018c.031.009.071.022.116.038a.677.677,0,0,0-.022.073c-.028.013-.054.032-.081.048a.843.843,0,0,0-.085-.177Zm-2.044.868a.826.826,0,0,1-.323.028.638.638,0,0,1-.312-.117.611.611,0,0,0,.284.187l.018,0a1.371,1.371,0,0,1-.154.021.469.469,0,0,1-.056-.006.616.616,0,0,1-.125-.035.663.663,0,0,1-.211-.14.6.6,0,0,0,.128.168,1.18,1.18,0,0,1-.138-.027.952.952,0,0,1-.37-.194,1.213,1.213,0,0,1-.313-.461c-.028-.066-.053-.135-.077-.2l-.009-.026c-.033-.095-.067-.193-.105-.285a2.031,2.031,0,0,0-.135-.275c.025.011.051.021.075.034a.912.912,0,0,1,.209.156.945.945,0,0,0-.165-.214.982.982,0,0,0-.161-.122l.09,0a.9.9,0,0,1,.432.3.71.71,0,0,0-.152-.242l-.02-.019a1.006,1.006,0,0,1,.111.032l.025.01a.293.293,0,0,1,.032.022.492.492,0,0,1,.063.062.909.909,0,0,1,.107.159,1.1,1.1,0,0,0-.044-.168,1.066,1.066,0,0,1,.207.154l-.005,0,.038.031a2.556,2.556,0,0,1,.25.321l.083.118c.041.06.085.118.132.174a1.632,1.632,0,0,0,.245.245,1.315,1.315,0,0,0,.385.188.98.98,0,0,1-.147.005.956.956,0,0,1-.294-.06.912.912,0,0,0,.273.131,1.138,1.138,0,0,0,.14.029Zm.861-.336,0,0c.036.067.07.129.109.188.017.025.035.049.053.072h-.012a.4.4,0,0,1-.147-.06.615.615,0,0,1-.139-.143l0,0,0,0a1.307,1.307,0,0,0,.112.205l0,.005h-.01l-.053,0-.018-.007a.3.3,0,0,1-.048-.035c-.034-.03-.073-.071-.117-.117l0,0,0,0,.081.147c-.052-.009-.12-.023-.2-.046a1.607,1.607,0,0,1-.617-.3c-.056-.047-.11-.094-.16-.144-.08-.08-.154-.168-.21-.235l-.071-.086c-.04-.048-.075-.092-.11-.132.018,0,.036,0,.054.009a.977.977,0,0,1,.2.071h0a1.3,1.3,0,0,0-.185-.14.926.926,0,0,0-.14-.069l.006,0,.061-.019a.9.9,0,0,1,.4.119l0,0,0,0a1.274,1.274,0,0,0-.2-.157l-.018-.011c.027-.005.053-.009.079-.012h.022l.031.006a.424.424,0,0,1,.072.029,1.356,1.356,0,0,1,.158.093l0,0,0,0c-.034-.045-.072-.087-.11-.127a1.705,1.705,0,0,1,.243.032h0l.026,0c.036.008.071.015.11.025a1.18,1.18,0,0,1,.5.276,1.315,1.315,0,0,1,.139.161,1.831,1.831,0,0,1,.154.269c.048.089.11.2.159.3-.022-.013-.044-.026-.064-.041a1.349,1.349,0,0,1-.147-.131Zm.767.226a.975.975,0,0,0-.041.106.1.1,0,0,1,0,.011v0h0v0h0a1.6,1.6,0,0,0-.055.254,1.22,1.22,0,0,1-.338-.594c-.019-.058-.038-.117-.06-.177a1.659,1.659,0,0,0-.087-.2,1.16,1.16,0,0,0-.205-.293,1.048,1.048,0,0,0-.283-.206.808.808,0,0,1,.125,0,.8.8,0,0,1,.322.1.753.753,0,0,0-.295-.168.959.959,0,0,0-.279-.038c.033-.013.072-.027.117-.041a.937.937,0,0,1,.712.21.709.709,0,0,0-.288-.241L-444.22-44a1.062,1.062,0,0,1,.171.019c.023,0,.042.013.063.018s.027.01.039.016a.642.642,0,0,1,.113.07.735.735,0,0,1,.167.187.647.647,0,0,0-.071-.182.978.978,0,0,1,.375.315,1.073,1.073,0,0,1,.164.4A1.325,1.325,0,0,0-443.522-42.709Zm.105.513a1.054,1.054,0,0,0-.084.126h0a.763.763,0,0,1,.035-.164.8.8,0,0,1,.07-.159.643.643,0,0,1,.234-.24h0l0,0a.607.607,0,0,0-.286.185l-.011.014c.009-.041.019-.081.032-.119,0-.009.007-.016.01-.025a.53.53,0,0,1,.029-.053.589.589,0,0,1,.082-.1.676.676,0,0,1,.215-.139h0l0,0a.607.607,0,0,0-.207.051.994.994,0,0,1,.42-.383.926.926,0,0,1,.15-.054l.01,0a.972.972,0,0,1,.132-.025l.028,0c.039,0,.077-.006.114-.007h.012c.04,0,.077,0,.112,0,.072.006.143.014.213.025s.161.029.239.045l.089.018c.1.02.191.037.275.047-.018.011-.037.023-.055.033a.957.957,0,0,1-.218.079h0a1.094,1.094,0,0,0,.245-.013.922.922,0,0,0,.165-.045l-.044.063a.907.907,0,0,1-.423.173h0a.949.949,0,0,0,.265,0l.023,0c-.021.023-.043.046-.065.065l-.019.014a.275.275,0,0,1-.032.016.443.443,0,0,1-.079.022,1,1,0,0,1-.183.015h0a1.323,1.323,0,0,0,.163.041,1.122,1.122,0,0,1-.284.125c-.107.031-.221.052-.342.075l-.164.032a2.09,2.09,0,0,0-.212.051,1.576,1.576,0,0,0-.324.126,1.163,1.163,0,0,0-.325.292h0a.9.9,0,0,1,.053-.145.927.927,0,0,1,.173-.251l0,0,0,0A.9.9,0,0,0-443.416-42.2Zm-1.59.906a.947.947,0,0,1-.386.357.858.858,0,0,1-.6.1.3.3,0,0,1-.195-.139.293.293,0,0,1-.008-.223.846.846,0,0,1,.427-.452.861.861,0,0,1,.6-.1.3.3,0,0,1,.193.14A.349.349,0,0,1-445.006-41.29Zm1.811,1.346-.263-.072-1.334-.366.173-.629.872.239.076.021,2.189.6.132.036-.032.117-.141.512Zm1.375,1.5a.7.7,0,0,1-.052-.218v0a.734.734,0,0,0-.019.2,1.041,1.041,0,0,1-.232-.434l.42.115-.1.353A.062.062,0,0,1-441.821-38.44Zm-3.17,6.89a.724.724,0,0,1,.133-.059.768.768,0,0,1,.152-.033.628.628,0,0,1,.3.035l0,0h0a.621.621,0,0,0-.3-.109h-.016a1.273,1.273,0,0,1,.121-.053.451.451,0,0,1,.051-.009.557.557,0,0,1,.115,0,.674.674,0,0,1,.224.068l0,0,0,0a.641.641,0,0,0-.162-.119,1.028,1.028,0,0,1,.45.016,1.032,1.032,0,0,1,.261.116l-.224.815c-.088-.051-.17-.106-.247-.159-.059-.042-.118-.083-.18-.122a2.363,2.363,0,0,0-.291-.17.675.675,0,0,0-.142-.054s-.133-.028-.27-.048l0,0a.923.923,0,0,1,.137-.034.975.975,0,0,1,.281-.005h0a.972.972,0,0,0-.277-.068,1.134,1.134,0,0,0-.136,0Zm-1.329.917a.818.818,0,0,1,.236-.21.637.637,0,0,1,.308-.091h0a.619.619,0,0,0-.328.019l-.017.008a1.162,1.162,0,0,1,.1-.1.373.373,0,0,1,.047-.03.586.586,0,0,1,.114-.047.675.675,0,0,1,.245-.021h0a.629.629,0,0,0-.2-.051,1.016,1.016,0,0,1,.522-.151,1,1,0,0,1,.262.037,1.5,1.5,0,0,1,.277.11c.064.034.127.069.187.1l.276.172c.093.057.176.106.258.145-.023,0-.046.01-.07.013a.937.937,0,0,1-.239,0h0a1.045,1.045,0,0,0,.241.074.949.949,0,0,0,.163.011l0,.016-.042.029a.924.924,0,0,1-.482.016l0,0h0a.9.9,0,0,0,.257.095l.026,0a.963.963,0,0,1-.092.038l-.024.007-.038,0a.412.412,0,0,1-.086-.008.923.923,0,0,1-.182-.054l0,0,0,0a1.154,1.154,0,0,0,.14.1,1.684,1.684,0,0,1-.745-.08l-.114-.03c-.064-.018-.129-.033-.195-.047a1.937,1.937,0,0,0-.34-.046,1.3,1.3,0,0,0-.418.076,1.01,1.01,0,0,1,.113-.091.981.981,0,0,1,.264-.123h0l0,0a.929.929,0,0,0-.29.053,1.089,1.089,0,0,0-.13.058Zm-.818,1.372a.732.732,0,0,1,.048-.137.833.833,0,0,1,.08-.135.641.641,0,0,1,.238-.2l0,0,.005,0a.624.624,0,0,0-.286.147s-.007.009-.012.013a1.222,1.222,0,0,1,.046-.129.444.444,0,0,1,.029-.045.631.631,0,0,1,.082-.088.694.694,0,0,1,.211-.121h0l0,0a.65.65,0,0,0-.2.038,1.037,1.037,0,0,1,.406-.36l0,0h0l.015-.007a1.155,1.155,0,0,1,.535-.089c.072,0,.144.011.213.02.107.016.214.036.315.056l.059.012c.083.016.156.029.224.039-.018.011-.035.023-.054.032a1,1,0,0,1-.213.078h0a1.192,1.192,0,0,0,.241-.012A.971.971,0,0,0-445-30.2c-.013.02-.026.04-.04.06a.913.913,0,0,1-.411.171h0a1.016,1.016,0,0,0,.262,0l.023,0c-.02.022-.041.044-.062.064l-.017.014-.032.016a.484.484,0,0,1-.077.023,1.083,1.083,0,0,1-.182.019h0a1.4,1.4,0,0,0,.164.038,2,2,0,0,1-.743.243l-.055.01c-.071.012-.142.027-.214.044a2.272,2.272,0,0,0-.325.1,1.491,1.491,0,0,0-.351.224.87.87,0,0,1,.067-.119.993.993,0,0,1,.189-.211h0l0,0a.981.981,0,0,0-.24.157,1.125,1.125,0,0,0-.094.1A.009.009,0,0,0-447.138-29.261Zm.027,1.706a.857.857,0,0,1-.007-.141.962.962,0,0,1,.05-.283v0a.935.935,0,0,0-.122.264,1.026,1.026,0,0,0-.028.136l0,0c0-.009,0-.019-.006-.028a.746.746,0,0,1-.026-.118.8.8,0,0,1,0-.16.641.641,0,0,1,.1-.3l0,0,0,0a.621.621,0,0,0-.17.277l0,.016a1.127,1.127,0,0,1-.027-.136.356.356,0,0,1,0-.054.667.667,0,0,1,.025-.118.7.7,0,0,1,.12-.213l0,0,0,0a.6.6,0,0,0-.154.137,1.2,1.2,0,0,1,.032-.219.827.827,0,0,1,.027-.086l.035-.126a.426.426,0,0,1,.073-.128.382.382,0,0,0,.027-.039,1.254,1.254,0,0,1,.477-.288c.068-.024.137-.046.2-.066l.333-.087c.1-.026.184-.048.26-.072-.012.018-.023.036-.036.053a.987.987,0,0,1-.164.166h0l0,0a1.158,1.158,0,0,0,.216-.118.9.9,0,0,0,.129-.11c0,.024-.007.048-.011.073a.94.94,0,0,1-.312.343l0,0,0,0a.967.967,0,0,0,.243-.12l.019-.014a.814.814,0,0,1-.032.088c0,.008-.008.015-.012.023a.311.311,0,0,1-.023.029.52.52,0,0,1-.064.057.965.965,0,0,1-.165.1h0l0,0a1.127,1.127,0,0,0,.168-.035c-.016.026-.032.051-.051.076a.775.775,0,0,1-.112.125l-.03,0-.033.011a.481.481,0,0,0-.056.02l-.317.286c-.055.047-.107.1-.161.147a2.136,2.136,0,0,0-.228.25A1.336,1.336,0,0,0-447.112-27.555Zm.854.491c-.032.064-.065.129-.095.195a2.33,2.33,0,0,0-.125.314,1.458,1.458,0,0,0-.046.411.939.939,0,0,1-.05-.125,1.012,1.012,0,0,1-.046-.275.009.009,0,0,0,0,0,.019.019,0,0,1,0,0,1.011,1.011,0,0,0-.026.283,1.039,1.039,0,0,0,.016.132l0,0c-.009-.012-.016-.027-.025-.04a.779.779,0,0,1-.05-.08.741.741,0,0,1-.055-.144.63.63,0,0,1-.011-.308v0a.025.025,0,0,1,0-.006.628.628,0,0,0-.062.312c0,.005,0,.011,0,.017a1.23,1.23,0,0,1-.071-.112.416.416,0,0,1-.018-.051.6.6,0,0,1-.018-.116.706.706,0,0,1,.034-.236l0,0v0a.654.654,0,0,0-.093.18,1.053,1.053,0,0,1,.207-1.029c.044-.057.093-.112.139-.163.074-.079.15-.156.226-.23l.039-.04c.061-.062.114-.116.161-.169,0,.022,0,.043,0,.065a.907.907,0,0,1-.055.223v0a1.151,1.151,0,0,0,.125-.21.91.91,0,0,0,.055-.159l.027.068a.927.927,0,0,1-.091.447l0,0,0,0a1,1,0,0,0,.146-.223l.009-.021c.007.03.013.06.018.09,0,.009,0,.017,0,.025A.287.287,0,0,1-446-28a.545.545,0,0,1-.025.08,1.059,1.059,0,0,1-.089.164l0,0,0,0a1.358,1.358,0,0,0,.125-.115A1.921,1.921,0,0,1-446.258-27.064Zm.4-1.011h0s0,0,0-.007A1.745,1.745,0,0,0-446-28.53l-.012-.024a.865.865,0,0,0,.136-.147,1.334,1.334,0,0,0,.159-.272,1.676,1.676,0,0,0,.112-.463l0-.1a1.278,1.278,0,0,0,.47-.272,1.807,1.807,0,0,0,.282-.36l.045-.085a1.243,1.243,0,0,0,.573-.066,1.344,1.344,0,0,0,.23-.111l-.134.489-.986,3.591c-.045-.03-.091-.06-.143-.089l-.1-.039a1.322,1.322,0,0,0-.154-.585h0a.092.092,0,0,1,0-.008,1.721,1.721,0,0,0-.306-.386l-.077-.063a1.284,1.284,0,0,0,.048-.557h0Zm-.335,2.672a1.094,1.094,0,0,1-.094-1.019c.023-.068.048-.136.075-.2l.128-.3c.043-.1.08-.189.109-.272.007.021.015.042.021.064a.932.932,0,0,1,.031.235v0a.017.017,0,0,0,0,0,1.109,1.109,0,0,0,.039-.247,1.034,1.034,0,0,0-.011-.174l.052.056a.943.943,0,0,1,.083.467v0a.014.014,0,0,1,0,0,.947.947,0,0,0,.054-.269c0-.008,0-.016,0-.025a.934.934,0,0,1,.051.083c0,.008.007.016.011.025a.257.257,0,0,1,.008.036.479.479,0,0,1,.006.087.974.974,0,0,1-.025.192l0,0v0a1.088,1.088,0,0,0,.078-.152,1.676,1.676,0,0,1,0,.876l-.041.212a3.025,3.025,0,0,0-.046.333,2.327,2.327,0,0,0,.043.405.99.99,0,0,1-.074-.107,1.043,1.043,0,0,1-.1-.251.009.009,0,0,1,0,0,.025.025,0,0,0,0,0,1.051,1.051,0,0,0,.035.275,1.163,1.163,0,0,0,.043.122l0,0c-.014-.011-.027-.027-.04-.04a.661.661,0,0,1-.055-.054.786.786,0,0,1-.083-.122.633.633,0,0,1-.08-.287s0,0,0,0a.021.021,0,0,0,0-.005.64.64,0,0,0,.011.31s0,.01.005.015a1.268,1.268,0,0,1-.094-.089c-.009-.013-.018-.026-.026-.04a.54.54,0,0,1-.043-.1.688.688,0,0,1-.025-.23v0s0,0,0-.005A.689.689,0,0,0-446.193-25.4Zm-3.157.437a7.223,7.223,0,0,0,3.42.042s0,0,0,0a2.437,2.437,0,0,0,.219.148.823.823,0,0,0,.174.074,1.24,1.24,0,0,0,.4.594c.023.02.047.039.074.057l0,0h0v0h0l.04.028a5.482,5.482,0,0,1-3.1-.1,6.754,6.754,0,0,1-1.124-.414,7.772,7.772,0,0,1-2.314-1.638A5.2,5.2,0,0,0-449.35-24.966Zm3.215,5.563c-.674-.733-1.239-1.285-1.544-1.577-.679-.649-1.314-1.206-1.873-1.7-1.5-1.314-2.557-2.246-3.089-3.694a20.116,20.116,0,0,0,4.729,4.279c.847.615,2.007,1.452,2.036,1.745Zm1.376-4.945,0,0a1.077,1.077,0,0,0,.071.264,1.152,1.152,0,0,0,.057.112l-.006,0-.025-.018a.691.691,0,0,1-.079-.06.748.748,0,0,1-.1-.106.621.621,0,0,1-.118-.266s0,0,0,0,0,0,0-.006a.643.643,0,0,0,.054.3s.005.009.007.013c-.037-.023-.071-.046-.1-.07a.429.429,0,0,1-.031-.035.546.546,0,0,1-.057-.093.692.692,0,0,1-.059-.219v0a.7.7,0,0,0-.014.2,1.124,1.124,0,0,1-.274-.967l.078-.537a2.866,2.866,0,0,0,.029-.3c.014.019.029.039.041.059a.937.937,0,0,1,.1.226v0a1.043,1.043,0,0,0-.03-.256.976.976,0,0,0-.063-.173l.066.041a.957.957,0,0,1,.214.453v0l0,0a.918.918,0,0,0-.018-.282c0-.009-.005-.018-.008-.027a.888.888,0,0,1,.074.075c.007.007.011.015.018.022a.271.271,0,0,1,.019.035.444.444,0,0,1,.029.087.9.9,0,0,1,.023.2v0a1,1,0,0,0,.04-.169,1.153,1.153,0,0,1,.116.242h0l.014.038a1.932,1.932,0,0,1,.064.6l-.005.216c0,.093,0,.215,0,.335a2.428,2.428,0,0,0,.1.39.94.94,0,0,1-.084-.093,1.057,1.057,0,0,1-.135-.23Zm1.123.845,0,0a1.07,1.07,0,0,0,.092.255c.019.036.041.071.064.105l-.007,0a.677.677,0,0,1-.106-.066.744.744,0,0,1-.1-.1.623.623,0,0,1-.14-.251.03.03,0,0,1,0,0,.017.017,0,0,0,0-.005.658.658,0,0,0,.079.291s.006.008.009.013c-.038-.019-.074-.039-.109-.06a.333.333,0,0,1-.032-.03.559.559,0,0,1-.065-.085.694.694,0,0,1-.078-.209.009.009,0,0,0,0,0l0,0a.694.694,0,0,0,.005.2,1.16,1.16,0,0,1-.378-.917l0-.309c0-.079,0-.159,0-.236a2.4,2.4,0,0,0-.023-.3c.018.018.037.035.053.054a.92.92,0,0,1,.134.212v0l0,0a1.015,1.015,0,0,0-.075-.251,1,1,0,0,0-.1-.165l.077.033a.957.957,0,0,1,.294.423s0,0,0,0l0,0a.88.88,0,0,0-.065-.281c0-.008-.008-.016-.011-.025.03.02.06.041.087.063l.022.021a.385.385,0,0,1,.024.032.449.449,0,0,1,.044.084.88.88,0,0,1,.053.2v0a.941.941,0,0,0,.014-.174,1.135,1.135,0,0,1,.153.229h0l.015.028a1.751,1.751,0,0,1,.141.6l.017.215c.008.108.018.223.036.332a2.627,2.627,0,0,0,.125.377.959.959,0,0,1-.089-.084,1.066,1.066,0,0,1-.152-.214Zm1.159.755,0,0a1.212,1.212,0,0,0,.092.247c.019.035.038.068.058.1l-.007,0a.619.619,0,0,1-.087-.052.718.718,0,0,1-.112-.1.621.621,0,0,1-.142-.24v0l0-.005a.664.664,0,0,0,.084.283l.008.011c-.037-.016-.072-.034-.105-.052a.286.286,0,0,1-.032-.027.514.514,0,0,1-.065-.08.712.712,0,0,1-.086-.2v0a.729.729,0,0,0,.013.194,1.2,1.2,0,0,1-.427-.879l-.026-.256c-.008-.1-.017-.194-.03-.288a2.31,2.31,0,0,0-.057-.3c.02.016.041.032.059.049a.915.915,0,0,1,.158.2v0l0,0a.969.969,0,0,0-.1-.245.987.987,0,0,0-.118-.156l.08.024a.96.96,0,0,1,.344.4v0l0,0a.865.865,0,0,0-.095-.277c0-.008-.01-.016-.014-.024a1.038,1.038,0,0,1,.1.056l.026.02a.377.377,0,0,1,.027.029.535.535,0,0,1,.052.081.868.868,0,0,1,.073.192.006.006,0,0,1,0,0v0a.942.942,0,0,0,0-.176,1.151,1.151,0,0,1,.175.219h0l0,.008a1.624,1.624,0,0,1,.2.611l.028.214c.013.109.027.221.046.328a2.378,2.378,0,0,0,.119.366c-.027-.023-.054-.049-.08-.076a1.126,1.126,0,0,1-.15-.206Zm1.174.731,0,0a1.154,1.154,0,0,0,.1.245,1.087,1.087,0,0,0,.066.1l-.008,0a.645.645,0,0,1-.1-.057.721.721,0,0,1-.105-.086.625.625,0,0,1-.152-.237v0l0,0a.66.66,0,0,0,.1.281s.006.008.008.011c-.037-.015-.073-.031-.106-.048a.372.372,0,0,1-.035-.028.546.546,0,0,1-.068-.078.716.716,0,0,1-.093-.2s0,0,0,0l0,0a.71.71,0,0,0,.021.195,1.077,1.077,0,0,1-.309-.355v0l-.021-.037a1.263,1.263,0,0,1-.108-.408l-.038-.293c-.013-.108-.027-.221-.047-.328a2.154,2.154,0,0,0-.075-.3c.021.015.043.03.063.047a.912.912,0,0,1,.172.2v0l0,0a.929.929,0,0,0-.118-.244.968.968,0,0,0-.129-.151c.023.005.045.009.071.016l.013,0a.976.976,0,0,1,.374.4v0l0,0a.862.862,0,0,0-.112-.28c0-.007-.009-.013-.013-.019a1.111,1.111,0,0,1,.1.052l.027.02a.348.348,0,0,1,.029.03.53.53,0,0,1,.059.082.869.869,0,0,1,.084.2.01.01,0,0,0,0,0l0,0a.866.866,0,0,0-.009-.18c.027.025.056.05.081.078a.5.5,0,0,1,.069.093l.011.017.018.033h-.005l.033.05c.006.012.013.024.02.036a1.938,1.938,0,0,1,.157.522l.035.213c.017.109.035.22.058.327a2,2,0,0,0,.14.365.969.969,0,0,1-.089-.076,1.091,1.091,0,0,1-.16-.2Zm1.147.706,0,0a1.208,1.208,0,0,0,.082.248c.017.035.035.068.055.1l-.011,0a.681.681,0,0,1-.092-.06.66.66,0,0,1-.1-.09.618.618,0,0,1-.133-.239.025.025,0,0,1,0,0,.027.027,0,0,1,0-.006.67.67,0,0,0,.074.28s0,.007.007.011c-.042-.02-.074-.037-.1-.052l-.03-.027a.5.5,0,0,1-.061-.079.714.714,0,0,1-.079-.2s0,0,0,0l0,0a.76.76,0,0,0,.01.191,1.05,1.05,0,0,1-.276-.342h0l-.01-.019a1.876,1.876,0,0,1-.142-.493L-441-22.3c-.017-.108-.034-.22-.058-.327a2.13,2.13,0,0,0-.083-.293c.022.014.044.028.064.044a.91.91,0,0,1,.177.189v0l0,0a.948.948,0,0,0-.125-.239.973.973,0,0,0-.133-.147l.084.019.028.018a.947.947,0,0,1,.355.362s0,0,0,0l0,0a.847.847,0,0,0-.12-.274l-.016-.021a1.085,1.085,0,0,1,.1.05c.01.006.018.013.028.019a.276.276,0,0,1,.03.028.493.493,0,0,1,.06.079.849.849,0,0,1,.088.192.007.007,0,0,0,0,0l0,0a.88.88,0,0,0-.014-.178,1.122,1.122,0,0,1,.2.216h0l.008.012a1.446,1.446,0,0,1,.213.611l.032.264c.009.093.02.187.033.279a2.339,2.339,0,0,0,.108.368.929.929,0,0,1-.079-.079,1.138,1.138,0,0,1-.142-.207ZM-439-20.3a1.193,1.193,0,0,1-.107-.22v0a1.288,1.288,0,0,0,.042.252c.011.036.023.071.037.106l-.008,0a.618.618,0,0,1-.081-.071.645.645,0,0,1-.078-.1.612.612,0,0,1-.095-.249.015.015,0,0,0,0,0l0-.005a.692.692,0,0,0,.031.283s0,.008.005.012c-.031-.02-.061-.04-.089-.061a.268.268,0,0,1-.026-.03.518.518,0,0,1-.048-.083.734.734,0,0,1-.052-.2v0s0,0,0,0a.788.788,0,0,0-.016.19,1.333,1.333,0,0,1-.331-.881l-.02-.215c-.01-.107-.022-.221-.042-.332a1.892,1.892,0,0,0-.077-.3c.023.016.046.032.066.049a.9.9,0,0,1,.174.2v0l0,0a.907.907,0,0,0-.119-.249.949.949,0,0,0-.137-.156l.052.012.034.011a.97.97,0,0,1,.381.411v0l0,0a.821.821,0,0,0-.11-.286c-.005-.009-.012-.017-.018-.026a1.13,1.13,0,0,1,.106.062l.029.022c.01.009.02.02.028.03a.523.523,0,0,1,.058.085.846.846,0,0,1,.078.2.01.01,0,0,1,0,0v0a.816.816,0,0,0,0-.18,1.225,1.225,0,0,1,.351.885l-.005.546a3.063,3.063,0,0,0,.046.372A.947.947,0,0,1-439-20.3Zm.792.947a1.254,1.254,0,0,1-.04-.23v0a1.545,1.545,0,0,0-.029.245c0,.035,0,.07,0,.1l-.006-.006a.52.52,0,0,1-.054-.082.733.733,0,0,1-.045-.108.617.617,0,0,1-.025-.253.021.021,0,0,0,0,0s0,0,0-.006a.733.733,0,0,0-.042.272s0,.007,0,.011c-.025-.026-.048-.051-.069-.076a.252.252,0,0,1-.015-.03.486.486,0,0,1-.024-.087.742.742,0,0,1,0-.2.011.011,0,0,1,0,0s0,0,0,0a.867.867,0,0,0-.059.178,1.471,1.471,0,0,1-.148-.9l.011-.216c0-.1.008-.219,0-.337a1.693,1.693,0,0,0-.045-.308.843.843,0,0,1,.063.059.872.872,0,0,1,.152.227,0,0,0,0,1,0,0l0,0a.887.887,0,0,0-.092-.266.96.96,0,0,0-.124-.177c.025.009.054.02.085.034a.97.97,0,0,1,.34.47v0l0,0a.811.811,0,0,0-.076-.3c0-.01-.011-.019-.015-.028a1.131,1.131,0,0,1,.1.077c.01.008.017.018.026.026a.412.412,0,0,1,.026.036.554.554,0,0,1,.048.095.833.833,0,0,1,.052.215v0a.016.016,0,0,1,0,0,.83.83,0,0,0,.022-.182,1.152,1.152,0,0,1,.2.953c-.013.071-.029.141-.045.209l-.086.316c-.022.1-.044.241-.062.356A.847.847,0,0,1-438.207-19.354Zm-.923-2.661a1.389,1.389,0,0,0-.255-.238,5.126,5.126,0,0,0,2.045-.02A7.19,7.19,0,0,1-439.13-22.015Zm1.091,6.038a.869.869,0,0,1-.652-.021.593.593,0,0,0,.283.145l.032.006a1.032,1.032,0,0,1-.146.027c-.014,0-.026,0-.04,0l-.035,0a.549.549,0,0,1-.095-.028.868.868,0,0,1-.182-.1.927.927,0,0,0,.119.138,1.15,1.15,0,0,1-.215-.037h0a1.473,1.473,0,0,1-.617-.384l-.154-.151c-.078-.077-.158-.158-.24-.229a1.929,1.929,0,0,0-.331-.212.932.932,0,0,1,.12.008,1.085,1.085,0,0,1,.249.068,1.121,1.121,0,0,0-.229-.137,1.18,1.18,0,0,0-.114-.041l.008,0a.72.72,0,0,1,.258-.009.622.622,0,0,1,.262.1.657.657,0,0,0-.242-.17l-.012,0c.043-.011.083-.019.122-.025l.037,0a.488.488,0,0,1,.1.023.706.706,0,0,1,.191.106.736.736,0,0,0-.126-.142,1.1,1.1,0,0,1,.272.033,1.006,1.006,0,0,1,.155.059l.036.017a1.786,1.786,0,0,1,.408.308l.154.151a1.632,1.632,0,0,0,.267.225,1.056,1.056,0,0,0,.309.138.865.865,0,0,1-.113.026.807.807,0,0,1-.312-.018.771.771,0,0,0,.3.092.885.885,0,0,0,.262-.016C-437.973-16.014-438-16-438.039-15.976Zm.936-1.07,0,0a.8.8,0,0,0,.24-.234.975.975,0,0,0,.114-.248c0,.033.006.07.006.114a1.04,1.04,0,0,1-.032.116c-.005.018-.008.035-.014.053a.909.909,0,0,1-.355.464h0l0,0a.772.772,0,0,0,.319-.225c.01-.011.017-.025.028-.038-.005.016-.009.032-.015.048a.855.855,0,0,1-.041.095l-.01.023c-.008.016-.018.03-.026.046s-.025.034-.037.049a.7.7,0,0,1-.107.1.758.758,0,0,1-.254.125h0l0,0a.632.632,0,0,0,.215-.024.986.986,0,0,1-.526.293.824.824,0,0,1-.358-.016.958.958,0,0,1-.244-.108,1.728,1.728,0,0,1-.173-.127c-.045-.037-.086-.076-.126-.116s-.072-.07-.11-.1a1.929,1.929,0,0,0-.331-.211.982.982,0,0,1,.118.008.867.867,0,0,1,.241.068h0a.786.786,0,0,0-.22-.137,1.166,1.166,0,0,0-.114-.041l.006,0a.654.654,0,0,1,.122-.016.726.726,0,0,1,.137.007.53.53,0,0,1,.206.1l0,0,0,0a.8.8,0,0,0-.191-.165l-.012,0,.023-.007c.022-.007.042-.012.061-.017h.026a.319.319,0,0,1,.069.019.821.821,0,0,1,.147.087l0,0,0,0a1.579,1.579,0,0,0-.116-.127.666.666,0,0,1,.226.033l.042.011h0l.011,0a1.522,1.522,0,0,0,.44.061,1.121,1.121,0,0,0,.219-.024,1.2,1.2,0,0,0,.337-.118,1.113,1.113,0,0,0,.271-.2.9.9,0,0,1-.031.109.837.837,0,0,1-.18.279Zm-.043-1.679a1.35,1.35,0,0,0,.134-.292.816.816,0,0,1,.022.093.881.881,0,0,1,0,.29v0a.011.011,0,0,0,0,0,.844.844,0,0,0,.076-.287.915.915,0,0,0-.008-.23c.017.024.034.053.053.084a.968.968,0,0,1,.009.624l0,0a.019.019,0,0,1,0,0,.786.786,0,0,0,.12-.311c0-.01,0-.02,0-.03a1.1,1.1,0,0,1,.038.129c0,.017,0,.032.005.048s0,.028,0,.041a.569.569,0,0,1-.02.115.806.806,0,0,1-.095.217l0,0,0,0a.752.752,0,0,0,.131-.136,1.027,1.027,0,0,1-.527.9,1.541,1.541,0,0,1-.194.089,1.578,1.578,0,0,1-.3.074,1.475,1.475,0,0,1-.293.03H-438l.035-.024.157-.088h0l0,0c-.073.016-.142.028-.2.037l-.066.009c0-.006,0-.012,0-.02a.278.278,0,0,1,.072-.079.788.788,0,0,1,.174-.1h0l0,0a2.132,2.132,0,0,0-.229.055l0,0c0-.022.008-.041.012-.061l.011-.015a.411.411,0,0,1,.049-.042,1.233,1.233,0,0,1,.147-.088h0l0,0c-.059.012-.115.027-.169.042a2.77,2.77,0,0,1,.5-.623l.017-.017c.05-.052.1-.107.145-.163A2.17,2.17,0,0,0-437.146-18.725Zm-.5-1.735a.968.968,0,0,1,.237.56v0a.025.025,0,0,1,0,.006.791.791,0,0,0-.006-.325c0-.011-.006-.022-.009-.033a1.04,1.04,0,0,1,.084.107c.007.01.012.019.018.029a.484.484,0,0,1,.019.047.594.594,0,0,1,.025.11.81.81,0,0,1,0,.231v0a.016.016,0,0,1,0,0,.758.758,0,0,0,.068-.178,1.087,1.087,0,0,1,.084.46,1.138,1.138,0,0,1-.179.549c-.039.061-.08.121-.12.177s-.109.141-.163.208l-.036.044c-.039.05-.084.118-.127.186-.025.038-.049.076-.073.111h0c0-.03,0-.061.008-.091a1.288,1.288,0,0,1,.054-.221v0a1.608,1.608,0,0,0-.124.208c-.015.031-.028.061-.04.092h0l0-.007a.485.485,0,0,1-.016-.091.6.6,0,0,1,0-.112.611.611,0,0,1,.075-.235l0,0,0,0a.755.755,0,0,0-.145.227l0,.01c-.012-.031-.023-.062-.032-.091a.287.287,0,0,1,0-.032.4.4,0,0,1,.011-.085.726.726,0,0,1,.075-.179l0,0,0,0a.9.9,0,0,0-.12.136,1.027,1.027,0,0,1,.013-.367,3.052,3.052,0,0,1,.122-.408l.029-.084c.024-.068.047-.137.067-.206a2.364,2.364,0,0,0,.08-.331,1.523,1.523,0,0,0,.02-.317.905.905,0,0,1,.052.075.887.887,0,0,1,.1.264v0a.872.872,0,0,0-.034-.289.955.955,0,0,0-.091-.207C-437.7-20.5-437.673-20.482-437.643-20.46Zm2.744-3.171-.26-.222c-.3-.254-.578-.484-.849-.692a9.057,9.057,0,0,0,2.809-1.314A8.521,8.521,0,0,1-434.9-23.631Z" transform="translate(455.306 46.818)" fill="#fff"/>
    </g>
  </g>
</svg>
