<svg xmlns="http://www.w3.org/2000/svg" width="47" height="46" viewBox="0 0 47 46">
  <g id="Gruppe_1670" data-name="Gruppe 1670" transform="translate(0.475 -0.435)">
    <g id="Gruppe_169" data-name="Gruppe 169" transform="translate(-0.475 0.356)">
      <ellipse id="Ellipse_53" data-name="Ellipse 53" cx="23.5" cy="23" rx="23.5" ry="23" transform="translate(0 0.079)" fill="#fff"/>
    </g>
    <g id="Gruppe_170" data-name="Gruppe 170" transform="translate(7.988 7.899)">
      <path id="Pfad_811" data-name="Pfad 811" d="M5.435,4.767A3.994,3.994,0,1,1,13.348,4V8.962c.572,0,1.144-.1,1.716-.1a9.25,9.25,0,0,1,1.621.1V4a4.029,4.029,0,0,1,4-4,4.123,4.123,0,0,1,4,4.767l-1.049,5.816c3.718,1.621,6.579,4.481,6.579,8.009v2.193c0,2.956-1.907,5.435-4.672,7.055a19.9,19.9,0,0,1-10.488,2.67A19.9,19.9,0,0,1,4.576,27.84C1.907,26.219,0,23.74,0,20.785V18.592c0-3.528,2.765-6.388,6.483-8.009Zm16.78,6.579,1.239-6.865a2.818,2.818,0,0,0-2.765-3.337,2.767,2.767,0,0,0-2.765,2.765V10.2a5.436,5.436,0,0,0-1.239-.1c-.572,0-1.049-.1-1.621-.1a10.362,10.362,0,0,0-1.716.1c-.381,0-.858.1-1.239.1V4a2.749,2.749,0,1,0-5.435.572l1.239,6.865c-4,1.525-6.674,4.2-6.674,7.246V20.88c0,4.672,6.2,8.486,13.825,8.486s13.825-3.814,13.825-8.486V18.687C28.984,15.541,26.315,12.871,22.215,11.346Z" fill="#633001" fill-rule="evenodd"/>
      <path id="Pfad_812" data-name="Pfad 812" d="M29.049,21.693c0,4.672-6.2,8.486-13.825,8.486S1.4,26.365,1.4,21.693V19.5H29.145v2.193Z" transform="translate(-0.065 -0.908)" fill="#fedc90"/>
      <path id="Pfad_813" data-name="Pfad 813" d="M6.739,4.637a2.749,2.749,0,1,1,5.435-.572v6.293a28.874,28.874,0,0,1,2.956-.191c.953,0,1.907.1,2.86.191V4.065A2.767,2.767,0,0,1,20.755,1.3,2.869,2.869,0,0,1,23.52,4.637L22.28,11.5c4,1.525,6.769,4.2,6.769,7.246,0,4.672-6.2,8.486-13.825,8.486S1.4,23.42,1.4,18.748c0-3.051,2.67-5.721,6.674-7.246Z" transform="translate(-0.065 -0.061)" fill="#d1884f" fill-rule="evenodd"/>
      <path id="Pfad_814" data-name="Pfad 814" d="M11.651,18.788c0,1.239-.667,2.288-1.525,2.288S8.6,20.028,8.6,18.788,9.267,16.5,10.125,16.5,11.651,17.549,11.651,18.788Z" transform="translate(-0.401 -0.768)" fill="#633001"/>
      <path id="Pfad_815" data-name="Pfad 815" d="M22.751,18.788c0,1.239-.667,2.288-1.525,2.288S19.7,20.028,19.7,18.788s.667-2.288,1.525-2.288S22.751,17.549,22.751,18.788Z" transform="translate(-0.917 -0.768)" fill="#633001"/>
    </g>
  </g>
</svg>
